<svg width="91" height="91" viewBox="0 0 91 91" fill="none" xmlns="http://www.w3.org/2000/svg">
<g id="Vector">
<path d="M74.9891 28.9021C74.0925 27.8156 73.1193 26.795 72.0796 25.8486L69.0934 28.8337C69.4456 29.1495 69.7903 29.4762 70.1273 29.8139C70.7904 30.4783 71.4131 31.173 71.9945 31.8974C73.4614 33.7267 74.663 35.7419 75.5814 37.9165C76.9068 41.0561 77.5783 44.3932 77.5783 47.8368V52.0915C77.5783 55.5342 76.9068 58.8722 75.5814 62.0118C74.2998 65.0458 72.4655 67.7726 70.1273 70.1144C67.7899 72.4562 65.0692 74.2949 62.0401 75.5781C58.9065 76.906 55.5757 77.5797 52.1396 77.5797H17.1973L4.21296 84.1425V47.9136C4.21296 44.4608 4.88704 41.1127 6.21665 37.9638C7.5016 34.9196 9.34182 32.1852 11.6868 29.8367C14.0317 27.4872 16.7609 25.6435 19.7984 24.3561C22.9421 23.0239 26.283 22.3486 29.7292 22.3486H52.1396C53.2906 22.3486 54.429 22.4237 55.553 22.5748C57.1977 22.7943 58.8096 23.1742 60.3785 23.7137L63.6452 20.4474C62.2061 19.8388 60.708 19.3415 59.1626 18.9659C56.9112 18.418 54.5596 18.1276 52.1396 18.1276H29.7292C13.3104 18.1276 0 31.4634 0 47.9136V91L18.2 81.8007H52.1396C68.5163 81.8007 81.7913 68.4995 81.7913 52.0915V47.8368C81.7913 40.6408 79.2382 34.0425 74.9891 28.9021Z" fill="#DA0032"/>
<path d="M78.1311 0L59.1626 18.9659L55.553 22.5748L36.4539 41.6715L36.3848 54.6351L49.3228 54.565L71.9945 31.8974L74.9891 28.9021L91 12.8944L78.1311 0ZM78.1277 5.96683L85.0387 12.891L81.472 16.4569L74.561 9.53274L78.1277 5.96683ZM72.0796 25.8486L69.0934 28.8337L47.5711 50.3533L40.6205 50.3913L40.6576 43.4317L60.3785 23.7137L63.6452 20.4474L71.5791 12.5145L78.49 19.4386L72.0796 25.8486Z" fill="#DA0032"/>
<path d="M49.579 59.3424H18.3887V63.5634H49.579V59.3424Z" fill="#DA0032"/>
</g>
</svg>
