<svg width="91" height="63" viewBox="0 0 91 63" fill="none" xmlns="http://www.w3.org/2000/svg">
<path id="Vector" d="M70.1221 2C72.5446 2 74.9471 2.42706 77.1035 3.2627L77.5312 3.43555C79.8464 4.4063 81.8632 5.71828 83.5557 7.36328C85.144 8.90711 86.4198 10.7179 87.3467 12.7285L87.5273 13.1328L87.5293 13.1377C88.5152 15.4027 89 17.6866 89 20.0518C89 23.39 88.6655 26.9852 87.9883 30.8408C87.3584 34.4269 86.3907 38.0146 85.085 41.5264L84.8193 42.2285L84.8164 42.2363C83.474 45.7592 81.7535 49.121 79.6523 52.3232L79.2266 52.9619C77.2359 55.9046 74.8888 58.4398 72.1543 60.5508L61.998 53.6855C63.6442 51.6755 64.9453 49.6969 65.874 47.7686L65.873 47.7676C67.059 45.4074 67.9971 43.0319 68.6768 40.5928L69.2783 38.4316L67.0635 38.0811C64.8645 37.7321 62.86 37.0385 60.9395 35.9531L60.9336 35.9492L60.9268 35.9453L60.5771 35.7461C58.8436 34.7331 57.3119 33.457 56.0156 31.9531C54.6302 30.3459 53.5583 28.5684 52.7471 26.4658L52.7441 26.459L52.7412 26.4531L52.5967 26.0723C51.8956 24.1597 51.542 22.128 51.542 20.0039C51.542 17.6411 52.0246 15.3666 53 13.1641C53.9944 10.9674 55.3418 9.00925 57.0352 7.36328C58.6325 5.81066 60.4684 4.5617 62.5537 3.61523L62.9736 3.42969C65.1949 2.4797 67.5549 2 70.1221 2ZM20.5801 2C23.1517 2 25.6653 2.48097 27.9893 3.43457V3.43555C30.307 4.40734 32.3139 5.71612 33.9453 7.34473C35.4996 8.89631 36.7853 10.7216 37.7598 12.7549L37.9502 13.1641L37.9521 13.168C38.9749 15.4155 39.458 17.6879 39.458 20.0518C39.458 23.39 39.1245 26.9852 38.4473 30.8408C37.8174 34.4268 36.8496 38.0147 35.5439 41.5264L35.2783 42.2285L35.2754 42.2363C33.8505 45.9757 31.9453 49.5458 29.6465 52.9463C27.6076 55.8988 25.2518 58.4368 22.5176 60.5479L12.4131 53.666C13.8693 51.8207 15.0571 50.0137 15.9814 48.2588L16.2178 47.7998C17.4112 45.4293 18.3525 43.0427 19.0352 40.5928L19.6377 38.4316L17.4229 38.0811C15.2239 37.7321 13.2194 37.0384 11.2988 35.9531L11.293 35.9492L11.2861 35.9453L10.9365 35.7461C9.31819 34.8004 7.88685 33.6314 6.69629 32.2725L6.44531 31.9785C5.17785 30.4591 4.15245 28.7925 3.36035 26.8564L3.20508 26.4658L3.20215 26.459L3.2002 26.4531L3.05469 26.0723C2.35364 24.1598 2.00001 22.1279 2 20.0039C2 17.6411 2.48351 15.3667 3.45898 13.1641C4.45344 10.9674 5.80074 9.00924 7.49414 7.36328C9.09143 5.81075 10.9265 4.56167 13.0117 3.61523L13.4326 3.42969C15.6537 2.47982 18.0132 2.00004 20.5801 2Z" stroke="#DA0032" stroke-width="4"/>
</svg>
