<svg width="80" height="77" viewBox="0 0 80 77" fill="none" xmlns="http://www.w3.org/2000/svg">
<path d="M77.928 0.782876L74.3628 8.32783C73.9822 9.13315 72.8731 9.22947 72.3598 8.5012L68.2263 2.64244C67.7129 1.91418 68.1766 0.903637 69.0638 0.816956L77.3776 0.00274648C77.8027 -0.0387419 78.1105 0.397627 77.928 0.782876Z" fill="white"/>
<path d="M11.9451 40.0479C14.3761 40.0479 16.7055 40.671 18.3361 41.7578C18.8924 42.129 20.1877 43.121 20.1877 44.3131C20.1877 45.5051 18.8924 46.4971 18.3361 46.8683C16.7055 47.9552 14.3769 48.5782 11.9451 48.5782C9.51335 48.5782 7.18472 47.9552 5.55415 46.8683C4.99777 46.4971 3.70252 45.5051 3.70252 44.3131C3.70252 43.121 4.99777 42.129 5.55415 41.7578C7.18472 40.6717 9.5141 40.0479 11.9451 40.0479ZM11.9451 36.3503C5.34792 36.3503 0 39.916 0 44.3138C0 48.7123 5.34792 52.2774 11.9451 52.2774C18.5423 52.2774 23.8902 48.7123 23.8902 44.3138C23.8902 39.916 18.5423 36.3503 11.9451 36.3503Z" fill="white"/>
<path d="M12.0252 60.884C8.95549 60.884 6.04525 60.0705 3.83012 58.5932C1.38427 56.9633 0.0378338 54.72 0.0378338 52.2774H3.74036C3.74036 53.8524 5.08457 54.9837 5.88576 55.5179C7.47626 56.5781 9.71365 57.1863 12.0252 57.1863C14.3368 57.1863 16.5749 56.5781 18.1647 55.5179C18.9659 54.9837 20.3101 53.8524 20.3101 52.2774H24.0126C24.0126 54.72 22.6654 56.9633 20.2203 58.5932C18.0052 60.0705 15.095 60.884 12.0252 60.884Z" fill="white"/>
<path d="M12.0252 68.9179C8.95549 68.9179 6.04525 68.1044 3.83012 66.6272C1.38502 64.9965 0.0378338 62.7539 0.0378338 60.3113H3.74036C3.74036 61.8864 5.08457 63.0177 5.88576 63.5518C7.47626 64.6127 9.71365 65.2203 12.0252 65.2203C14.3368 65.2203 16.5749 64.612 18.1647 63.5518C18.9659 63.0177 20.3101 61.8864 20.3101 60.3113H24.0126C24.0126 62.7539 22.6654 64.9973 20.2203 66.6272C18.0052 68.1052 15.095 68.9179 12.0252 68.9179Z" fill="white"/>
<path d="M12.0252 76.9526C8.95549 76.9526 6.04525 76.1391 3.83012 74.6618C1.38502 73.0312 0.0378338 70.7886 0.0378338 68.346H3.74036C3.74036 69.921 5.08457 71.0523 5.88576 71.5865C7.47626 72.6467 9.71365 73.2549 12.0252 73.2549C14.3368 73.2549 16.5749 72.6467 18.1647 71.5865C18.9659 71.0523 20.3101 69.921 20.3101 68.346H24.0126C24.0126 70.7886 22.6654 73.0319 20.2203 74.6618C18.0052 76.1391 15.095 76.9526 12.0252 76.9526Z" fill="white"/>
<path d="M39.9881 32.0614C42.4191 32.0614 44.7485 32.6845 46.3791 33.7713C46.9362 34.1425 48.2307 35.1345 48.2307 36.3266C48.2307 37.5186 46.9355 38.5106 46.3791 38.8818C44.7493 39.9687 42.4199 40.5917 39.9881 40.5917C37.5571 40.5917 35.2277 39.9687 33.5972 38.8818C33.0401 38.5106 31.7456 37.5186 31.7456 36.3266C31.7456 35.1345 33.0408 34.1425 33.5972 33.7713C35.2277 32.6845 37.5571 32.0614 39.9881 32.0614ZM39.9881 28.3638C33.3909 28.3638 28.043 31.9288 28.043 36.3273C28.043 40.7251 33.3909 44.2909 39.9881 44.2909C46.5853 44.2909 51.9332 40.7251 51.9332 36.3266C51.9332 31.9288 46.5853 28.3638 39.9881 28.3638Z" fill="white"/>
<path d="M40.069 52.8967C36.9993 52.8967 34.089 52.0833 31.8739 50.606C29.4288 48.9753 28.0816 46.7327 28.0816 44.2901H31.7841C31.7841 45.8652 33.1283 46.9965 33.9295 47.5306C35.52 48.5908 37.7574 49.1991 40.069 49.1991C42.3806 49.1991 44.6187 48.5908 46.2085 47.5306C47.0096 46.9965 48.3539 45.8652 48.3539 44.2901H52.0564C52.0564 46.7327 50.7092 48.9761 48.2641 50.606C46.0482 52.0833 43.138 52.8967 40.069 52.8967Z" fill="white"/>
<path d="M40.069 60.9314C36.9993 60.9314 34.089 60.1179 31.8739 58.6406C29.4288 57.01 28.0816 54.7674 28.0816 52.3248H31.7841C31.7841 53.8999 33.1283 55.0312 33.9295 55.5653C35.5193 56.6255 37.7574 57.2337 40.069 57.2337C42.3806 57.2337 44.6187 56.6255 46.2085 55.5653C47.0096 55.0312 48.3539 53.8999 48.3539 52.3248H52.0564C52.0564 54.7674 50.7092 57.0107 48.2641 58.6406C46.0482 60.1179 43.138 60.9314 40.069 60.9314Z" fill="white"/>
<path d="M40.069 68.9653C36.9993 68.9653 34.089 68.1519 31.8739 66.6746C29.4288 65.0439 28.0816 62.8013 28.0816 60.3587H31.7841C31.7841 61.9338 33.1283 63.0651 33.9295 63.5992C35.52 64.6594 37.7574 65.2677 40.069 65.2677C42.3806 65.2677 44.6187 64.6594 46.2085 63.5992C47.0096 63.0651 48.3539 61.9338 48.3539 60.3587H52.0564C52.0564 62.8013 50.7092 65.0447 48.2641 66.6746C46.0482 68.1519 43.138 68.9653 40.069 68.9653Z" fill="white"/>
<path d="M40.069 77C36.9993 77 34.089 76.1865 31.8739 74.7092C29.4288 73.0786 28.0816 70.836 28.0816 68.3934H31.7841C31.7841 69.9685 33.1283 71.0998 33.9295 71.6339C35.5193 72.6941 37.7574 73.3023 40.069 73.3023C42.3806 73.3023 44.6187 72.6941 46.2085 71.6339C47.0096 71.0998 48.3539 69.9685 48.3539 68.3934H52.0564C52.0564 70.836 50.7092 73.0793 48.2641 74.7092C46.0482 76.1865 43.138 77 40.069 77Z" fill="white"/>
<path d="M67.9325 23.9793C70.3635 23.9793 72.6929 24.6024 74.3234 25.6892C74.8798 26.0604 76.1751 27.0524 76.1751 28.2445C76.1751 29.4365 74.8798 30.4285 74.3234 30.7997C72.6929 31.8866 70.3642 32.5096 67.9325 32.5096C65.5015 32.5096 63.1721 31.8866 61.5415 30.7997C60.9852 30.4285 59.6899 29.4365 59.6899 28.2445C59.6899 27.0524 60.9852 26.0604 61.5415 25.6892C63.1721 24.6024 65.5007 23.9793 67.9325 23.9793ZM67.9325 20.2817C61.3353 20.2817 55.9874 23.8467 55.9874 28.2452C55.9874 32.6437 61.3353 36.2088 67.9325 36.2088C74.5297 36.2088 79.8776 32.6437 79.8776 28.2452C79.8776 23.8467 74.5297 20.2817 67.9325 20.2817Z" fill="white"/>
<path d="M68.0126 44.8146C64.9429 44.8146 62.0326 44.0012 59.8175 42.5239C57.3724 40.8932 56.0252 38.6507 56.0252 36.208H59.7277C59.7277 37.7831 61.072 38.9144 61.8731 39.4486C63.4636 40.5087 65.701 41.117 68.0126 41.117C70.3242 41.117 72.5623 40.5087 74.1521 39.4486C74.9533 38.9144 76.2975 37.7831 76.2975 36.208H80C80 38.6507 78.6528 40.894 76.2077 42.5239C73.9926 44.0012 71.0816 44.8146 68.0126 44.8146Z" fill="white"/>
<path d="M68.0126 52.8493C64.9429 52.8493 62.0326 52.0358 59.8175 50.5586C57.3724 48.9279 56.0252 46.6853 56.0252 44.2427H59.7277C59.7277 45.8178 61.072 46.9491 61.8731 47.4832C63.4629 48.5434 65.701 49.1517 68.0126 49.1517C70.3242 49.1517 72.5623 48.5434 74.1521 47.4832C74.9533 46.9491 76.2975 45.8178 76.2975 44.2427H80C80 46.6853 78.6528 48.9287 76.2077 50.5586C73.9926 52.0358 71.0816 52.8493 68.0126 52.8493Z" fill="white"/>
<path d="M68.0126 60.884C64.9429 60.884 62.0326 60.0705 59.8175 58.5932C57.3724 56.9626 56.0252 54.72 56.0252 52.2774H59.7277C59.7277 53.8524 61.072 54.9837 61.8731 55.5179C63.4636 56.5781 65.701 57.1863 68.0126 57.1863C70.3242 57.1863 72.5623 56.5781 74.1521 55.5179C74.9533 54.9837 76.2975 53.8524 76.2975 52.2774H80C80 54.72 78.6528 56.9633 76.2077 58.5932C73.9926 60.0705 71.0816 60.884 68.0126 60.884Z" fill="white"/>
<path d="M68.0126 68.9179C64.9429 68.9179 62.0326 68.1044 59.8175 66.6272C57.3724 64.9965 56.0252 62.7539 56.0252 60.3113H59.7277C59.7277 61.8864 61.072 63.0177 61.8731 63.5518C63.4636 64.612 65.701 65.2203 68.0126 65.2203C70.3242 65.2203 72.5623 64.612 74.1521 63.5518C74.9533 63.0177 76.2975 61.8864 76.2975 60.3113H80C80 62.7539 78.6528 64.9973 76.2077 66.6272C73.9926 68.1052 71.0816 68.9179 68.0126 68.9179Z" fill="white"/>
<path d="M68.0126 76.9526C64.9429 76.9526 62.0326 76.1391 59.8175 74.6618C57.3724 73.0312 56.0252 70.7886 56.0252 68.346H59.7277C59.7277 69.921 61.072 71.0523 61.8731 71.5865C63.4636 72.6467 65.701 73.2549 68.0126 73.2549C70.3242 73.2549 72.5623 72.6467 74.1521 71.5865C74.9533 71.0523 76.2975 69.921 76.2975 68.346H80C80 70.7886 78.6528 73.0319 76.2077 74.6618C73.9926 76.1391 71.0816 76.9526 68.0126 76.9526Z" fill="white"/>
<path d="M4.3316 30.0307L2.7322 26.6953L26.1083 15.5157L27.7077 18.8511L4.3316 30.0307ZM47.9496 22.4131L36.753 14.5252L34.3865 15.6565L32.7871 12.3211L37.112 10.2526L48.0215 17.9376L54.2203 13.8628L56.2559 16.9515L47.9496 22.4131ZM62.4414 12.8864L60.4058 9.79771L73.7797 1.00588L75.8153 4.09454L62.4414 12.8864Z" fill="white"/>
</svg>
