<svg width="233" height="233" viewBox="0 0 233 233" fill="none" xmlns="http://www.w3.org/2000/svg">
<g id="Layer_1" clip-path="url(#clip0_53_940)">
<path id="Vector" d="M127.85 7.42999C128.679 7.42999 129.489 7.67574 130.178 8.13614C130.867 8.59654 131.404 9.25092 131.721 10.0165C132.038 10.7822 132.121 11.6247 131.959 12.4374C131.798 13.2502 131.399 13.9968 130.813 14.5828C130.227 15.1687 129.48 15.5678 128.667 15.7295C127.855 15.8912 127.012 15.8082 126.247 15.4911C125.481 15.1739 124.827 14.6369 124.366 13.9478C123.906 13.2588 123.66 12.4487 123.66 11.62C123.663 10.5096 124.105 9.44533 124.89 8.66013C125.675 7.87492 126.74 7.43263 127.85 7.42999ZM127.85 0C125.552 0 123.305 0.681491 121.394 1.95831C119.483 3.23514 117.994 5.04994 117.115 7.17322C116.235 9.2965 116.005 11.6329 116.453 13.887C116.902 16.141 118.008 18.2115 119.633 19.8366C121.259 21.4617 123.329 22.5684 125.583 23.0167C127.837 23.4651 130.173 23.235 132.297 22.3555C134.42 21.476 136.235 19.9866 137.512 18.0757C138.789 16.1648 139.47 13.9182 139.47 11.62C139.462 8.54338 138.234 5.59548 136.056 3.42279C133.878 1.2501 130.927 0.0299885 127.85 0.0299988V0Z" fill="white"/>
<path id="Vector_2" d="M151.1 9.09C151.6 9.09197 152.088 9.24204 152.503 9.52124C152.918 9.80044 153.24 10.1963 153.43 10.6587C153.62 11.1212 153.669 11.6296 153.57 12.1197C153.471 12.6098 153.23 13.0596 152.875 13.4125C152.521 13.7653 152.07 14.0053 151.58 14.1021C151.089 14.1989 150.581 14.1482 150.12 13.9565C149.658 13.7647 149.263 13.4404 148.986 13.0245C148.708 12.6087 148.56 12.12 148.56 11.62C148.56 11.2869 148.626 10.9571 148.754 10.6495C148.881 10.3419 149.069 10.0625 149.305 9.82748C149.541 9.59242 149.821 9.40625 150.129 9.27969C150.437 9.15314 150.767 9.08868 151.1 9.09ZM151.1 0C148.802 0 146.555 0.681491 144.644 1.95831C142.733 3.23514 141.244 5.04994 140.365 7.17322C139.485 9.2965 139.255 11.6329 139.703 13.887C140.152 16.141 141.258 18.2115 142.883 19.8366C144.509 21.4617 146.579 22.5684 148.833 23.0167C151.087 23.4651 153.423 23.235 155.547 22.3555C157.67 21.476 159.485 19.9866 160.762 18.0757C162.039 16.1648 162.72 13.9182 162.72 11.62C162.709 8.5442 161.481 5.59784 159.303 3.42572C157.125 1.2536 154.176 0.0326253 151.1 0.0299988V0Z" fill="white"/>
<path id="Vector_3" d="M151.1 32.3302C151.602 32.3302 152.093 32.4792 152.511 32.7583C152.929 33.0374 153.254 33.4341 153.447 33.8982C153.639 34.3624 153.689 34.8731 153.591 35.3658C153.493 35.8585 153.251 36.3111 152.896 36.6663C152.541 37.0215 152.088 37.2634 151.595 37.3615C151.103 37.4595 150.592 37.4091 150.128 37.2169C149.664 37.0246 149.267 36.6991 148.988 36.2814C148.709 35.8637 148.56 35.3726 148.56 34.8702C148.56 34.1966 148.828 33.5505 149.304 33.0742C149.78 32.5979 150.426 32.3302 151.1 32.3302ZM151.1 23.2402C148.799 23.2383 146.55 23.9187 144.636 25.1954C142.722 26.4721 141.23 28.2878 140.348 30.4127C139.466 32.5376 139.235 34.8763 139.682 37.133C140.13 39.3897 141.237 41.4629 142.863 43.0904C144.489 44.7179 146.561 45.8265 148.817 46.276C151.074 46.7256 153.413 46.4959 155.538 45.6159C157.664 44.736 159.481 43.2453 160.759 41.3326C162.038 39.4198 162.72 37.1709 162.72 34.8702C162.72 31.7875 161.496 28.8309 159.317 26.6501C157.138 24.4694 154.183 23.2429 151.1 23.2402Z" fill="white"/>
<path id="Vector_4" d="M174.35 23.24C180.768 23.24 185.97 18.0375 185.97 11.62C185.97 5.20245 180.768 0 174.35 0C167.932 0 162.73 5.20245 162.73 11.62C162.73 18.0375 167.932 23.24 174.35 23.24Z" fill="white"/>
<path id="Vector_5" d="M197.59 23.24C204.008 23.24 209.21 18.0375 209.21 11.62C209.21 5.20245 204.008 0 197.59 0C191.172 0 185.97 5.20245 185.97 11.62C185.97 18.0375 191.172 23.24 197.59 23.24Z" fill="white"/>
<path id="Vector_6" d="M220.84 23.24C227.258 23.24 232.46 18.0375 232.46 11.62C232.46 5.20245 227.258 0 220.84 0C214.422 0 209.22 5.20245 209.22 11.62C209.22 18.0375 214.422 23.24 220.84 23.24Z" fill="white"/>
<path id="Vector_7" d="M174.35 46.49C180.768 46.49 185.97 41.2875 185.97 34.87C185.97 28.4525 180.768 23.25 174.35 23.25C167.932 23.25 162.73 28.4525 162.73 34.87C162.73 41.2875 167.932 46.49 174.35 46.49Z" fill="white"/>
<path id="Vector_8" d="M197.59 46.49C204.008 46.49 209.21 41.2875 209.21 34.87C209.21 28.4525 204.008 23.25 197.59 23.25C191.172 23.25 185.97 28.4525 185.97 34.87C185.97 41.2875 191.172 46.49 197.59 46.49Z" fill="white"/>
<path id="Vector_9" d="M220.84 46.49C227.258 46.49 232.46 41.2875 232.46 34.87C232.46 28.4525 227.258 23.25 220.84 23.25C214.422 23.25 209.22 28.4525 209.22 34.87C209.22 41.2875 214.422 46.49 220.84 46.49Z" fill="white"/>
<path id="Vector_10" d="M151.1 55.5802C151.603 55.5802 152.094 55.7295 152.512 56.009C152.93 56.2886 153.256 56.6858 153.448 57.1505C153.64 57.6153 153.689 58.1265 153.59 58.6195C153.492 59.1125 153.249 59.565 152.892 59.9198C152.536 60.2747 152.083 60.5158 151.589 60.6126C151.096 60.7095 150.585 60.6578 150.121 60.464C149.657 60.2702 149.261 59.9431 148.983 59.5241C148.705 59.1051 148.558 58.6131 148.56 58.1103C148.563 57.4383 148.831 56.7948 149.307 56.3207C149.784 55.8465 150.428 55.5802 151.1 55.5802ZM151.1 46.4902C148.799 46.4883 146.549 47.1689 144.635 48.4461C142.721 49.7232 141.229 51.5395 140.347 53.665C139.466 55.7905 139.235 58.1298 139.683 60.3867C140.131 62.6436 141.239 64.7168 142.866 66.3439C144.493 67.971 146.567 69.0788 148.823 69.5273C151.08 69.9757 153.42 69.7446 155.545 68.8631C157.671 67.9816 159.487 66.4894 160.764 64.5753C162.041 62.6612 162.722 60.4113 162.72 58.1103C162.717 55.0293 161.492 52.0752 159.314 49.8966C157.135 47.718 154.181 46.4929 151.1 46.4902Z" fill="white"/>
<path id="Vector_11" d="M174.35 69.74C180.768 69.74 185.97 64.5375 185.97 58.12C185.97 51.7025 180.768 46.5 174.35 46.5C167.932 46.5 162.73 51.7025 162.73 58.12C162.73 64.5375 167.932 69.74 174.35 69.74Z" fill="white"/>
<path id="Vector_12" d="M197.59 69.74C204.008 69.74 209.21 64.5375 209.21 58.12C209.21 51.7025 204.008 46.5 197.59 46.5C191.172 46.5 185.97 51.7025 185.97 58.12C185.97 64.5375 191.172 69.74 197.59 69.74Z" fill="white"/>
<path id="Vector_13" d="M220.84 69.74C227.258 69.74 232.46 64.5375 232.46 58.12C232.46 51.7025 227.258 46.5 220.84 46.5C214.422 46.5 209.22 51.7025 209.22 58.12C209.22 64.5375 214.422 69.74 220.84 69.74Z" fill="white"/>
<path id="Vector_14" d="M127.85 77.1702C128.679 77.1702 129.489 77.4159 130.178 77.8763C130.867 78.3367 131.404 78.9912 131.721 79.7568C132.038 80.5224 132.121 81.3648 131.959 82.1776C131.798 82.9904 131.399 83.737 130.813 84.323C130.227 84.909 129.48 85.3081 128.667 85.4697C127.855 85.6314 127.012 85.5484 126.247 85.2313C125.481 84.9141 124.827 84.3771 124.366 83.688C123.906 82.999 123.66 82.1889 123.66 81.3602C123.663 80.2498 124.105 79.1855 124.89 78.4003C125.675 77.6151 126.74 77.1729 127.85 77.1702ZM127.85 69.7402C125.552 69.7402 123.305 70.4217 121.394 71.6985C119.483 72.9754 117.994 74.7902 117.115 76.9135C116.235 79.0367 116.005 81.3731 116.453 83.6271C116.902 85.8812 118.008 87.9517 119.633 89.5768C121.259 91.2019 123.329 92.3086 125.583 92.757C127.837 93.2053 130.173 92.9752 132.297 92.0957C134.42 91.2162 136.235 89.7268 137.512 87.8159C138.789 85.905 139.47 83.6584 139.47 81.3602C139.47 78.2784 138.246 75.3228 136.067 73.1436C133.887 70.9644 130.932 69.7402 127.85 69.7402Z" fill="white"/>
<path id="Vector_15" d="M151.1 78.8302C151.6 78.8322 152.088 78.9823 152.503 79.2615C152.918 79.5407 153.24 79.9365 153.43 80.3989C153.62 80.8614 153.669 81.3698 153.57 81.8599C153.471 82.35 153.23 82.7999 152.875 83.1527C152.521 83.5055 152.07 83.7455 151.58 83.8423C151.089 83.9391 150.581 83.8884 150.12 83.6967C149.658 83.5049 149.263 83.1806 148.986 82.7648C148.708 82.3489 148.56 81.8602 148.56 81.3602C148.56 81.0271 148.626 80.6973 148.754 80.3897C148.881 80.0821 149.069 79.8028 149.305 79.5677C149.541 79.3326 149.821 79.1465 150.129 79.0199C150.437 78.8933 150.767 78.8289 151.1 78.8302ZM151.1 69.7402C148.802 69.7402 146.555 70.4217 144.644 71.6985C142.733 72.9754 141.244 74.7902 140.365 76.9135C139.485 79.0367 139.255 81.3731 139.703 83.6271C140.152 85.8812 141.258 87.9517 142.883 89.5768C144.509 91.2019 146.579 92.3086 148.833 92.757C151.087 93.2053 153.423 92.9752 155.547 92.0957C157.67 91.2162 159.485 89.7268 160.762 87.8159C162.039 85.905 162.72 83.6584 162.72 81.3602C162.717 78.2792 161.492 75.3251 159.314 73.1465C157.135 70.9679 154.181 69.7429 151.1 69.7402Z" fill="white"/>
<path id="Vector_16" d="M174.34 78.8302C174.84 78.8302 175.33 78.9786 175.746 79.2566C176.162 79.5346 176.486 79.9297 176.677 80.392C176.869 80.8543 176.919 81.3631 176.821 81.8538C176.724 82.3446 176.483 82.7953 176.129 83.1492C175.775 83.503 175.324 83.744 174.834 83.8416C174.343 83.9392 173.834 83.8891 173.372 83.6976C172.91 83.5061 172.514 83.1819 172.236 82.7658C171.958 82.3498 171.81 81.8606 171.81 81.3602C171.813 80.69 172.08 80.0481 172.554 79.5742C173.028 79.1003 173.67 78.8328 174.34 78.8302ZM174.34 69.7402C172.042 69.7422 169.797 70.4253 167.887 71.7034C165.977 72.9814 164.49 74.7969 163.612 76.9204C162.734 79.0438 162.505 81.3799 162.954 83.6333C163.404 85.8867 164.511 87.9562 166.137 89.5803C167.762 91.2044 169.833 92.3101 172.087 92.7577C174.34 93.2052 176.676 92.9745 178.799 92.0947C180.922 91.2149 182.736 89.7256 184.012 87.8149C185.289 85.9042 185.97 83.658 185.97 81.3602C185.97 79.8334 185.669 78.3216 185.084 76.9111C184.5 75.5007 183.643 74.2192 182.563 73.1401C181.483 72.0609 180.201 71.2053 178.79 70.6219C177.379 70.0385 175.867 69.7389 174.34 69.7402Z" fill="white"/>
<path id="Vector_17" d="M220.83 78.8302C221.33 78.8302 221.82 78.9786 222.236 79.2566C222.652 79.5346 222.976 79.9297 223.167 80.392C223.359 80.8543 223.409 81.3631 223.311 81.8538C223.214 82.3446 222.973 82.7953 222.619 83.1492C222.265 83.503 221.814 83.744 221.324 83.8416C220.833 83.9392 220.324 83.8891 219.862 83.6976C219.4 83.5061 219.004 83.1819 218.726 82.7658C218.448 82.3498 218.3 81.8606 218.3 81.3602C218.303 80.69 218.57 80.0481 219.044 79.5742C219.518 79.1003 220.16 78.8328 220.83 78.8302ZM220.83 69.7402C218.532 69.7422 216.287 70.4253 214.377 71.7034C212.467 72.9814 210.98 74.7969 210.102 76.9204C209.224 79.0438 208.995 81.3799 209.444 83.6333C209.894 85.8867 211.001 87.9562 212.627 89.5803C214.252 91.2044 216.323 92.3101 218.577 92.7577C220.83 93.2052 223.166 92.9745 225.289 92.0947C227.412 91.2149 229.226 89.7256 230.502 87.8149C231.779 85.9042 232.46 83.658 232.46 81.3602C232.46 79.8334 232.159 78.3216 231.574 76.9111C230.99 75.5007 230.133 74.2192 229.053 73.1401C227.973 72.0609 226.691 71.2053 225.28 70.6219C223.869 70.0385 222.357 69.7389 220.83 69.7402Z" fill="white"/>
<path id="Vector_18" d="M197.59 78.8302C198.09 78.8302 198.58 78.9786 198.996 79.2566C199.412 79.5346 199.736 79.9297 199.927 80.392C200.119 80.8543 200.169 81.363 200.071 81.8538C199.974 82.3446 199.733 82.7953 199.379 83.1492C199.025 83.503 198.574 83.744 198.084 83.8416C197.593 83.9392 197.084 83.8891 196.622 83.6976C196.16 83.5061 195.764 83.1819 195.486 82.7658C195.208 82.3498 195.06 81.8606 195.06 81.3602C195.06 80.6892 195.327 80.0457 195.801 79.5712C196.275 79.0968 196.919 78.8302 197.59 78.8302ZM197.59 69.7402C195.293 69.7462 193.049 70.4327 191.142 71.7131C189.236 72.9935 187.751 74.8104 186.876 76.9342C186.001 79.058 185.775 81.3934 186.227 83.6455C186.679 85.8976 187.788 87.9653 189.414 89.5873C191.04 91.2094 193.111 92.3132 195.364 92.7591C197.617 93.205 199.952 92.9731 202.074 92.0928C204.195 91.2124 206.008 89.723 207.284 87.8128C208.559 85.9026 209.24 83.6572 209.24 81.3602C209.24 78.2784 208.016 75.3228 205.837 73.1436C203.657 70.9644 200.702 69.7402 197.62 69.7402H197.59Z" fill="white"/>
<path id="Vector_19" d="M127.85 100.42C128.679 100.42 129.489 100.666 130.178 101.127C130.867 101.587 131.404 102.241 131.721 103.007C132.038 103.773 132.121 104.615 131.959 105.428C131.798 106.241 131.399 106.987 130.813 107.573C130.227 108.159 129.48 108.558 128.667 108.72C127.855 108.882 127.012 108.799 126.247 108.482C125.481 108.164 124.826 107.627 124.366 106.938C123.906 106.249 123.66 105.439 123.66 104.61C123.663 103.5 124.105 102.436 124.89 101.651C125.675 100.865 126.739 100.423 127.85 100.42ZM127.85 92.9805C125.549 92.9785 123.3 93.6589 121.386 94.9356C119.472 96.2123 117.98 98.028 117.098 100.153C116.216 102.278 115.985 104.617 116.432 106.873C116.88 109.13 117.987 111.203 119.613 112.831C121.239 114.458 123.311 115.567 125.567 116.016C127.824 116.466 130.163 116.236 132.288 115.356C134.414 114.476 136.231 112.986 137.509 111.073C138.788 109.16 139.47 106.911 139.47 104.61C139.457 101.536 138.227 98.5926 136.05 96.4226C133.872 94.2527 130.924 93.0331 127.85 93.0305V92.9805Z" fill="white"/>
<path id="Vector_20" d="M151.1 100.42C151.929 100.42 152.739 100.666 153.428 101.127C154.117 101.587 154.654 102.241 154.971 103.007C155.288 103.773 155.371 104.615 155.209 105.428C155.048 106.241 154.649 106.987 154.063 107.573C153.477 108.159 152.73 108.558 151.917 108.72C151.105 108.882 150.262 108.799 149.497 108.482C148.731 108.164 148.076 107.627 147.616 106.938C147.156 106.249 146.91 105.439 146.91 104.61C146.91 103.499 147.351 102.433 148.137 101.648C148.923 100.862 149.989 100.42 151.1 100.42ZM151.1 92.9805C148.799 92.9785 146.55 93.6589 144.636 94.9356C142.722 96.2123 141.23 98.028 140.348 100.153C139.466 102.278 139.235 104.617 139.682 106.873C140.13 109.13 141.237 111.203 142.863 112.831C144.489 114.458 146.561 115.567 148.817 116.016C151.074 116.466 153.413 116.236 155.538 115.356C157.664 114.476 159.481 112.986 160.759 111.073C162.038 109.16 162.72 106.911 162.72 104.61C162.707 101.536 161.477 98.5926 159.3 96.4226C157.122 94.2527 154.174 93.0331 151.1 93.0305V92.9805Z" fill="white"/>
<path id="Vector_21" d="M220.83 100.42C221.659 100.418 222.47 100.663 223.16 101.122C223.851 101.581 224.389 102.235 224.708 103C225.027 103.766 225.111 104.608 224.951 105.422C224.79 106.235 224.392 106.983 223.806 107.57C223.221 108.157 222.474 108.557 221.661 108.719C220.848 108.882 220.005 108.799 219.239 108.482C218.473 108.166 217.818 107.629 217.357 106.939C216.896 106.25 216.65 105.44 216.65 104.61C216.653 103.502 217.093 102.439 217.877 101.654C218.66 100.869 219.721 100.426 220.83 100.42ZM220.83 92.9805C218.53 92.9805 216.281 93.6626 214.369 94.9405C212.456 96.2184 210.966 98.0347 210.085 100.16C209.205 102.285 208.975 104.623 209.423 106.879C209.872 109.135 210.98 111.208 212.606 112.834C214.233 114.461 216.305 115.568 218.561 116.017C220.817 116.466 223.155 116.235 225.281 115.355C227.406 114.475 229.222 112.984 230.5 111.072C231.778 109.159 232.46 106.911 232.46 104.61C232.447 101.535 231.216 98.5894 229.036 96.4191C226.856 94.2489 223.906 93.0304 220.83 93.0305V92.9805Z" fill="white"/>
<path id="Vector_22" d="M11.62 2.48001C13.4277 2.48001 15.1948 3.01604 16.6979 4.02036C18.201 5.02467 19.3724 6.45217 20.0642 8.12228C20.756 9.7924 20.937 11.6302 20.5844 13.4031C20.2317 15.1761 19.3611 16.8047 18.0829 18.0829C16.8046 19.3612 15.1761 20.2317 13.4031 20.5844C11.6301 20.937 9.79244 20.7561 8.12233 20.0643C6.45221 19.3725 5.02471 18.201 4.0204 16.6979C3.01608 15.1948 2.47999 13.4277 2.47999 11.62C2.48264 9.19673 3.44641 6.87348 5.15992 5.15997C6.87343 3.44646 9.19674 2.48266 11.62 2.48001ZM11.62 0C9.32179 0 7.07522 0.681491 5.16432 1.95831C3.25342 3.23514 1.76402 5.04994 0.884533 7.17322C0.00504225 9.2965 -0.225083 11.6329 0.223278 13.887C0.671638 16.141 1.77837 18.2115 3.40345 19.8366C5.02854 21.4617 7.09898 22.5684 9.35304 23.0167C11.6071 23.4651 13.9435 23.235 16.0668 22.3555C18.1901 21.476 20.0048 19.9866 21.2816 18.0757C22.5584 16.1648 23.24 13.9182 23.24 11.62C23.2321 8.54338 22.0043 5.59548 19.8259 3.42279C17.6476 1.2501 14.6966 0.0299885 11.62 0.0299988V0Z" fill="white"/>
<path id="Vector_23" d="M34.87 4.95996C36.1896 4.95996 37.4796 5.35143 38.5767 6.08478C39.6738 6.81813 40.5287 7.86041 41.0332 9.07977C41.5378 10.2991 41.6693 11.6408 41.4111 12.9349C41.153 14.229 40.5167 15.4175 39.5829 16.3499C38.6491 17.2823 37.4597 17.9168 36.1652 18.173C34.8707 18.4293 33.5292 18.2957 32.3106 17.7894C31.092 17.283 30.0509 16.4265 29.3192 15.3283C28.5875 14.2301 28.198 12.9396 28.2 11.62C28.2026 9.8527 28.9065 8.15874 30.1571 6.91003C31.4077 5.66133 33.1027 4.95996 34.87 4.95996ZM34.87 -0.0400391C32.5718 -0.0400391 30.3252 0.641482 28.4143 1.9183C26.5034 3.19513 25.014 5.0099 24.1345 7.13318C23.255 9.25646 23.0249 11.5929 23.4733 13.8469C23.9216 16.101 25.0284 18.1715 26.6535 19.7965C28.2785 21.4216 30.349 22.5283 32.603 22.9767C34.8571 23.425 37.1935 23.195 39.3168 22.3155C41.4401 21.436 43.2548 19.9466 44.5316 18.0357C45.8084 16.1248 46.49 13.8782 46.49 11.58C46.4689 8.5111 45.2357 5.57499 43.0591 3.4115C40.8825 1.24801 37.9389 0.0325345 34.87 0.0299683V-0.0400391Z" fill="white"/>
<path id="Vector_24" d="M58.11 4.95996C59.43 4.95798 60.7211 5.34775 61.8195 6.0799C62.9179 6.81204 63.7743 7.85365 64.2804 9.07285C64.7865 10.292 64.9194 11.634 64.6624 12.9288C64.4053 14.2236 63.7699 15.413 62.8364 16.3464C61.903 17.2798 60.7136 17.9152 59.4188 18.1723C58.1241 18.4293 56.7821 18.2964 55.5629 17.7903C54.3437 17.2842 53.3021 16.4278 52.57 15.3294C51.8378 14.231 51.448 12.94 51.45 11.62C51.4526 9.85443 52.1552 8.16196 53.4036 6.91354C54.652 5.66512 56.3445 4.96261 58.11 4.95996ZM58.11 -0.0400391C55.8118 -0.0400391 53.5652 0.641482 51.6543 1.9183C49.7434 3.19513 48.254 5.0099 47.3745 7.13318C46.495 9.25646 46.2649 11.5929 46.7133 13.8469C47.1616 16.101 48.2684 18.1715 49.8934 19.7965C51.5185 21.4216 53.589 22.5283 55.843 22.9767C58.0971 23.425 60.4335 23.195 62.5568 22.3155C64.6801 21.436 66.4948 19.9466 67.7716 18.0357C69.0484 16.1248 69.73 13.8782 69.73 11.58C69.7115 8.51029 68.4791 5.57266 66.3019 3.4086C64.1247 1.24454 61.1797 0.0299126 58.11 0.0299683V-0.0400391Z" fill="white"/>
<path id="Vector_25" d="M81.36 7.42999C82.1887 7.42999 82.9988 7.67574 83.6879 8.13614C84.3769 8.59654 84.914 9.25092 85.2311 10.0165C85.5482 10.7822 85.6312 11.6247 85.4695 12.4374C85.3078 13.2502 84.9087 13.9968 84.3228 14.5828C83.7368 15.1687 82.9902 15.5678 82.1774 15.7295C81.3646 15.8912 80.5222 15.8082 79.7566 15.4911C78.991 15.1739 78.3365 14.6369 77.8761 13.9478C77.4157 13.2588 77.1701 12.4487 77.1701 11.62C77.1701 10.5087 77.6115 9.443 78.3972 8.65723C79.183 7.87145 80.2487 7.42999 81.36 7.42999ZM81.36 0C79.0618 0 76.8152 0.681491 74.9043 1.95831C72.9934 3.23514 71.504 5.04994 70.6245 7.17322C69.745 9.2965 69.5149 11.6329 69.9633 13.887C70.4116 16.141 71.5184 18.2115 73.1434 19.8366C74.7685 21.4617 76.839 22.5684 79.093 23.0167C81.3471 23.4651 83.6835 23.235 85.8068 22.3555C87.9301 21.476 89.7448 19.9866 91.0216 18.0757C92.2984 16.1648 92.98 13.9182 92.98 11.62C92.9694 8.5442 91.7409 5.59784 89.5631 3.42572C87.3854 1.2536 84.4358 0.0326253 81.36 0.0299988V0Z" fill="white"/>
<path id="Vector_26" d="M104.6 7.42999C105.429 7.42801 106.24 7.67209 106.931 8.13129C107.621 8.59049 108.159 9.24417 108.478 10.0096C108.797 10.7751 108.881 11.6178 108.721 12.4313C108.56 13.2447 108.162 13.9922 107.576 14.5792C106.991 15.1662 106.244 15.5662 105.431 15.7287C104.618 15.8912 103.775 15.8088 103.009 15.492C102.243 15.1752 101.588 14.6381 101.127 13.9489C100.666 13.2596 100.42 12.4491 100.42 11.62C100.423 10.5113 100.864 9.44859 101.647 8.66367C102.43 7.87874 103.491 7.43527 104.6 7.42999ZM104.6 0C102.303 0.00395416 100.058 0.688825 98.1498 1.96805C96.2415 3.24727 94.7552 5.06345 93.8788 7.18707C93.0024 9.3107 92.7751 11.6464 93.2257 13.8992C93.6763 16.1519 94.7847 18.2205 96.4105 19.8436C98.0364 21.4667 100.107 22.5714 102.36 23.0182C104.614 23.4649 106.949 23.2336 109.071 22.3535C111.194 21.4735 113.007 19.9841 114.283 18.0736C115.559 16.1632 116.24 13.9174 116.24 11.62C116.232 8.53991 115.001 5.589 112.819 3.41574C110.636 1.24248 107.68 0.0246872 104.6 0.0299988V0Z" fill="white"/>
<path id="Vector_27" d="M104.6 100.42C105.429 100.418 106.24 100.663 106.931 101.122C107.621 101.581 108.159 102.235 108.478 103C108.797 103.766 108.881 104.608 108.721 105.422C108.56 106.235 108.162 106.983 107.576 107.57C106.991 108.157 106.244 108.557 105.431 108.719C104.618 108.882 103.775 108.799 103.009 108.482C102.243 108.166 101.588 107.629 101.127 106.939C100.666 106.25 100.42 105.44 100.42 104.61C100.423 103.502 100.864 102.439 101.647 101.654C102.43 100.869 103.491 100.426 104.6 100.42ZM104.6 92.9805C102.3 92.9824 100.053 93.6662 98.1414 94.9453C96.2302 96.2244 94.7411 98.0415 93.8624 100.167C92.9837 102.292 92.7548 104.63 93.2047 106.885C93.6546 109.141 94.763 111.212 96.3899 112.838C98.0167 114.463 100.089 115.57 102.345 116.018C104.6 116.466 106.938 116.235 109.063 115.354C111.187 114.474 113.003 112.983 114.281 111.071C115.558 109.158 116.24 106.91 116.24 104.61C116.227 101.533 114.994 98.5861 112.812 96.4156C110.631 94.2451 107.677 93.0278 104.6 93.0305V92.9805Z" fill="white"/>
<path id="Vector_28" d="M127.85 123.67C128.679 123.67 129.49 123.916 130.179 124.377C130.868 124.838 131.405 125.493 131.722 126.259C132.039 127.026 132.121 127.869 131.959 128.682C131.796 129.495 131.396 130.241 130.809 130.827C130.222 131.412 129.475 131.811 128.661 131.971C127.848 132.132 127.005 132.047 126.24 131.729C125.474 131.41 124.82 130.871 124.361 130.181C123.902 129.491 123.658 128.68 123.66 127.85C123.663 126.741 124.105 125.678 124.891 124.894C125.676 124.111 126.74 123.67 127.85 123.67ZM127.85 116.23C125.552 116.23 123.305 116.912 121.394 118.189C119.483 119.466 117.994 121.28 117.115 123.404C116.235 125.527 116.005 127.863 116.453 130.117C116.902 132.371 118.008 134.442 119.633 136.067C121.259 137.692 123.329 138.799 125.583 139.247C127.837 139.696 130.173 139.465 132.297 138.586C134.42 137.706 136.235 136.217 137.512 134.306C138.789 132.395 139.47 130.149 139.47 127.85C139.47 124.769 138.246 121.813 136.067 119.634C133.887 117.455 130.932 116.23 127.85 116.23Z" fill="white"/>
<path id="Vector_29" d="M220.83 123.67C221.66 123.668 222.471 123.913 223.162 124.372C223.852 124.832 224.391 125.486 224.709 126.252C225.027 127.018 225.111 127.862 224.95 128.675C224.789 129.489 224.389 130.237 223.803 130.823C223.216 131.41 222.469 131.809 221.655 131.97C220.841 132.132 219.998 132.048 219.232 131.73C218.466 131.411 217.812 130.873 217.352 130.182C216.892 129.492 216.648 128.68 216.65 127.85C216.653 126.743 217.094 125.681 217.877 124.898C218.661 124.114 219.722 123.673 220.83 123.67ZM220.83 116.23C218.532 116.232 216.287 116.916 214.377 118.194C212.467 119.472 210.98 121.287 210.102 123.411C209.224 125.534 208.995 127.87 209.444 130.124C209.894 132.377 211.001 134.446 212.627 136.071C214.252 137.695 216.323 138.8 218.577 139.248C220.83 139.695 223.166 139.465 225.289 138.585C227.412 137.705 229.226 136.216 230.502 134.305C231.779 132.394 232.46 130.148 232.46 127.85C232.46 126.324 232.159 124.812 231.574 123.401C230.99 121.991 230.133 120.709 229.053 119.63C227.973 118.551 226.691 117.695 225.28 117.112C223.869 116.529 222.357 116.229 220.83 116.23Z" fill="white"/>
<path id="Vector_30" d="M220.83 146.91C221.659 146.908 222.47 147.152 223.16 147.611C223.851 148.07 224.389 148.724 224.708 149.489C225.027 150.255 225.111 151.098 224.951 151.911C224.79 152.724 224.392 153.472 223.806 154.059C223.221 154.646 222.474 155.046 221.661 155.208C220.848 155.371 220.005 155.289 219.239 154.972C218.473 154.655 217.818 154.118 217.357 153.429C216.896 152.739 216.65 151.929 216.65 151.1C216.653 149.991 217.093 148.928 217.877 148.143C218.66 147.358 219.721 146.915 220.83 146.91ZM220.83 139.47C218.53 139.47 216.281 140.152 214.369 141.43C212.456 142.708 210.966 144.524 210.085 146.649C209.205 148.774 208.975 151.113 209.423 153.369C209.872 155.625 210.98 157.697 212.606 159.323C214.233 160.95 216.305 162.058 218.561 162.506C220.817 162.955 223.155 162.725 225.281 161.844C227.406 160.964 229.222 159.474 230.5 157.561C231.778 155.648 232.46 153.4 232.46 151.1C232.46 148.015 231.235 145.057 229.054 142.876C226.872 140.695 223.914 139.47 220.83 139.47Z" fill="white"/>
<path id="Vector_31" d="M220.83 167.68C222.15 167.678 223.441 168.067 224.539 168.8C225.638 169.532 226.494 170.573 227 171.793C227.506 173.012 227.639 174.354 227.382 175.648C227.125 176.943 226.49 178.133 225.556 179.066C224.623 179.999 223.434 180.635 222.139 180.892C220.844 181.149 219.502 181.016 218.283 180.51C217.064 180.004 216.022 179.147 215.29 178.049C214.558 176.951 214.168 175.66 214.17 174.34C214.173 172.574 214.875 170.882 216.123 169.633C217.372 168.385 219.064 167.682 220.83 167.68ZM220.83 162.68C218.529 162.68 216.28 163.362 214.368 164.64C212.455 165.919 210.964 167.736 210.084 169.861C209.204 171.987 208.975 174.326 209.424 176.582C209.874 178.838 210.982 180.911 212.61 182.537C214.237 184.163 216.311 185.27 218.567 185.717C220.824 186.165 223.163 185.933 225.287 185.052C227.412 184.17 229.228 182.678 230.505 180.764C231.782 178.85 232.462 176.6 232.46 174.3C232.46 172.773 232.159 171.261 231.574 169.851C230.99 168.44 230.133 167.159 229.053 166.08C227.973 165 226.691 164.145 225.28 163.561C223.869 162.978 222.357 162.678 220.83 162.68Z" fill="white"/>
<path id="Vector_32" d="M220.83 190.93C222.147 190.93 223.435 191.32 224.53 192.052C225.625 192.784 226.479 193.824 226.983 195.041C227.487 196.258 227.619 197.597 227.362 198.889C227.105 200.181 226.471 201.368 225.539 202.299C224.608 203.23 223.421 203.865 222.129 204.122C220.837 204.379 219.498 204.247 218.281 203.743C217.064 203.239 216.024 202.385 215.292 201.29C214.561 200.195 214.17 198.907 214.17 197.59C214.173 195.824 214.875 194.132 216.124 192.883C217.372 191.635 219.064 190.932 220.83 190.93ZM220.83 185.93C218.532 185.932 216.287 186.615 214.377 187.893C212.467 189.171 210.98 190.986 210.102 193.11C209.224 195.233 208.995 197.569 209.444 199.823C209.894 202.076 211.001 204.146 212.627 205.77C214.252 207.394 216.323 208.5 218.577 208.947C220.83 209.395 223.166 209.164 225.289 208.284C227.412 207.404 229.226 205.915 230.502 204.004C231.779 202.094 232.46 199.847 232.46 197.55C232.46 196.023 232.159 194.511 231.574 193.101C230.99 191.69 230.133 190.409 229.053 189.33C227.973 188.25 226.691 187.395 225.28 186.811C223.869 186.228 222.357 185.928 220.83 185.93Z" fill="white"/>
<path id="Vector_33" d="M220.83 211.69C222.64 211.688 224.41 212.223 225.916 213.227C227.422 214.231 228.597 215.66 229.291 217.331C229.985 219.003 230.167 220.843 229.815 222.619C229.463 224.394 228.593 226.026 227.314 227.306C226.034 228.587 224.404 229.46 222.629 229.813C220.854 230.167 219.013 229.987 217.341 229.294C215.668 228.602 214.239 227.429 213.233 225.924C212.227 224.42 211.69 222.65 211.69 220.84C211.69 218.415 212.653 216.089 214.366 214.373C216.08 212.658 218.405 211.693 220.83 211.69ZM220.83 209.21C218.53 209.21 216.281 209.892 214.369 211.17C212.456 212.448 210.966 214.264 210.085 216.389C209.205 218.514 208.975 220.853 209.423 223.109C209.872 225.365 210.98 227.437 212.606 229.064C214.233 230.69 216.305 231.798 218.561 232.247C220.817 232.695 223.155 232.465 225.281 231.585C227.406 230.704 229.222 229.214 230.5 227.301C231.778 225.389 232.46 223.14 232.46 220.84C232.46 217.755 231.235 214.797 229.054 212.616C226.872 210.435 223.914 209.21 220.83 209.21Z" fill="white"/>
<path id="Vector_34" d="M81.36 123.67C82.1891 123.67 82.9996 123.916 83.6889 124.377C84.3781 124.838 84.9151 125.493 85.2319 126.259C85.5488 127.026 85.6312 127.869 85.4688 128.682C85.3063 129.495 84.9062 130.241 84.3192 130.827C83.7322 131.412 82.9847 131.811 82.1713 131.971C81.3578 132.132 80.5151 132.047 79.7496 131.729C78.9842 131.41 78.3304 130.871 77.8712 130.181C77.412 129.491 77.1681 128.68 77.1701 127.85C77.1701 127.301 77.2785 126.756 77.4891 126.249C77.6998 125.741 78.0086 125.28 78.3978 124.891C78.787 124.503 79.249 124.195 79.7573 123.986C80.2656 123.776 80.8102 123.669 81.36 123.67ZM81.36 116.23C79.0618 116.23 76.8152 116.912 74.9043 118.189C72.9934 119.466 71.504 121.28 70.6245 123.404C69.745 125.527 69.5149 127.863 69.9633 130.117C70.4116 132.371 71.5184 134.442 73.1434 136.067C74.7685 137.692 76.839 138.799 79.093 139.247C81.3471 139.696 83.6835 139.465 85.8068 138.586C87.9301 137.706 89.7448 136.217 91.0216 134.306C92.2984 132.395 92.98 130.149 92.98 127.85C92.9773 124.769 91.7522 121.815 89.5736 119.637C87.395 117.458 84.441 116.233 81.36 116.23Z" fill="white"/>
<path id="Vector_35" d="M104.6 123.67C105.43 123.668 106.241 123.913 106.932 124.372C107.622 124.832 108.161 125.486 108.479 126.252C108.798 127.018 108.881 127.862 108.72 128.675C108.559 129.489 108.159 130.237 107.573 130.823C106.986 131.41 106.239 131.809 105.425 131.97C104.611 132.132 103.768 132.048 103.002 131.73C102.236 131.411 101.582 130.873 101.122 130.182C100.662 129.492 100.418 128.68 100.42 127.85C100.423 126.743 100.864 125.681 101.647 124.898C102.431 124.114 103.492 123.673 104.6 123.67ZM104.6 116.23C102.303 116.234 100.058 116.919 98.1498 118.198C96.2415 119.478 94.7552 121.294 93.8788 123.418C93.0024 125.541 92.7751 127.877 93.2257 130.13C93.6763 132.382 94.7847 134.451 96.4105 136.074C98.0364 137.697 100.107 138.802 102.36 139.249C104.614 139.695 106.949 139.464 109.071 138.584C111.194 137.704 113.007 136.215 114.283 134.304C115.559 132.394 116.24 130.148 116.24 127.85C116.24 126.324 115.939 124.812 115.355 123.401C114.77 121.991 113.913 120.709 112.833 119.63C111.753 118.551 110.471 117.695 109.06 117.112C107.649 116.529 106.137 116.229 104.61 116.23H104.6Z" fill="white"/>
<path id="Vector_36" d="M58.11 144.43C59.4296 144.428 60.7201 144.817 61.8183 145.549C62.9165 146.281 63.773 147.322 64.2794 148.54C64.7858 149.759 64.9193 151.1 64.6631 152.395C64.4068 153.689 63.7724 154.879 62.8399 155.813C61.9075 156.746 60.719 157.383 59.4249 157.641C58.1308 157.899 56.7892 157.767 55.5698 157.263C54.3504 156.758 53.3081 155.903 52.5748 154.806C51.8414 153.709 51.4499 152.419 51.4499 151.1C51.4499 149.332 52.1513 147.637 53.4 146.387C54.6487 145.136 56.3427 144.432 58.11 144.43ZM58.11 139.43C55.8093 139.428 53.5598 140.108 51.646 141.385C49.7321 142.662 48.2399 144.477 47.3581 146.602C46.4763 148.727 46.2446 151.066 46.6922 153.322C47.1398 155.579 48.2467 157.652 49.8728 159.28C51.4989 160.907 53.5711 162.016 55.8274 162.465C58.0836 162.915 60.4226 162.685 62.5483 161.805C64.674 160.925 66.4909 159.435 67.7693 157.522C69.0476 155.609 69.7299 153.36 69.7299 151.06C69.7299 147.977 68.506 145.02 66.3271 142.84C64.1482 140.659 61.1927 139.432 58.11 139.43Z" fill="white"/>
<path id="Vector_37" d="M81.36 146.91C82.1887 146.91 82.9988 147.155 83.6878 147.616C84.3769 148.076 84.9139 148.731 85.231 149.496C85.5482 150.262 85.6311 151.104 85.4694 151.917C85.3078 152.73 84.9087 153.477 84.3227 154.063C83.7367 154.648 82.9901 155.048 82.1773 155.209C81.3646 155.371 80.5222 155.288 79.7566 154.971C78.9909 154.654 78.3365 154.117 77.8761 153.428C77.4157 152.739 77.17 151.928 77.17 151.1C77.17 150.549 77.2783 150.005 77.4889 149.496C77.6994 148.988 78.0081 148.526 78.3972 148.137C78.7863 147.748 79.2482 147.439 79.7566 147.229C80.2649 147.018 80.8097 146.91 81.36 146.91ZM81.36 139.47C79.0593 139.468 76.8098 140.148 74.896 141.425C72.9821 142.702 71.4899 144.517 70.6081 146.642C69.7263 148.767 69.4946 151.106 69.9422 153.362C70.3898 155.619 71.4967 157.692 73.1228 159.32C74.7489 160.947 76.8211 162.056 79.0774 162.505C81.3336 162.955 83.6726 162.725 85.7983 161.845C87.924 160.965 89.7409 159.475 91.0193 157.562C92.2976 155.649 92.9799 153.4 92.9799 151.1C92.9799 148.017 91.756 145.06 89.5771 142.88C87.3982 140.699 84.4427 139.472 81.36 139.47Z" fill="white"/>
<path id="Vector_38" d="M104.6 146.91C105.429 146.908 106.24 147.152 106.931 147.611C107.621 148.07 108.159 148.724 108.478 149.489C108.797 150.255 108.881 151.098 108.721 151.911C108.56 152.724 108.162 153.472 107.576 154.059C106.991 154.646 106.244 155.046 105.431 155.208C104.618 155.371 103.775 155.289 103.009 154.972C102.243 154.655 101.588 154.118 101.127 153.429C100.666 152.739 100.42 151.929 100.42 151.1C100.423 149.991 100.864 148.928 101.647 148.143C102.43 147.358 103.491 146.915 104.6 146.91ZM104.6 139.47C102.3 139.472 100.053 140.155 98.1414 141.435C96.2302 142.714 94.7411 144.531 93.8624 146.656C92.9837 148.781 92.7548 151.119 93.2047 153.375C93.6546 155.63 94.763 157.701 96.3899 159.327C98.0167 160.952 100.089 162.059 102.345 162.507C104.6 162.955 106.938 162.724 109.063 161.844C111.187 160.963 113.003 159.472 114.281 157.56C115.558 155.648 116.24 153.4 116.24 151.1C116.24 148.015 115.015 145.057 112.834 142.876C110.653 140.695 107.694 139.47 104.61 139.47H104.6Z" fill="white"/>
<path id="Vector_39" d="M34.87 167.68C36.1896 167.68 37.4795 168.071 38.5766 168.804C39.6737 169.538 40.5286 170.58 41.0332 171.8C41.5377 173.019 41.6693 174.36 41.4111 175.655C41.1529 176.949 40.5167 178.137 39.5829 179.07C38.649 180.002 37.4596 180.636 36.1651 180.893C34.8706 181.149 33.5291 181.015 32.3105 180.509C31.0919 180.003 30.0509 179.146 29.3192 178.048C28.5875 176.95 28.1979 175.659 28.1999 174.34C28.2026 172.572 28.9065 170.878 30.1571 169.63C31.4077 168.381 33.1027 167.68 34.87 167.68ZM34.87 162.68C32.5689 162.678 30.319 163.358 28.4049 164.636C26.4908 165.913 24.9986 167.729 24.1172 169.854C23.2357 171.98 23.0045 174.319 23.453 176.576C23.9014 178.833 25.0092 180.906 26.6363 182.533C28.2634 184.16 30.3365 185.268 32.5935 185.717C34.8504 186.165 37.1896 185.934 39.3152 185.052C41.4407 184.171 43.257 182.679 44.5342 180.765C45.8113 178.851 46.4919 176.601 46.49 174.3C46.4873 171.219 45.2622 168.265 43.0836 166.086C40.905 163.907 37.951 162.682 34.87 162.68Z" fill="white"/>
<path id="Vector_40" d="M58.11 167.68C59.43 167.678 60.721 168.067 61.8194 168.8C62.9178 169.532 63.7743 170.573 64.2804 171.793C64.7864 173.012 64.9194 174.354 64.6623 175.648C64.4053 176.943 63.7698 178.133 62.8364 179.066C61.903 179.999 60.7136 180.635 59.4188 180.892C58.124 181.149 56.782 181.016 55.5628 180.51C54.3436 180.004 53.3021 179.147 52.5699 178.049C51.8378 176.951 51.4479 175.66 51.4499 174.34C51.4526 172.574 52.1551 170.882 53.4035 169.633C54.652 168.385 56.3444 167.682 58.11 167.68ZM58.11 162.68C55.8089 162.678 53.5589 163.358 51.6449 164.636C49.7308 165.913 48.2386 167.729 47.3571 169.854C46.4757 171.98 46.2445 174.319 46.693 176.576C47.1414 178.833 48.2492 180.906 49.8763 182.533C51.5034 184.16 53.5765 185.268 55.8335 185.717C58.0904 186.165 60.4296 185.934 62.5551 185.052C64.6807 184.171 66.497 182.679 67.7741 180.765C69.0513 178.851 69.7319 176.601 69.73 174.3C69.73 171.218 68.5057 168.262 66.3265 166.083C64.1473 163.904 61.1918 162.68 58.11 162.68Z" fill="white"/>
<path id="Vector_41" d="M81.36 167.68C82.6796 167.68 83.9695 168.071 85.0666 168.804C86.1637 169.538 87.0186 170.58 87.5232 171.8C88.0277 173.019 88.1593 174.36 87.9011 175.655C87.6429 176.949 87.0067 178.137 86.0728 179.07C85.139 180.002 83.9496 180.636 82.6551 180.893C81.3606 181.149 80.0191 181.015 78.8005 180.509C77.5819 180.003 76.5409 179.146 75.8092 178.048C75.0775 176.95 74.6879 175.659 74.6899 174.34C74.6926 172.572 75.3965 170.878 76.6471 169.63C77.8976 168.381 79.5927 167.68 81.36 167.68ZM81.36 162.68C79.0589 162.678 76.8089 163.358 74.8949 164.636C72.9808 165.913 71.4886 167.729 70.6071 169.854C69.7257 171.98 69.4945 174.319 69.943 176.576C70.3914 178.833 71.4992 180.906 73.1263 182.533C74.7534 184.16 76.8265 185.268 79.0835 185.717C81.3404 186.165 83.6796 185.934 85.8051 185.052C87.9307 184.171 89.747 182.679 91.0241 180.765C92.3013 178.851 92.9819 176.601 92.98 174.3C92.9773 171.219 91.7522 168.265 89.5736 166.086C87.395 163.907 84.441 162.682 81.36 162.68Z" fill="white"/>
<path id="Vector_42" d="M11.62 188.45C13.4277 188.45 15.1948 188.986 16.6979 189.99C18.201 190.994 19.3724 192.422 20.0642 194.092C20.756 195.762 20.937 197.6 20.5844 199.373C20.2317 201.146 19.3611 202.774 18.0829 204.053C16.8046 205.331 15.1761 206.201 13.4031 206.554C11.6301 206.907 9.79244 206.726 8.12233 206.034C6.45221 205.342 5.02471 204.171 4.0204 202.668C3.01608 201.165 2.47999 199.397 2.47999 197.59C2.48264 195.166 3.44641 192.843 5.15992 191.13C6.87343 189.416 9.19674 188.452 11.62 188.45ZM11.62 185.97C9.32179 185.97 7.07522 186.651 5.16432 187.928C3.25342 189.205 1.76402 191.02 0.884533 193.143C0.00504225 195.266 -0.225083 197.603 0.223278 199.857C0.671638 202.111 1.77837 204.181 3.40345 205.806C5.02854 207.431 7.09898 208.538 9.35304 208.986C11.6071 209.435 13.9435 209.205 16.0668 208.325C18.1901 207.446 20.0048 205.956 21.2816 204.045C22.5584 202.135 23.24 199.888 23.24 197.59C23.24 194.508 22.0157 191.552 19.8366 189.373C17.6574 187.194 14.7018 185.97 11.62 185.97Z" fill="white"/>
<path id="Vector_43" d="M34.87 190.93C36.1868 190.932 37.4735 191.324 38.5674 192.057C39.6613 192.79 40.5133 193.831 41.0159 195.048C41.5184 196.265 41.6489 197.604 41.3908 198.895C41.1327 200.186 40.4976 201.372 39.5658 202.302C38.634 203.233 37.4473 203.866 36.1557 204.122C34.864 204.379 33.5253 204.246 32.309 203.742C31.0926 203.237 30.053 202.384 29.3217 201.289C28.5903 200.194 28.2 198.906 28.2 197.59C28.2 196.714 28.3726 195.847 28.7079 195.039C29.0432 194.23 29.5347 193.495 30.1542 192.877C30.7737 192.258 31.5091 191.768 32.3182 191.434C33.1274 191.1 33.9946 190.928 34.87 190.93ZM34.87 185.93C32.5718 185.93 30.3252 186.611 28.4143 187.888C26.5034 189.165 25.014 190.98 24.1345 193.103C23.255 195.226 23.0249 197.563 23.4733 199.817C23.9216 202.071 25.0284 204.141 26.6535 205.766C28.2785 207.391 30.349 208.498 32.603 208.946C34.8571 209.395 37.1935 209.165 39.3168 208.285C41.4401 207.406 43.2548 205.916 44.5316 204.005C45.8084 202.094 46.49 199.848 46.49 197.55C46.4874 194.469 45.2622 191.515 43.0836 189.336C40.905 187.157 37.951 185.932 34.87 185.93Z" fill="white"/>
<path id="Vector_44" d="M58.11 190.93C59.4272 190.93 60.7148 191.32 61.8101 192.052C62.9053 192.784 63.759 193.824 64.2631 195.041C64.7672 196.258 64.899 197.597 64.642 198.889C64.385 200.181 63.7508 201.368 62.8193 202.299C61.8879 203.23 60.7012 203.865 59.4093 204.122C58.1174 204.379 56.7782 204.247 55.5613 203.743C54.3443 203.239 53.3042 202.385 52.5724 201.29C51.8406 200.195 51.45 198.907 51.45 197.59C51.4526 195.824 52.1552 194.132 53.4036 192.883C54.652 191.635 56.3445 190.932 58.11 190.93ZM58.11 185.93C55.8118 185.93 53.5652 186.611 51.6543 187.888C49.7434 189.165 48.254 190.98 47.3745 193.103C46.495 195.226 46.2649 197.563 46.7133 199.817C47.1616 202.071 48.2684 204.141 49.8934 205.766C51.5185 207.391 53.589 208.498 55.843 208.946C58.0971 209.395 60.4335 209.165 62.5568 208.285C64.6801 207.406 66.4948 205.916 67.7716 204.005C69.0484 202.094 69.73 199.848 69.73 197.55C69.73 194.468 68.5057 191.512 66.3265 189.333C64.1474 187.154 61.1918 185.93 58.11 185.93Z" fill="white"/>
<path id="Vector_45" d="M11.62 211.69C13.4301 211.688 15.2001 212.223 16.7061 213.227C18.2122 214.231 19.3865 215.66 20.0805 217.331C20.7746 219.003 20.9572 220.843 20.6053 222.619C20.2534 224.394 19.3827 226.026 18.1035 227.306C16.8242 228.587 15.1939 229.46 13.4187 229.813C11.6435 230.167 9.80323 229.987 8.1307 229.294C6.45818 228.602 5.02853 227.429 4.02267 225.925C3.01681 224.42 2.47995 222.65 2.47995 220.84C2.47995 218.415 3.44254 216.089 5.15634 214.373C6.87013 212.658 9.19497 211.693 11.62 211.69ZM11.62 209.21C9.31934 209.208 7.06983 209.888 5.15597 211.165C3.24211 212.442 1.74991 214.258 0.868131 216.382C-0.0136495 218.507 -0.245378 220.846 0.202238 223.103C0.649854 225.359 1.75669 227.433 3.38278 229.06C5.00887 230.688 7.0811 231.796 9.33737 232.246C11.5936 232.695 13.9325 232.466 16.0582 231.586C18.1839 230.706 20.0009 229.215 21.2793 227.302C22.5576 225.39 23.24 223.141 23.24 220.84C23.24 217.757 22.016 214.801 19.8371 212.62C17.6582 210.439 14.7027 209.213 11.62 209.21Z" fill="white"/>
<path id="Vector_46" d="M34.87 211.69C36.6797 211.69 38.4487 212.227 39.9535 213.232C41.4582 214.237 42.6309 215.667 43.3235 217.338C44.016 219.01 44.1971 220.85 43.8441 222.625C43.491 224.4 42.6196 226.03 41.3399 227.31C40.0603 228.59 38.4299 229.461 36.655 229.814C34.8801 230.167 33.0403 229.986 31.3684 229.293C29.6964 228.601 28.2675 227.428 27.2621 225.923C26.2566 224.419 25.7199 222.65 25.7199 220.84C25.7199 218.413 26.6839 216.086 28.3999 214.37C30.1158 212.654 32.4432 211.69 34.87 211.69ZM34.87 209.21C32.5693 209.208 30.3198 209.888 28.406 211.165C26.4921 212.442 24.9999 214.258 24.1181 216.382C23.2364 218.507 23.0046 220.846 23.4522 223.103C23.8999 225.359 25.0067 227.433 26.6328 229.06C28.2589 230.688 30.3311 231.796 32.5874 232.246C34.8436 232.695 37.1825 232.466 39.3082 231.586C41.4339 230.706 43.2509 229.215 44.5293 227.302C45.8076 225.39 46.49 223.141 46.49 220.84C46.49 217.757 45.266 214.801 43.0871 212.62C40.9082 210.439 37.9527 209.213 34.87 209.21Z" fill="white"/>
</g>
<defs>
<clipPath id="clip0_53_940">
<rect width="232.46" height="232.46" fill="white"/>
</clipPath>
</defs>
</svg>
