<svg width="81" height="77" viewBox="0 0 81 77" fill="none" xmlns="http://www.w3.org/2000/svg">
<path d="M73.2208 11.9418H64.8844V7.81557C64.8844 3.49945 61.402 0 57.1052 0H24.119C19.8229 0 16.3398 3.49945 16.3398 7.81557V11.9418H7.7792C3.48317 11.9418 0 15.4413 0 19.7574V69.1844C0 73.5005 3.48317 77 7.7792 77H73.2208C77.5168 77 81 73.5005 81 69.1844V19.7574C81 15.4413 77.5168 11.9418 73.2208 11.9418ZM77.2506 69.1844C77.2506 71.4167 75.4427 73.2331 73.2208 73.2331H7.7792C5.55732 73.2331 3.74938 71.4167 3.74938 69.1844V19.7574C3.74938 17.5251 5.55732 15.7087 7.7792 15.7087H8.21788V41.28H11.9673V15.7087H39.007V11.9418H20.0892V7.81557C20.0892 5.5833 21.8971 3.7669 24.119 3.7669H57.1052C59.3271 3.7669 61.1351 5.5833 61.1351 7.81557V11.9418H46.5058V15.7087H73.2208C75.4427 15.7087 77.2506 17.5251 77.2506 19.7574V69.1844Z" fill="white"/>
<path d="M64.9722 48.92H48.6534V44.4879H32.4898V48.92H15.9971C14.5303 48.92 13.1776 48.1177 12.4659 46.8256L9.18597 48.6488H9.18522C9.19722 48.6706 9.20922 48.6917 9.22196 48.7136C9.44093 49.1031 9.69289 49.4722 9.97334 49.8165V49.8173C9.98009 49.8256 9.98684 49.8339 9.99434 49.8421C10.0071 49.858 10.0206 49.8745 10.0341 49.8904C10.0341 49.8911 10.0341 49.8911 10.0341 49.8911C10.0378 49.8949 10.0408 49.8986 10.0446 49.9032C10.0498 49.9092 10.0543 49.9152 10.0596 49.9212L10.0603 49.922C10.0648 49.9273 10.0701 49.9333 10.0753 49.9393V49.9401C10.0791 49.9438 10.0821 49.9476 10.0858 49.9521C10.0873 49.9544 10.0888 49.9559 10.0911 49.9582C10.0941 49.9619 10.0978 49.9657 10.1008 49.9702C10.1016 49.9702 10.1016 49.9702 10.1016 49.9702C10.1031 49.9725 10.1046 49.974 10.1061 49.9762C10.1098 49.98 10.1136 49.9838 10.1166 49.9883C10.1203 49.9921 10.1233 49.9958 10.1271 50.0004C10.1293 50.0026 10.1308 50.0041 10.1323 50.0064C10.1323 50.0064 10.1323 50.0064 10.1331 50.0064C10.1361 50.0109 10.1398 50.0147 10.1428 50.0184C10.1451 50.0207 10.1466 50.0222 10.1481 50.0245C10.1518 50.0282 10.1548 50.032 10.1586 50.0365C10.1586 50.0365 10.1586 50.0365 10.1593 50.0365C10.1601 50.0373 10.1608 50.038 10.1616 50.0388C10.1661 50.044 10.1698 50.0493 10.1743 50.0546C10.1743 50.0546 10.1743 50.0546 10.1751 50.0546C10.1781 50.0584 10.1818 50.0621 10.1848 50.0659C10.1848 50.0667 10.1856 50.0667 10.1856 50.0667C10.1871 50.0689 10.1886 50.0704 10.1901 50.0719L10.1908 50.0727C10.1938 50.0764 10.1976 50.0802 10.2006 50.084C10.2013 50.0847 10.2013 50.0847 10.2013 50.0847C10.2035 50.087 10.2051 50.0885 10.2065 50.09C10.208 50.0923 10.2095 50.0945 10.2118 50.096V50.0968C10.2133 50.0983 10.2148 50.0998 10.2163 50.1021C10.217 50.1021 10.217 50.1021 10.2178 50.1028C10.2193 50.1043 10.2208 50.1058 10.2223 50.1081C10.2245 50.1103 10.226 50.1119 10.2275 50.1141C10.2275 50.1141 10.2283 50.1141 10.2283 50.1149L10.2328 50.1194C10.2328 50.1201 10.2335 50.1201 10.2335 50.1201C10.2365 50.1239 10.2403 50.1277 10.2433 50.1314C10.244 50.1314 10.244 50.1322 10.244 50.1322C10.2455 50.1337 10.247 50.136 10.2485 50.1375C10.2493 50.1375 10.2493 50.1382 10.2493 50.1382C10.253 50.142 10.256 50.1458 10.2598 50.1495C10.2598 50.1495 10.2598 50.1495 10.2605 50.1503C10.262 50.1518 10.2635 50.1533 10.265 50.1548C10.265 50.1555 10.265 50.1555 10.2658 50.1555C10.2688 50.1593 10.2725 50.1631 10.2755 50.1669C10.2763 50.1676 10.2763 50.1676 10.2763 50.1676L10.2815 50.1729C10.283 50.1751 10.2853 50.1766 10.2868 50.1789C10.2868 50.1789 10.2868 50.1789 10.2875 50.1797C10.289 50.1812 10.2905 50.1827 10.292 50.1842L10.2928 50.1849C10.2958 50.1887 10.2995 50.1925 10.3033 50.1962V50.197C10.3048 50.1985 10.3063 50.2 10.3078 50.2015C10.3085 50.2023 10.3085 50.2023 10.3093 50.203C10.3123 50.2068 10.3153 50.2098 10.319 50.2136C10.319 50.2143 10.3198 50.2143 10.3198 50.2151C10.3213 50.2166 10.3228 50.2181 10.3243 50.2196C10.325 50.2196 10.325 50.2196 10.325 50.2203L10.3303 50.2256C10.3303 50.2256 10.3303 50.2264 10.331 50.2264C10.3325 50.2279 10.334 50.2294 10.3355 50.2316C10.3355 50.2316 10.3355 50.2316 10.3363 50.2316C10.3378 50.2339 10.3393 50.2354 10.3408 50.2369L10.3415 50.2377C10.343 50.2392 10.3445 50.2414 10.3468 50.2429V50.2437C10.3483 50.2452 10.3505 50.2467 10.352 50.2482C10.352 50.249 10.352 50.249 10.3528 50.2497L10.3633 50.2603C10.3633 50.261 10.3633 50.261 10.3633 50.261C10.3655 50.2625 10.367 50.2648 10.3685 50.2663C10.3723 50.2701 10.376 50.2738 10.379 50.2776C10.3798 50.2776 10.3798 50.2784 10.3798 50.2784C10.382 50.2799 10.3835 50.2814 10.385 50.2836C10.3873 50.2859 10.3888 50.2874 10.391 50.2897C10.3925 50.2912 10.394 50.2927 10.3955 50.2949C10.3963 50.2949 10.3963 50.2957 10.397 50.2957C10.3985 50.2979 10.4 50.2994 10.4015 50.3009C10.4038 50.3032 10.4053 50.3047 10.4068 50.3062C10.4075 50.307 10.4075 50.307 10.4083 50.3077C10.4098 50.3092 10.4105 50.3107 10.412 50.3123C10.4128 50.3123 10.4128 50.3123 10.4135 50.313C10.4165 50.3168 10.4203 50.3205 10.424 50.3236C10.424 50.3243 10.424 50.3243 10.4248 50.3243C10.4263 50.3266 10.4278 50.3281 10.4293 50.3296C10.4293 50.3296 10.4293 50.3296 10.43 50.3296C10.433 50.3333 10.4368 50.3371 10.4405 50.3409C10.4405 50.3409 10.4405 50.3416 10.4413 50.3416C10.4428 50.3431 10.4443 50.3454 10.4465 50.3469C10.448 50.3492 10.4495 50.3507 10.4518 50.3522C10.4518 50.3529 10.4518 50.3529 10.4518 50.3529C10.454 50.3544 10.4555 50.3567 10.457 50.3582C10.457 50.3582 10.4578 50.3582 10.4578 50.359C10.4615 50.362 10.4645 50.3657 10.4683 50.3695L10.4735 50.3748C10.4743 50.3755 10.4743 50.3755 10.4743 50.3755L10.4848 50.3861C10.4855 50.3868 10.4855 50.3868 10.4863 50.3876L10.5305 50.432C10.5305 50.432 10.5305 50.432 10.5312 50.432C10.5327 50.4335 10.5342 50.4358 10.5357 50.4373C10.5365 50.4373 10.5365 50.4373 10.5365 50.4381C10.5402 50.4411 10.544 50.4448 10.5477 50.4486C10.5477 50.4486 10.5477 50.4486 10.5477 50.4494C10.5492 50.4509 10.5515 50.4524 10.553 50.4539C10.553 50.4539 10.553 50.4546 10.5537 50.4546C10.5575 50.4584 10.5605 50.4614 10.5642 50.4652C10.565 50.4652 10.565 50.4659 10.565 50.4659C10.5672 50.4674 10.5687 50.469 10.5702 50.4712C10.5725 50.4727 10.574 50.475 10.5755 50.4765C10.5762 50.4765 10.5762 50.4772 10.577 50.4772C10.5785 50.4787 10.58 50.4803 10.5815 50.4818L10.5822 50.4825C10.586 50.4863 10.589 50.4893 10.5927 50.4931C10.5935 50.4931 10.5935 50.4938 10.5935 50.4938C10.595 50.4953 10.5972 50.4968 10.5987 50.4983C10.5987 50.4991 10.5987 50.4991 10.5995 50.4991C10.6025 50.5029 10.607 50.5066 10.61 50.5096C10.6107 50.5096 10.6107 50.5104 10.6107 50.5104C10.616 50.5157 10.622 50.5209 10.6272 50.5262L10.628 50.527C10.6332 50.5322 10.6392 50.5375 10.6445 50.5428L10.6452 50.5435C10.649 50.5473 10.6527 50.5503 10.6565 50.5541L10.6617 50.5594C10.6625 50.5594 10.6625 50.5594 10.6625 50.5601C10.6662 50.5631 10.67 50.5669 10.6737 50.5699C10.6737 50.5707 10.6745 50.5707 10.6745 50.5714C10.676 50.5729 10.6775 50.5744 10.6797 50.5759C10.682 50.5782 10.6835 50.5797 10.6857 50.5812V50.582C10.6872 50.5835 10.6895 50.585 10.691 50.5865C10.691 50.5872 10.6917 50.5872 10.6917 50.5872C10.6955 50.591 10.6992 50.594 10.703 50.5978V50.5985C10.7052 50.6 10.7067 50.6016 10.7082 50.6031C10.709 50.6031 10.709 50.6038 10.709 50.6038C10.7127 50.6068 10.7165 50.6106 10.7202 50.6136C10.721 50.6144 10.721 50.6144 10.721 50.6144C10.7225 50.6166 10.7247 50.6181 10.7262 50.6196C10.7262 50.6196 10.7262 50.6196 10.727 50.6196C10.7307 50.6234 10.7337 50.6264 10.7375 50.6302C10.7382 50.6302 10.7382 50.6309 10.739 50.6309C10.7405 50.6324 10.742 50.6339 10.7442 50.6355V50.6362C10.748 50.6392 10.7517 50.643 10.7555 50.646C10.7555 50.6468 10.7555 50.6468 10.7562 50.6468C10.7577 50.649 10.76 50.6505 10.7615 50.652C10.7652 50.6558 10.769 50.6588 10.7735 50.6626C10.7735 50.6626 10.7735 50.6626 10.7735 50.6633C10.7772 50.6663 10.7817 50.6701 10.7847 50.6731C10.7855 50.6739 10.7855 50.6739 10.7855 50.6739C10.7877 50.6754 10.7892 50.6769 10.7907 50.6784C10.7915 50.6791 10.7915 50.6791 10.7915 50.6791C10.7952 50.6822 10.799 50.6859 10.8027 50.6897H10.8034C10.8049 50.6912 10.8072 50.6935 10.8087 50.695C10.8087 50.695 10.8087 50.695 10.8094 50.695C10.8109 50.6972 10.8132 50.6987 10.8147 50.7002C10.8169 50.7017 10.8184 50.7033 10.8207 50.7055C10.8207 50.7055 10.8207 50.7055 10.8214 50.7063C10.8252 50.7093 10.8289 50.7131 10.8327 50.7161C10.8327 50.7161 10.8327 50.7161 10.8327 50.7168C10.8349 50.7183 10.8364 50.7198 10.8387 50.7213C10.8424 50.7251 10.8462 50.7289 10.8507 50.7319V50.7326C10.8529 50.7341 10.8544 50.7357 10.8559 50.7372L10.8567 50.7379C10.8604 50.7409 10.8649 50.7447 10.8687 50.7477V50.7485C10.8724 50.7515 10.8769 50.7552 10.8807 50.7583V50.759C10.8822 50.7605 10.8844 50.762 10.8859 50.7635C10.8867 50.7635 10.8867 50.7643 10.8867 50.7643C10.8927 50.7696 10.8987 50.7741 10.9047 50.7794C10.9084 50.7831 10.9122 50.7861 10.9167 50.7899C10.9167 50.7899 10.9167 50.7899 10.9167 50.7906C10.9227 50.7952 10.9287 50.8004 10.9347 50.8057C10.9392 50.8095 10.9429 50.8125 10.9467 50.8163C10.9489 50.8178 10.9504 50.8193 10.9527 50.8208L10.9534 50.8215C10.9572 50.8253 10.9609 50.8283 10.9647 50.8313C10.9647 50.8321 10.9654 50.8321 10.9654 50.8321C10.9677 50.8336 10.9692 50.8351 10.9714 50.8366V50.8374C10.9752 50.8404 10.9789 50.8441 10.9834 50.8472C10.9894 50.8524 10.9954 50.8577 11.0014 50.8622C11.0014 50.863 11.0014 50.863 11.0022 50.863C11.0142 50.8735 11.0262 50.8833 11.0382 50.8931C11.0382 50.8939 11.0382 50.8939 11.0382 50.8939C11.0427 50.8969 11.0464 50.8999 11.0502 50.9037C11.0509 50.9037 11.0509 50.9037 11.0509 50.9037C11.0569 50.9089 11.0629 50.9142 11.0689 50.9187C11.0757 50.924 11.0817 50.9293 11.0877 50.9338V50.9345C11.0922 50.9376 11.0959 50.9406 11.0997 50.9443C11.0997 50.9443 11.0997 50.9443 11.1004 50.9443C11.1124 50.9541 11.1244 50.9647 11.1371 50.9745C11.1416 50.9775 11.1454 50.9813 11.1491 50.9843C11.1499 50.9843 11.1499 50.9843 11.1499 50.985C11.1521 50.9865 11.1536 50.988 11.1559 50.9895C11.1664 50.9978 11.1769 51.0061 11.1874 51.0144C11.1896 51.0159 11.1919 51.0182 11.1941 51.0197C11.2144 51.0363 11.2354 51.0521 11.2564 51.0686C11.2736 51.0822 11.2909 51.095 11.3081 51.1071L11.3794 51.1613C11.4093 51.1839 11.4393 51.2058 11.4693 51.2269C11.4956 51.2464 11.5218 51.2653 11.5488 51.2834C11.5811 51.3067 11.6141 51.3293 11.6478 51.3519L11.9635 51.5553C12.0047 51.5809 12.0467 51.6058 12.0895 51.6299L12.148 51.6638C12.178 51.6819 12.208 51.6992 12.2387 51.715C12.2702 51.7339 12.3017 51.7505 12.3332 51.767C12.3692 51.7866 12.4052 51.8062 12.4419 51.825L12.4817 51.8454C12.5289 51.8695 12.5769 51.8928 12.6241 51.9162C12.6804 51.9441 12.7374 51.9704 12.7951 51.9968H12.7959C12.8514 52.0217 12.9068 52.0465 12.9631 52.0706C12.9668 52.0721 12.9698 52.0729 12.9728 52.0744C13.0298 52.0985 13.0868 52.1219 13.1446 52.1445C13.1978 52.1656 13.251 52.1859 13.3043 52.2063C13.4168 52.2477 13.53 52.2869 13.6447 52.323C13.6747 52.3328 13.7047 52.3419 13.7347 52.3509C13.779 52.3645 13.8232 52.378 13.8674 52.3901C13.9289 52.4082 13.9904 52.4247 14.0527 52.4406C14.1141 52.4571 14.1764 52.4722 14.2386 52.4865H14.2409C14.3016 52.5008 14.3631 52.5144 14.4246 52.5272C14.4261 52.5272 14.4276 52.5279 14.4291 52.5279C14.4658 52.5355 14.5018 52.543 14.5386 52.5498C14.5393 52.5498 14.5393 52.5498 14.5393 52.5498C14.5551 52.5528 14.5716 52.5558 14.5881 52.5588C14.5993 52.5603 14.6098 52.5626 14.6203 52.5649C14.6308 52.5671 14.6413 52.5694 14.6526 52.5709C14.6533 52.5709 14.6533 52.5709 14.6533 52.5709C14.6586 52.5716 14.6646 52.5724 14.6698 52.5731C14.6721 52.5739 14.6751 52.5746 14.6781 52.5746C14.6833 52.5762 14.6886 52.5769 14.6946 52.5777C14.7021 52.5792 14.7103 52.5807 14.7185 52.5814L14.7193 52.5822C14.7275 52.5829 14.735 52.5844 14.7433 52.586C14.7515 52.5875 14.7598 52.5882 14.768 52.5897C14.7733 52.5905 14.7785 52.5912 14.7838 52.592C14.7845 52.5927 14.7845 52.5927 14.7853 52.5927C14.7928 52.5935 14.801 52.595 14.8093 52.5965C14.8175 52.5973 14.8258 52.5988 14.834 52.6003C14.8393 52.601 14.8445 52.6018 14.8505 52.6025C14.8505 52.6025 14.8505 52.6025 14.8513 52.6025C14.8535 52.6033 14.8558 52.6033 14.8588 52.604C14.864 52.6048 14.8693 52.6055 14.8745 52.6063C14.8753 52.6063 14.8753 52.6063 14.876 52.6063C14.8783 52.6063 14.8805 52.607 14.8828 52.607C14.8835 52.607 14.8835 52.607 14.8835 52.607C14.8865 52.6078 14.8888 52.6078 14.8918 52.6086C14.8948 52.6086 14.897 52.6093 14.8993 52.6093C14.9 52.6093 14.9 52.6101 14.9008 52.6101L14.9165 52.6123H14.9173C14.9195 52.6123 14.9218 52.6131 14.924 52.6131C14.9248 52.6131 14.9248 52.6131 14.9255 52.6131C14.9308 52.6138 14.936 52.6146 14.9413 52.6153C14.9413 52.6153 14.9413 52.6153 14.942 52.6153C14.9443 52.6161 14.9465 52.6161 14.9488 52.6168C14.9495 52.6168 14.9495 52.6168 14.9503 52.6168C14.9555 52.6176 14.9608 52.6184 14.966 52.6191H14.9668C14.969 52.6191 14.972 52.6199 14.9743 52.6199C14.9743 52.6199 14.9743 52.6199 14.975 52.6199C14.9773 52.6206 14.9803 52.6206 14.9825 52.6206C14.9833 52.6214 14.9825 52.6206 14.9833 52.6214C14.9855 52.6214 14.9878 52.6214 14.9908 52.6221H14.9915C14.9968 52.6229 15.002 52.6236 15.008 52.6244C15.0102 52.6244 15.0132 52.6251 15.0155 52.6251C15.0162 52.6251 15.0162 52.6251 15.0162 52.6251C15.0215 52.6259 15.0267 52.6266 15.032 52.6274C15.0327 52.6274 15.0327 52.6274 15.0335 52.6274C15.0357 52.6274 15.038 52.6281 15.0402 52.6281C15.041 52.6281 15.041 52.6281 15.041 52.6281C15.0417 52.6281 15.0417 52.6281 15.0425 52.6281C15.0432 52.6281 15.0447 52.6289 15.0462 52.6289C15.0477 52.6289 15.0485 52.6297 15.0492 52.6297C15.0522 52.6297 15.0545 52.6297 15.0575 52.6304H15.0582C15.0605 52.6304 15.0635 52.6312 15.0657 52.6312C15.0657 52.6312 15.0657 52.6312 15.0665 52.6312C15.0687 52.6319 15.071 52.6319 15.074 52.6327C15.0747 52.6327 15.0747 52.6327 15.0747 52.6327C15.077 52.6327 15.0792 52.6327 15.0822 52.6334H15.083C15.0882 52.6342 15.0935 52.6349 15.0987 52.6349C15.0995 52.6357 15.0995 52.6357 15.1002 52.6357C15.1025 52.6357 15.1047 52.6357 15.107 52.6364C15.1077 52.6364 15.1077 52.6364 15.1085 52.6364C15.1137 52.6372 15.119 52.6372 15.1242 52.6379C15.1242 52.6379 15.1242 52.6379 15.125 52.6379C15.1272 52.6387 15.1295 52.6387 15.1325 52.6387C15.1325 52.6387 15.1325 52.6394 15.1332 52.6394C15.1355 52.6394 15.1385 52.6394 15.1407 52.6402H15.1415C15.1437 52.6402 15.146 52.6402 15.149 52.6409H15.1497C15.1527 52.6417 15.1557 52.6417 15.158 52.6417C15.1602 52.6425 15.1632 52.6425 15.1662 52.6425C15.1662 52.6425 15.1662 52.6425 15.167 52.6425C15.1692 52.6432 15.1715 52.6432 15.1737 52.6432C15.1737 52.6432 15.1745 52.644 15.1752 52.644C15.1805 52.644 15.1857 52.6447 15.191 52.6455H15.1917C15.194 52.6455 15.1962 52.6462 15.1992 52.6462H15.2C15.2052 52.647 15.2105 52.647 15.2157 52.6477C15.2157 52.6477 15.2165 52.6477 15.2172 52.6477C15.2195 52.6485 15.2217 52.6485 15.224 52.6485H15.2247C15.2277 52.6492 15.23 52.6492 15.233 52.6492C15.233 52.6492 15.233 52.6492 15.2337 52.65H15.2405C15.2412 52.65 15.242 52.6507 15.242 52.6507C15.2442 52.6507 15.2472 52.6507 15.2495 52.6515C15.2495 52.6515 15.2495 52.6515 15.2502 52.6515C15.2525 52.6515 15.2555 52.6515 15.2577 52.6523C15.2585 52.6523 15.2585 52.6523 15.2592 52.6523C15.2615 52.6523 15.2637 52.6523 15.266 52.653C15.2667 52.653 15.2667 52.653 15.2675 52.653C15.2727 52.653 15.2772 52.6538 15.2825 52.6545H15.2847C15.2862 52.6545 15.2885 52.6545 15.2907 52.6553C15.2915 52.6553 15.2915 52.6553 15.2922 52.6553C15.2975 52.6553 15.3027 52.656 15.308 52.6568C15.3087 52.6568 15.3087 52.6568 15.3095 52.6568C15.3117 52.6568 15.3132 52.6568 15.3154 52.6575H15.3177C15.3199 52.6575 15.3222 52.6575 15.3252 52.6583H15.3259C15.3282 52.6583 15.3304 52.6583 15.3327 52.659H15.3349C15.3372 52.659 15.3394 52.659 15.3417 52.6598H15.3499C15.3507 52.6605 15.3507 52.6605 15.3514 52.6605H15.3582C15.3582 52.6605 15.3589 52.6605 15.3597 52.6613C15.3642 52.6613 15.3679 52.662 15.3724 52.662H15.3754C15.3754 52.662 15.3762 52.662 15.3769 52.662C15.3792 52.6628 15.3807 52.6628 15.3829 52.6628H15.3852C15.3904 52.6636 15.3949 52.6636 15.4002 52.6643H15.4024C15.4039 52.6643 15.4062 52.6643 15.4084 52.6651C15.4092 52.6651 15.4092 52.6651 15.4099 52.6651H15.4107C15.4129 52.6651 15.4152 52.6651 15.4182 52.6658C15.4189 52.6658 15.4189 52.6658 15.4189 52.6658H15.4272C15.4294 52.6666 15.4317 52.6666 15.4332 52.6666H15.4354C15.4377 52.6666 15.4399 52.6673 15.4422 52.6673H15.4444C15.4467 52.6673 15.4482 52.6673 15.4504 52.6681H15.4594C15.4594 52.6681 15.4602 52.6688 15.4609 52.6688H15.4699C15.4714 52.6696 15.4737 52.6696 15.4759 52.6696H15.4782C15.4804 52.6696 15.4827 52.6703 15.4849 52.6703C15.4857 52.6703 15.4864 52.6703 15.4864 52.6703H15.4932C15.4939 52.6703 15.4939 52.6711 15.4947 52.6711H15.5014C15.5022 52.6711 15.5022 52.6711 15.5029 52.6711C15.5052 52.6711 15.5082 52.6718 15.5104 52.6718C15.5112 52.6718 15.5112 52.6718 15.5119 52.6718H15.5187C15.5194 52.6726 15.5194 52.6726 15.5202 52.6726H15.5269C15.5269 52.6726 15.5277 52.6726 15.5284 52.6726C15.5307 52.6726 15.5329 52.6733 15.5359 52.6733C15.5367 52.6733 15.5367 52.6733 15.5374 52.6733H15.5434C15.5442 52.6741 15.5449 52.6741 15.5457 52.6741H15.5532C15.5562 52.6741 15.5584 52.6749 15.5607 52.6749H15.5629C15.5652 52.6749 15.5674 52.6749 15.5697 52.6756H15.5794C15.5817 52.6756 15.5839 52.6756 15.5862 52.6764H15.5952C15.5952 52.6764 15.5952 52.6764 15.5959 52.6764C15.5982 52.6764 15.6012 52.6771 15.6034 52.6771C15.6042 52.6771 15.6049 52.6771 15.6049 52.6771H15.6116C15.6124 52.6771 15.6124 52.6771 15.6131 52.6771C15.6154 52.6779 15.6184 52.6779 15.6206 52.6779C15.6206 52.6779 15.6206 52.6779 15.6214 52.6779C15.6244 52.6779 15.6266 52.6779 15.6296 52.6786C15.6304 52.6786 15.6304 52.6786 15.6304 52.6786H15.6371C15.6379 52.6786 15.6379 52.6786 15.6386 52.6786C15.6439 52.6786 15.6491 52.6794 15.6544 52.6794C15.6551 52.6794 15.6551 52.6794 15.6559 52.6794H15.6626C15.6634 52.6794 15.6634 52.6794 15.6641 52.6794C15.6664 52.6801 15.6694 52.6801 15.6716 52.6801H15.6814C15.6836 52.6809 15.6859 52.6809 15.6881 52.6809C15.6881 52.6809 15.6889 52.6809 15.6896 52.6809H15.6971C15.6979 52.6809 15.6979 52.6809 15.6986 52.6809H15.6994C15.7016 52.6809 15.7031 52.6816 15.7046 52.6816H15.7136C15.7144 52.6816 15.7144 52.6816 15.7151 52.6816H15.7219C15.7226 52.6816 15.7226 52.6816 15.7226 52.6816C15.7234 52.6824 15.7241 52.6824 15.7249 52.6824H15.7399C15.7406 52.6824 15.7406 52.6824 15.7406 52.6824C15.7429 52.6824 15.7459 52.6831 15.7481 52.6831C15.7489 52.6831 15.7489 52.6831 15.7496 52.6831H15.7654C15.7654 52.6831 15.7661 52.6831 15.7669 52.6831C15.7684 52.6831 15.7706 52.6839 15.7714 52.6839C15.7721 52.6839 15.7721 52.6839 15.7729 52.6839C15.7736 52.6839 15.7751 52.6839 15.7751 52.6839H15.7819C15.7819 52.6839 15.7826 52.6839 15.7834 52.6839C15.7879 52.6839 15.7924 52.6839 15.7961 52.6846C15.7969 52.6839 15.7976 52.6846 15.7984 52.6846C15.7999 52.6846 15.7999 52.6846 15.8006 52.6846H15.8164C15.8164 52.6846 15.8179 52.6846 15.8186 52.6846H15.8239C15.8254 52.6846 15.8254 52.6846 15.8261 52.6846C15.8291 52.6846 15.8314 52.6854 15.8344 52.6854H15.8419C15.8426 52.6854 15.8426 52.6854 15.8434 52.6854H15.8501C15.8509 52.6854 15.8509 52.6854 15.8516 52.6854H15.8674C15.8674 52.6854 15.8689 52.6854 15.8696 52.6854H15.8704C15.8719 52.6862 15.8734 52.6862 15.8756 52.6862C15.8764 52.6862 15.8764 52.6862 15.8771 52.6862H15.9019C15.9026 52.6862 15.9026 52.6862 15.9026 52.6862H15.9281C15.9281 52.6862 15.9288 52.6862 15.9296 52.6862C15.9318 52.6862 15.9341 52.6862 15.9356 52.6869H15.9536C15.9543 52.6869 15.9551 52.6869 15.9551 52.6869H15.9701C15.9708 52.6869 15.9708 52.6869 15.9716 52.6869H32.4898V60.727H48.6534V52.6869H64.9819C64.9827 52.6869 64.9834 52.6869 64.9834 52.6869H64.9932C64.9939 52.6869 64.9947 52.6869 64.9947 52.6869H65.0044C65.0052 52.6869 65.0059 52.6869 65.0059 52.6869H65.0149C65.0157 52.6869 65.0157 52.6869 65.0164 52.6869H65.0262C65.0269 52.6869 65.0269 52.6869 65.0277 52.6869C65.0307 52.6869 65.0329 52.6869 65.0359 52.6862H65.0697C65.0704 52.6862 65.0704 52.6862 65.0712 52.6862H65.0809C65.0817 52.6862 65.0817 52.6862 65.0824 52.6862H65.0929C65.0967 52.6862 65.0989 52.6854 65.1019 52.6854H65.1027C65.1034 52.6854 65.1034 52.6854 65.1034 52.6854H65.1132C65.1139 52.6854 65.1146 52.6854 65.1146 52.6854H65.1244C65.1252 52.6854 65.1259 52.6854 65.1259 52.6854H65.1357C65.1364 52.6854 65.1364 52.6854 65.1371 52.6854C65.1401 52.6846 65.1431 52.6846 65.1461 52.6846C65.1461 52.6846 65.1469 52.6846 65.1476 52.6846H65.1701C65.1709 52.6846 65.1716 52.6839 65.1731 52.6846C65.1784 52.6839 65.1844 52.6839 65.1896 52.6839C65.1904 52.6839 65.1911 52.6839 65.1911 52.6839C65.1941 52.6839 65.1971 52.6839 65.2009 52.6831C65.2009 52.6831 65.2016 52.6831 65.2024 52.6831H65.2234C65.2234 52.6831 65.2234 52.6831 65.2241 52.6831C65.2271 52.6824 65.2301 52.6824 65.2331 52.6824C65.2339 52.6824 65.2339 52.6824 65.2346 52.6824H65.2444C65.2444 52.6824 65.2451 52.6824 65.2459 52.6824C65.2489 52.6816 65.2519 52.6816 65.2556 52.6816C65.2564 52.6816 65.2564 52.6816 65.2571 52.6816H65.2669C65.2699 52.6809 65.2736 52.6809 65.2766 52.6809C65.2774 52.6809 65.2781 52.6809 65.2781 52.6809C65.2811 52.6809 65.2849 52.6809 65.2879 52.6801C65.2879 52.6801 65.2886 52.6801 65.2894 52.6801H65.2991C65.2991 52.6801 65.2999 52.6801 65.3006 52.6801C65.3036 52.6801 65.3066 52.6794 65.3104 52.6794H65.3201C65.3209 52.6794 65.3209 52.6794 65.3216 52.6794C65.3246 52.6786 65.3276 52.6786 65.3314 52.6786C65.3314 52.6786 65.3321 52.6786 65.3329 52.6786C65.3359 52.6786 65.3389 52.6779 65.3419 52.6779H65.3531C65.3539 52.6779 65.3539 52.6779 65.3539 52.6779C65.3569 52.6771 65.3599 52.6771 65.3636 52.6771C65.3636 52.6771 65.3644 52.6771 65.3651 52.6771C65.3681 52.6771 65.3711 52.6764 65.3749 52.6764C65.3749 52.6764 65.3756 52.6764 65.3764 52.6764C65.3801 52.6764 65.3831 52.6764 65.3869 52.6756H65.3966C65.3966 52.6756 65.3966 52.6756 65.3974 52.6756C65.4004 52.6749 65.4034 52.6749 65.4063 52.6749H65.4086C65.4116 52.6749 65.4146 52.6741 65.4176 52.6741C65.4184 52.6741 65.4191 52.6741 65.4191 52.6741C65.4229 52.6741 65.4258 52.6733 65.4288 52.6733C65.4288 52.6733 65.4296 52.6733 65.4304 52.6733C65.4333 52.6733 65.4363 52.6733 65.4393 52.6726C65.4401 52.6726 65.4401 52.6726 65.4401 52.6726H65.4498C65.4498 52.6726 65.4506 52.6726 65.4506 52.6718C65.4513 52.6718 65.4513 52.6718 65.4513 52.6718H65.4611C65.4618 52.6718 65.4618 52.6718 65.4626 52.6718C65.4656 52.6711 65.4693 52.6711 65.4723 52.6711H65.4731C65.4761 52.6703 65.4791 52.6703 65.4828 52.6703H65.4836C65.4866 52.6696 65.4896 52.6696 65.4926 52.6696H65.4948C65.4978 52.6696 65.5008 52.6688 65.5038 52.6688H65.5061C65.5091 52.6681 65.5121 52.6681 65.5151 52.6681C65.5158 52.6681 65.5158 52.6681 65.5166 52.6681C65.5196 52.6681 65.5226 52.6673 65.5256 52.6673C65.5263 52.6673 65.5263 52.6673 65.5271 52.6673C65.5301 52.6673 65.5331 52.6666 65.5361 52.6666H65.5383C65.5413 52.6658 65.5443 52.6658 65.5473 52.6658C65.5481 52.6658 65.5481 52.6658 65.5488 52.6658C65.5518 52.6651 65.5556 52.6651 65.5586 52.6651C65.5586 52.6651 65.5586 52.6651 65.5593 52.6651C65.5623 52.6643 65.5653 52.6643 65.5691 52.6643H65.5698C65.5728 52.6636 65.5758 52.6636 65.5796 52.6636C65.5796 52.6636 65.5803 52.6636 65.5811 52.6636C65.5841 52.6628 65.5871 52.6628 65.5901 52.6628C65.5908 52.662 65.5916 52.662 65.5916 52.662C65.5953 52.662 65.5983 52.662 65.6013 52.6613C65.6021 52.6613 65.6021 52.6613 65.6021 52.6613C65.6051 52.6613 65.6081 52.6613 65.6118 52.6605C65.6126 52.6605 65.6126 52.6605 65.6126 52.6605C65.6163 52.6605 65.6193 52.6598 65.6223 52.6598C65.6231 52.6598 65.6238 52.6598 65.6238 52.6598C65.6268 52.6598 65.6306 52.659 65.6336 52.659C65.6336 52.659 65.6343 52.659 65.6351 52.659C65.6411 52.6583 65.6478 52.6575 65.6546 52.6568C65.6553 52.6568 65.6553 52.6568 65.6561 52.6568C65.6591 52.6568 65.6621 52.6568 65.6651 52.656H65.6673C65.6703 52.656 65.6733 52.6553 65.6763 52.6553C65.6771 52.6553 65.6771 52.6553 65.6778 52.6553C65.6846 52.6545 65.6913 52.6538 65.6973 52.653C65.6981 52.653 65.6981 52.653 65.6988 52.653C65.7018 52.653 65.7048 52.6523 65.7085 52.6523C65.7085 52.6523 65.7093 52.6523 65.7101 52.6523C65.7131 52.6515 65.716 52.6515 65.7198 52.6515C65.7265 52.6507 65.7333 52.65 65.7408 52.6492C65.7408 52.6492 65.7408 52.6492 65.7415 52.6492C65.7445 52.6485 65.7475 52.6485 65.7513 52.6477H65.752C65.7558 52.6477 65.7588 52.647 65.7625 52.647C65.7693 52.6462 65.776 52.6455 65.7828 52.6447C65.7835 52.6447 65.7835 52.6447 65.7843 52.6447C65.7873 52.6447 65.7903 52.644 65.794 52.644C65.794 52.644 65.7948 52.644 65.7948 52.6432C65.7985 52.6432 65.8015 52.6432 65.8053 52.6425C65.809 52.6425 65.812 52.6417 65.8158 52.6417C65.8188 52.6409 65.8225 52.6409 65.8255 52.6402C65.8263 52.6402 65.8263 52.6402 65.827 52.6402C65.83 52.6394 65.833 52.6394 65.8368 52.6394C65.8368 52.6387 65.8375 52.6387 65.8375 52.6387C65.8413 52.6387 65.8443 52.6379 65.8473 52.6379H65.848C65.851 52.6372 65.8548 52.6372 65.8578 52.6364C65.8585 52.6364 65.8585 52.6364 65.8585 52.6364C65.8615 52.6364 65.8653 52.6357 65.8683 52.6357C65.869 52.6357 65.869 52.6357 65.869 52.6357C65.8728 52.6349 65.8758 52.6349 65.8795 52.6342H65.8803C65.887 52.6334 65.8938 52.6327 65.9005 52.6319C65.9005 52.6319 65.9005 52.6319 65.9013 52.6319C65.9043 52.6312 65.908 52.6312 65.911 52.6304H65.9118C65.9155 52.6297 65.9185 52.6297 65.9215 52.6289C65.9215 52.6289 65.9223 52.6289 65.923 52.6289C65.9298 52.6281 65.9358 52.6274 65.9425 52.6266C65.9433 52.6266 65.9433 52.6266 65.9433 52.6266C65.947 52.6259 65.95 52.6259 65.953 52.6251C65.9538 52.6251 65.9538 52.6251 65.9545 52.6251C65.9575 52.6244 65.9613 52.6244 65.9643 52.6236H65.965C65.9695 52.6229 65.974 52.6229 65.9785 52.6221C65.9808 52.6221 65.983 52.6214 65.9853 52.6214H65.986C65.989 52.6206 65.9928 52.6199 65.9958 52.6199C65.9965 52.6199 65.9965 52.6199 65.9965 52.6199C66.0003 52.6191 66.0033 52.6183 66.0063 52.6183C66.007 52.6183 66.007 52.6183 66.0078 52.6183C66.0137 52.6176 66.0205 52.6161 66.0272 52.6153C66.0272 52.6153 66.028 52.6153 66.0287 52.6153C66.0317 52.6146 66.0347 52.6146 66.0378 52.6138C66.0385 52.6138 66.0392 52.6138 66.0392 52.6138C66.0422 52.6131 66.046 52.6131 66.049 52.6123H66.0497C66.0565 52.6116 66.0632 52.6108 66.07 52.6093C66.07 52.6093 66.07 52.6093 66.0707 52.6093C66.0737 52.6093 66.0767 52.6086 66.0805 52.6078H66.0812C66.0842 52.6078 66.088 52.6071 66.091 52.6063H66.0917C66.0985 52.6055 66.1052 52.6048 66.112 52.6033H66.1127C66.1157 52.6025 66.1195 52.6025 66.1225 52.6018H66.1232C66.127 52.601 66.13 52.601 66.1337 52.6003C66.1405 52.5995 66.1472 52.598 66.154 52.5973C66.1547 52.5973 66.1547 52.5973 66.1547 52.5973C66.1555 52.5973 66.1562 52.5973 66.157 52.5965C66.1592 52.5965 66.1622 52.5957 66.1645 52.5957C66.1652 52.5957 66.1652 52.5957 66.1652 52.5957C66.169 52.595 66.172 52.5942 66.1757 52.5935C66.1795 52.5935 66.1825 52.5927 66.1855 52.592H66.1862C66.1892 52.592 66.193 52.5912 66.196 52.5905H66.1967C66.2005 52.5897 66.2035 52.5897 66.2072 52.589C66.214 52.5875 66.2215 52.5867 66.2282 52.5852C66.2312 52.5852 66.2342 52.5844 66.238 52.5837H66.2387C66.2425 52.5829 66.2455 52.5829 66.2485 52.5822C66.2492 52.5822 66.2492 52.5822 66.2492 52.5822C66.256 52.5807 66.2627 52.5799 66.2695 52.5784H66.2702C66.2732 52.5777 66.2762 52.5777 66.28 52.5769H66.2807C66.2845 52.5762 66.2875 52.5754 66.2905 52.5746H66.2912C66.298 52.5739 66.3047 52.5724 66.3115 52.5716C66.3115 52.5716 66.3114 52.5716 66.3122 52.5716C66.3152 52.5709 66.3175 52.5701 66.3204 52.5694H66.3212C66.322 52.5694 66.3219 52.5694 66.3227 52.5694C66.3257 52.5686 66.3294 52.5686 66.3324 52.5679H66.3332C66.3399 52.5664 66.3467 52.5649 66.3527 52.5641C66.3534 52.5641 66.3534 52.5641 66.3534 52.5641C66.3572 52.5634 66.3602 52.5626 66.3632 52.5618C66.3639 52.5618 66.3639 52.5618 66.3647 52.5618C66.3677 52.5611 66.3707 52.5611 66.3744 52.5603C66.3812 52.5588 66.3879 52.5573 66.3947 52.5566H66.3954C66.3984 52.5558 66.4022 52.5551 66.4052 52.5543H66.4059C66.4089 52.5536 66.4127 52.5528 66.4157 52.5528C66.4157 52.5521 66.4157 52.5521 66.4164 52.5521C66.4194 52.5521 66.4232 52.5513 66.4262 52.5505C66.4299 52.5498 66.4329 52.549 66.4359 52.5483C66.4367 52.5483 66.4367 52.5483 66.4367 52.5483C66.4404 52.5475 66.4434 52.5475 66.4464 52.5468C66.4472 52.5468 66.4472 52.5468 66.4479 52.546C66.4577 52.5445 66.4682 52.5423 66.4779 52.5408L66.4787 52.54C66.4817 52.54 66.4854 52.5392 66.4884 52.5385H66.4892C66.4989 52.5362 66.5094 52.534 66.5199 52.5325C66.5229 52.5317 66.5267 52.531 66.5297 52.5302H66.5304C66.5402 52.5279 66.5507 52.5257 66.5604 52.5234C66.5612 52.5234 66.5612 52.5234 66.5612 52.5234C66.5642 52.5227 66.5679 52.5219 66.5709 52.5212C66.5717 52.5212 66.5717 52.5212 66.5717 52.5212C66.5784 52.5197 66.5852 52.5189 66.5919 52.5174C66.5957 52.5166 66.5987 52.5159 66.6024 52.5151C66.6062 52.5144 66.6091 52.5136 66.6122 52.5129H66.6129C66.6197 52.5114 66.6264 52.5099 66.6331 52.5084C66.6369 52.5076 66.6399 52.5069 66.6429 52.5061H66.6436C66.6474 52.5053 66.6504 52.5046 66.6534 52.5038H66.6541C66.6609 52.5023 66.6669 52.5008 66.6736 52.4993C66.6744 52.4993 66.6744 52.4993 66.6744 52.4993C66.6781 52.4986 66.6811 52.4978 66.6841 52.4971C66.6849 52.4971 66.6849 52.4971 66.6849 52.4971C66.6954 52.4948 66.7051 52.4918 66.7156 52.4895C66.7201 52.4888 66.7246 52.4873 66.7291 52.4865C66.7381 52.4842 66.7471 52.4827 66.7561 52.4805C66.7561 52.4805 66.7561 52.4805 66.7569 52.4805C66.7599 52.4797 66.7629 52.479 66.7666 52.4782V52.4775C66.7771 52.4752 66.7869 52.4729 66.7974 52.4707C66.7989 52.4699 66.8011 52.4699 66.8026 52.4692C66.8146 52.4662 66.8259 52.4632 66.8379 52.4609V52.4601C66.8446 52.4586 66.8514 52.4571 66.8581 52.4549C66.8994 52.4451 66.9406 52.4338 66.9818 52.4232C67.0141 52.4149 67.0463 52.4059 67.0778 52.3969C67.1326 52.3818 67.1873 52.3652 67.2413 52.3486C67.308 52.3283 67.374 52.3072 67.4393 52.2854C67.5052 52.2635 67.5705 52.2409 67.6357 52.2168L66.3519 48.6774C65.9125 48.8386 65.4483 48.92 64.9722 48.92ZM44.904 56.9601H36.2392V48.2548H44.904V56.9601Z" fill="white"/>
<path d="M69.002 44.8713C69.002 45.2232 68.9578 45.5712 68.87 45.9057L72.4957 46.8633H72.4964C72.4994 46.8505 72.5032 46.8369 72.5062 46.8241C72.5174 46.7812 72.5279 46.739 72.5384 46.6953C72.5399 46.6877 72.5422 46.6795 72.5437 46.6719C72.5437 46.6719 72.5437 46.6719 72.5437 46.6712C72.5444 46.6697 72.5444 46.6681 72.5452 46.6659C72.5459 46.6629 72.5467 46.6599 72.5467 46.6576C72.5474 46.6553 72.5482 46.6523 72.5489 46.6493C72.5489 46.6486 72.5489 46.6486 72.5497 46.6478C72.5497 46.6463 72.5497 46.6448 72.5504 46.6433C72.5504 46.6425 72.5504 46.6418 72.5512 46.641C72.5512 46.6395 72.5519 46.638 72.5519 46.6365C72.5519 46.6358 72.5519 46.635 72.5527 46.6343C72.5534 46.6312 72.5534 46.6282 72.5542 46.626C72.5542 46.6252 72.5549 46.6252 72.5549 46.6245C72.5549 46.6229 72.5557 46.6214 72.5557 46.6199C72.5557 46.6192 72.5564 46.6184 72.5564 46.6177C72.5564 46.6162 72.5564 46.6154 72.5572 46.6139C72.5572 46.6132 72.5579 46.6116 72.5579 46.6109C72.5579 46.6094 72.5587 46.6079 72.5587 46.6071C72.5587 46.6056 72.5594 46.6049 72.5594 46.6041C72.5602 46.6019 72.5602 46.5996 72.5609 46.5973C72.5609 46.5966 72.5609 46.5951 72.5617 46.5943C72.5617 46.5928 72.5617 46.5921 72.5624 46.5906C72.5624 46.5898 72.5632 46.5883 72.5632 46.5875C72.5632 46.586 72.5632 46.5853 72.5639 46.5838C72.5639 46.583 72.5647 46.5815 72.5647 46.58C72.5647 46.5793 72.5654 46.5785 72.5654 46.577C72.5654 46.5755 72.5662 46.5732 72.5669 46.571V46.5687C72.5677 46.5672 72.5677 46.5657 72.5684 46.5642C72.5684 46.5627 72.5684 46.5619 72.5692 46.5612C72.5692 46.5597 72.5692 46.5582 72.5699 46.5566C72.5699 46.5559 72.5699 46.5551 72.5707 46.5544C72.5707 46.5521 72.5714 46.5499 72.5714 46.5476H72.5722C72.5722 46.5453 72.5729 46.5431 72.5737 46.5408V46.5386C72.5744 46.5371 72.5744 46.5356 72.5752 46.5333C72.5752 46.5325 72.5752 46.5325 72.5752 46.5318C72.5759 46.5295 72.5759 46.528 72.5767 46.5258C72.5767 46.5258 72.5767 46.525 72.5767 46.5243C72.5774 46.522 72.5782 46.5197 72.5782 46.5175V46.5167C72.5789 46.5145 72.5797 46.513 72.5797 46.5107C72.5797 46.5099 72.5804 46.5092 72.5804 46.5084C72.5804 46.5069 72.5812 46.5047 72.5812 46.5032C72.5812 46.5024 72.5819 46.5017 72.5819 46.5017C72.5827 46.4964 72.5834 46.4919 72.5849 46.4873C72.5849 46.4866 72.5849 46.4866 72.5849 46.4866C72.5857 46.4843 72.5857 46.4821 72.5864 46.4798V46.4791C72.5872 46.4768 72.5872 46.4745 72.5879 46.4723V46.4715C72.5887 46.4662 72.5902 46.4617 72.5909 46.4565C72.5917 46.4542 72.5924 46.4512 72.5924 46.4489C72.5939 46.4414 72.5954 46.4338 72.5969 46.4263C72.5969 46.4263 72.5969 46.4263 72.5969 46.4256C72.5977 46.4233 72.5984 46.421 72.5984 46.4188C72.5999 46.4113 72.6014 46.4037 72.6029 46.3962L72.6037 46.3954C72.6052 46.3856 72.6074 46.3751 72.6089 46.3653C72.6104 46.3578 72.6119 46.3502 72.6134 46.3419C72.6149 46.3336 72.6164 46.3246 72.6179 46.3163C72.6247 46.2832 72.6307 46.2493 72.6359 46.2161C72.6441 46.1724 72.6516 46.128 72.6577 46.0843C72.6607 46.07 72.6629 46.0557 72.6644 46.0406C72.6696 46.0082 72.6741 45.975 72.6786 45.9426C72.6839 45.9042 72.6891 45.8658 72.6936 45.8266C72.7004 45.7746 72.7056 45.7227 72.7109 45.6699C72.7124 45.6586 72.7139 45.6473 72.7146 45.636C72.7169 45.6074 72.7199 45.5788 72.7221 45.5501C72.7221 45.5494 72.7221 45.5494 72.7221 45.5494C72.7229 45.5418 72.7236 45.5336 72.7244 45.526C72.7251 45.5155 72.7259 45.5049 72.7266 45.4944C72.7281 45.4771 72.7296 45.4605 72.7311 45.4432V45.4319C72.7311 45.4311 72.7319 45.4311 72.7319 45.4311C72.7319 45.4258 72.7319 45.4206 72.7326 45.4153V45.4145C72.7326 45.4123 72.7326 45.41 72.7334 45.4077C72.7334 45.4077 72.7334 45.407 72.7334 45.4062V45.4002C72.7334 45.3995 72.7334 45.3995 72.7334 45.3995C72.7341 45.3964 72.7341 45.3942 72.7341 45.3912C72.7341 45.3889 72.7349 45.3867 72.7349 45.3844C72.7349 45.3836 72.7349 45.3829 72.7349 45.3829V45.3761C72.7349 45.3761 72.7356 45.3761 72.7356 45.3753V45.3678C72.7356 45.3648 72.7364 45.3625 72.7364 45.3595V45.3527C72.7364 45.352 72.7364 45.352 72.7364 45.352C72.7364 45.3512 72.7371 45.3512 72.7371 45.3512V45.3437C72.7379 45.3384 72.7379 45.3332 72.7379 45.3286C72.7379 45.3279 72.7379 45.3271 72.7379 45.3271C72.7386 45.3249 72.7386 45.3226 72.7386 45.3211V45.3188C72.7386 45.3166 72.7394 45.3143 72.7394 45.3121V45.3038C72.7394 45.3015 72.7394 45.2993 72.7401 45.297C72.7401 45.2962 72.7401 45.2955 72.7401 45.2955C72.7409 45.2849 72.7409 45.2752 72.7416 45.2654C72.7424 45.2571 72.7424 45.2488 72.7424 45.2412C72.7431 45.2382 72.7431 45.236 72.7431 45.233C72.7431 45.233 72.7431 45.2322 72.7431 45.2315V45.2247C72.7431 45.2217 72.7439 45.2194 72.7439 45.2164C72.7439 45.2164 72.7439 45.2164 72.7439 45.2156V45.2089C72.7439 45.2089 72.7439 45.2081 72.7439 45.2073C72.7439 45.2051 72.7446 45.2036 72.7446 45.2013C72.7446 45.2013 72.7446 45.2006 72.7446 45.1998C72.7446 45.1953 72.7446 45.19 72.7454 45.1847C72.7454 45.1847 72.7454 45.184 72.7454 45.1832V45.1697C72.7454 45.1689 72.7454 45.1689 72.7454 45.1682C72.7461 45.1659 72.7461 45.1629 72.7461 45.1606V45.1456C72.7461 45.1448 72.7469 45.1441 72.7469 45.1433V45.1267C72.7469 45.1252 72.7469 45.1237 72.7476 45.1215V45.1117C72.7476 45.1056 72.7484 45.1004 72.7484 45.0951V45.0815C72.7484 45.0808 72.7484 45.0808 72.7484 45.08C72.7491 45.0748 72.7491 45.0702 72.7491 45.065C72.7491 45.0642 72.7491 45.0642 72.7491 45.0635V45.0574C72.7491 45.0567 72.7491 45.0559 72.7491 45.0559V45.0408C72.7491 45.0401 72.7491 45.0401 72.7491 45.0393C72.7491 45.0371 72.7491 45.0356 72.7499 45.0333V45.025C72.7499 45.025 72.7499 45.0243 72.7499 45.0235V44.9934C72.7499 44.9926 72.7499 44.9926 72.7506 44.9919V44.9843C72.7506 44.9843 72.7506 44.9836 72.7506 44.9828V44.9768C72.7506 44.9761 72.7506 44.9761 72.7506 44.9753V44.9271C72.7506 44.9263 72.7506 44.9263 72.7506 44.9256C72.7506 44.9241 72.7506 44.9218 72.7514 44.9203V20.5168H69.002V44.8713Z" fill="white"/>
</svg>
