<svg width="77" height="77" viewBox="0 0 77 77" fill="none" xmlns="http://www.w3.org/2000/svg">
<path d="M65.4202 53.9501C65.4202 49.6903 61.971 46.2363 57.7156 46.2363C53.4609 46.2363 50.0109 49.6903 50.0109 53.9501C50.0109 58.2105 53.4609 61.6639 57.7156 61.6639C61.971 61.6639 65.4202 58.2105 65.4202 53.9501ZM53.5779 53.9501C53.5779 51.6659 55.4342 49.8075 57.7156 49.8075C59.997 49.8075 61.8533 51.6659 61.8533 53.9501C61.8533 56.2342 59.997 58.0927 57.7156 58.0927C55.4342 58.0927 53.5779 56.2342 53.5779 53.9501Z" fill="white"/>
<path d="M26.9662 53.9501C26.9662 49.6903 23.5163 46.2363 19.2616 46.2363C15.0062 46.2363 11.557 49.6903 11.557 53.9501C11.557 58.2105 15.0062 61.6639 19.2616 61.6639C23.5163 61.6639 26.9662 58.2105 26.9662 53.9501ZM15.1239 53.9501C15.1239 51.6659 16.9802 49.8075 19.2616 49.8075C21.543 49.8075 23.3993 51.6659 23.3993 53.9501C23.3993 56.2342 21.543 58.0927 19.2616 58.0927C16.9802 58.0927 15.1239 56.2342 15.1239 53.9501Z" fill="white"/>
<path d="M73.433 65.715H66.491C66.3405 65.5386 66.1835 65.3665 66.0209 65.1979C63.8864 62.9866 61.0307 61.7353 57.9795 61.6731C57.804 61.6696 57.6271 61.6696 57.4523 61.6731C54.4012 61.7353 51.5447 62.9866 49.4103 65.1979C49.2476 65.3665 49.0907 65.5386 48.9401 65.715H28.037C27.8865 65.5386 27.7296 65.3665 27.5669 65.1979C25.4324 62.9866 22.576 61.7353 19.5248 61.6731C19.3501 61.6696 19.1731 61.6696 18.9976 61.6731C15.9465 61.7353 13.0907 62.9866 10.9563 65.1979C10.7936 65.3665 10.6367 65.5386 10.4854 65.715H3.56696V53.8586H0V69.2862H12.3117C12.6427 68.7091 13.0479 68.1699 13.5209 67.6799C14.3813 66.7885 15.4093 66.1236 16.5343 65.715C17.339 65.4222 18.1929 65.2615 19.0697 65.2436C19.1974 65.2415 19.3251 65.2415 19.4528 65.2436C20.3295 65.2615 21.1835 65.4222 21.9882 65.715C23.1132 66.1228 24.1419 66.7885 25.0023 67.6799C25.4752 68.1699 25.8797 68.7091 26.2107 69.2862H50.7664C51.0974 68.7091 51.5019 68.1699 51.9749 67.6799C52.8353 66.7885 53.864 66.1236 54.989 65.715C55.793 65.4222 56.6476 65.2615 57.5244 65.2436C57.6514 65.2415 57.7798 65.2415 57.9075 65.2436C58.7842 65.2615 59.6389 65.4222 60.4429 65.715C61.5679 66.1236 62.5959 66.7885 63.4562 67.6799C63.9292 68.1699 64.3337 68.7091 64.6655 69.2862H77V53.8586H73.433V65.715Z" fill="white"/>
<path d="M0 30.8094V46.2363H3.56696V34.3806H73.433V46.2363H77V30.8094H0Z" fill="white"/>
<path d="M19.2616 15.4276C23.5163 15.4276 26.9662 11.9735 26.9662 7.71379C26.9662 3.45335 23.5163 0 19.2616 0C15.0062 0 11.557 3.45335 11.557 7.71379C11.557 11.9735 15.0062 15.4276 19.2616 15.4276ZM19.2616 3.5712C21.543 3.5712 23.3993 5.42965 23.3993 7.71379C23.3993 9.99792 21.543 11.8564 19.2616 11.8564C16.9802 11.8564 15.1239 9.99792 15.1239 7.71379C15.1239 5.42965 16.9802 3.5712 19.2616 3.5712Z" fill="white"/>
<path d="M19.5248 15.4369C19.3493 15.4333 19.1724 15.4333 18.9976 15.4369C15.9465 15.4983 13.09 16.7503 10.9556 18.9609C8.83394 21.1593 7.66469 24.0542 7.66469 27.1125V30.763H11.2316V27.1125C11.2316 24.9848 12.0442 22.9714 13.5202 21.4429C14.9955 19.9144 16.9659 19.0495 19.069 19.0073C19.1967 19.0045 19.3244 19.0045 19.4521 19.0073C21.5552 19.0495 23.5255 19.9151 25.0008 21.4429C26.4768 22.9714 27.2894 24.9848 27.2894 27.1125V30.763H30.8564V27.1125C30.8564 24.0542 29.6878 21.1593 27.5655 18.9609C25.4324 16.7496 22.576 15.4983 19.5248 15.4369Z" fill="white"/>
<path d="M57.7156 15.4276C61.971 15.4276 65.4202 11.9735 65.4202 7.71379C65.4202 3.45335 61.971 0 57.7156 0C53.4609 0 50.0109 3.45335 50.0109 7.71379C50.0109 11.9735 53.4609 15.4276 57.7156 15.4276ZM57.7156 3.5712C59.997 3.5712 61.8533 5.42965 61.8533 7.71379C61.8533 9.99792 59.997 11.8564 57.7156 11.8564C55.4342 11.8564 53.5779 9.99792 53.5779 7.71379C53.5779 5.42965 55.4342 3.5712 57.7156 3.5712Z" fill="white"/>
<path d="M66.0209 18.9609C63.8864 16.7496 61.0307 15.4983 57.9795 15.4369C57.804 15.4333 57.6271 15.4333 57.4523 15.4369C54.4012 15.4983 51.5447 16.7503 49.4103 18.9609C47.2886 21.1593 46.1194 24.0542 46.1194 27.1125V30.763H49.6863V27.1125C49.6863 24.9848 50.4989 22.9714 51.9749 21.4429C53.4502 19.9144 55.4206 19.0495 57.5237 19.0073C57.6514 19.0045 57.7791 19.0045 57.9068 19.0073C60.0099 19.0495 61.9802 19.9151 63.4555 21.4429C64.9315 22.9714 65.7441 24.9848 65.7441 27.1125V30.763H69.3111V27.1125C69.3118 24.0542 68.1432 21.1586 66.0209 18.9609Z" fill="white"/>
<path d="M19.2616 61.6639C23.5163 61.6639 26.9662 58.2105 26.9662 53.9501C26.9662 49.6903 23.5163 46.2363 19.2616 46.2363C15.0062 46.2363 11.557 49.6903 11.557 53.9501C11.557 58.2105 15.0062 61.6639 19.2616 61.6639ZM19.2616 49.8075C21.543 49.8075 23.3993 51.6659 23.3993 53.9501C23.3993 56.2342 21.543 58.0927 19.2616 58.0927C16.9802 58.0927 15.1239 56.2342 15.1239 53.9501C15.1239 51.6659 16.9802 49.8075 19.2616 49.8075Z" fill="white"/>
<path d="M30.1365 69.2862C29.66 67.9899 28.953 66.7821 28.037 65.715C27.8865 65.5386 27.7296 65.3665 27.5669 65.1979C25.4324 62.9866 22.576 61.7353 19.5248 61.6731C19.3501 61.6696 19.1731 61.6696 18.9976 61.6731C15.9465 61.7353 13.0907 62.9866 10.9563 65.1979C10.7936 65.3665 10.6367 65.5386 10.4854 65.715C9.57016 66.7821 8.86247 67.9899 8.38593 69.2862C7.91223 70.5719 7.6654 71.9432 7.6654 73.3495V77H11.2324V73.3495C11.2324 71.9039 11.6076 70.5104 12.3117 69.2862C12.6427 68.7091 13.0479 68.1699 13.5209 67.6799C14.3813 66.7885 15.4093 66.1236 16.5343 65.715C17.339 65.4222 18.1929 65.2615 19.0697 65.2436C19.1974 65.2415 19.3251 65.2415 19.4528 65.2436C20.3295 65.2615 21.1835 65.4222 21.9882 65.715C23.1132 66.1228 24.1419 66.7885 25.0023 67.6799C25.4752 68.1699 25.8797 68.7091 26.2107 69.2862C26.9149 70.5104 27.2901 71.9039 27.2901 73.3495V77H30.8571V73.3495C30.8571 71.9432 30.6095 70.5719 30.1365 69.2862Z" fill="white"/>
<path d="M57.7156 61.6639C61.971 61.6639 65.4202 58.2105 65.4202 53.9501C65.4202 49.6903 61.971 46.2363 57.7156 46.2363C53.4609 46.2363 50.0109 49.6903 50.0109 53.9501C50.0109 58.2105 53.4609 61.6639 57.7156 61.6639ZM57.7156 49.8075C59.997 49.8075 61.8533 51.6659 61.8533 53.9501C61.8533 56.2342 59.997 58.0927 57.7156 58.0927C55.4342 58.0927 53.5779 56.2342 53.5779 53.9501C53.5779 51.6659 55.4342 49.8075 57.7156 49.8075Z" fill="white"/>
<path d="M68.5912 69.2862C68.1147 67.9899 67.407 66.7821 66.491 65.715C66.3405 65.5386 66.1835 65.3665 66.0209 65.1979C63.8864 62.9866 61.0307 61.7353 57.9795 61.6731C57.804 61.6696 57.6271 61.6696 57.4523 61.6731C54.4012 61.7353 51.5447 62.9866 49.4103 65.1979C49.2476 65.3665 49.0907 65.5386 48.9401 65.715C48.0241 66.7821 47.3172 67.9899 46.8406 69.2862C46.3669 70.5719 46.1201 71.9432 46.1201 73.3495V77H49.6871V73.3495C49.6871 71.9039 50.0623 70.5104 50.7664 69.2862C51.0974 68.7091 51.5019 68.1699 51.9749 67.6799C52.8353 66.7885 53.864 66.1236 54.989 65.715C55.793 65.4222 56.6476 65.2615 57.5244 65.2436C57.6514 65.2415 57.7798 65.2415 57.9075 65.2436C58.7842 65.2615 59.6389 65.4222 60.4429 65.715C61.5679 66.1236 62.5959 66.7885 63.4562 67.6799C63.9292 68.1699 64.3337 68.7091 64.6655 69.2862C65.3696 70.5104 65.7448 71.9039 65.7448 73.3495V77H69.3118V73.3495C69.3118 71.9432 69.0642 70.5719 68.5912 69.2862Z" fill="white"/>
</svg>
