<svg width="196" height="47" viewBox="0 0 196 47" fill="none" xmlns="http://www.w3.org/2000/svg">
<g id="Group 20204693">
<g id="Vector">
<path d="M14.0475 22.7652C14.0475 27.5838 17.9436 31.505 22.7327 31.505C27.5217 31.505 31.4178 27.5838 31.4178 22.7652C31.4178 17.9465 27.5217 14.0253 22.7327 14.0253C17.9436 14.0253 14.0475 17.9465 14.0475 22.7652ZM28.8743 22.7652C28.8743 26.1734 26.1193 28.9453 22.7327 28.9453C19.346 28.9453 16.591 26.1734 16.591 22.7652C16.591 19.3569 19.347 16.5851 22.7327 16.5851C26.1184 16.5851 28.8743 19.3579 28.8743 22.7652Z" fill="#161719"/>
<path d="M32.5467 32.5373C32.5034 32.5817 32.4574 32.6231 32.4132 32.6665L32.4029 32.658C29.9186 35.1329 26.5019 36.6631 22.7298 36.6631C16.8486 36.6631 11.8321 32.9456 9.86758 27.7187C9.84878 27.6678 9.82716 27.6168 9.80837 27.564C9.78675 27.5037 9.76795 27.4424 9.74633 27.3811C8.09578 22.5728 9.14382 17.0197 12.9187 13.1495L12.914 13.1438C14.2853 11.7372 15.9519 10.6218 17.8139 9.90434L17.8186 9.92414C22.6875 8.05738 28.4109 9.06053 32.3662 12.9666L33.3268 13.916L37.6543 9.48007C37.6609 9.48667 37.6675 9.49422 37.6741 9.50082L39.7204 7.40684C39.4684 7.13343 39.2109 6.86284 38.943 6.5998C33.9406 1.65761 27.2576 -0.503302 20.7841 0.0982087C15.5778 0.582811 10.5058 2.85403 6.55708 6.90244C2.58486 10.9744 0.429557 16.1542 0.0639172 21.433H0.0498186L0.0150395 22.0854L0 22.8915V23.4911L0.025379 24.1143H0.030079C0.287625 29.7221 2.56324 35.2498 6.85787 39.4924C11.8603 44.4346 18.5433 46.5955 25.0167 45.994C30.2194 45.5113 35.2885 43.241 39.2363 39.1973L34.4679 34.4343L32.5467 32.5373ZM21.053 3.01808C26.3862 2.52311 31.6415 4.18433 35.7096 7.60672L33.2535 10.125C29.4035 6.8949 24.4274 5.71733 19.7558 6.57623L18.9475 3.33392C19.6412 3.19344 20.3433 3.08408 21.053 3.01808ZM8.63531 8.95682C10.8085 6.72897 13.4582 5.05926 16.3504 4.04857L17.0986 7.04952L17.1606 7.29559C14.8202 8.14789 12.7278 9.52061 11.02 11.2723L10.9983 11.2516C8.21421 14.1055 6.66894 17.7277 6.35687 21.433H2.9834C3.35186 16.7369 5.31729 12.3585 8.63531 8.95682ZM15.8767 41.8787C13.2975 40.9048 10.9156 39.3934 8.89849 37.3994C5.29755 33.8431 3.20617 29.1517 2.9458 24.1124L6.35123 24.1105C6.64356 27.9657 8.26403 31.735 11.2155 34.6502C12.8717 36.2859 14.7882 37.4937 16.8288 38.279L15.8767 41.8787ZM24.7479 43.0742C22.6142 43.2721 20.4937 43.1241 18.4559 42.6565L19.4128 39.0371C19.9401 39.1455 20.4711 39.2303 21.005 39.2869C21.0821 39.2944 21.1601 39.301 21.2372 39.3076C21.412 39.3237 21.5869 39.3378 21.7617 39.3482C21.8707 39.3538 21.9798 39.3595 22.0888 39.3642C22.2307 39.3689 22.3727 39.3727 22.5137 39.3746C22.5926 39.3765 22.6706 39.3812 22.7505 39.3812C22.8041 39.3812 22.8567 39.3774 22.9112 39.3774C23.0146 39.3765 23.1171 39.3718 23.2205 39.3689C26.1155 39.2878 28.8216 38.4535 31.1546 37.0524C31.1574 37.0515 31.1593 37.0496 31.1612 37.0487C31.3501 36.9346 31.5362 36.8167 31.7204 36.6961C31.7486 36.6772 31.7768 36.6593 31.805 36.6404C31.9808 36.5245 32.1528 36.4038 32.323 36.2803C32.3436 36.2652 32.3643 36.252 32.385 36.2369L35.0808 38.9909C32.1002 41.2941 28.5171 42.7244 24.7479 43.0742Z" fill="#DA0032"/>
</g>
<g id="Vector_2">
<path d="M69.2718 33.4667L67.0151 28.6811H55.7732L53.558 33.4667H48L60.997 7H61.749L74.7461 33.4667H69.2718ZM57.3194 24.8943H65.4689L61.3734 16.0305L57.3194 24.8943Z" fill="#161719"/>
<path d="M74.8218 24.7276C74.8218 18.9851 78.7921 15.697 84.1412 15.697C87.4425 15.697 89.6992 17.112 89.9503 17.2367L89.2813 21.0234C89.2813 21.0234 87.2336 19.4417 84.4753 19.4417C81.6756 19.4417 79.3352 21.2315 79.3352 24.6855C79.3352 28.1395 81.6341 30.0119 84.3924 30.0119C86.9832 30.0119 88.7391 28.5135 88.9057 28.3889L90.8283 31.7595C88.5294 33.2158 86.3149 33.7573 84.142 33.7573C78.7084 33.7581 74.8218 30.4708 74.8218 24.7276Z" fill="#161719"/>
<path d="M103.441 33.4667V31.5523C102.856 32.3844 101.184 33.6334 98.6764 33.6334C94.3297 33.6334 92.1568 30.9703 92.1568 27.8902C92.1568 24.6442 94.8736 22.3971 100.014 22.3971C101.267 22.3971 102.438 22.6464 103.441 22.8552C103.441 19.984 102.145 19.2765 100.349 19.2765C98.1757 19.2765 95.4589 20.2754 94.372 20.8162L93.2437 17.4455C94.2046 17.0294 97.214 15.7812 100.515 15.7812C105.739 15.7812 108.038 18.1117 108.038 23.3547V33.4667H103.441ZM99.847 30.096C101.979 30.096 103.441 28.5564 103.441 26.0179V25.6852C103.107 25.5184 102.062 25.1444 100.39 25.1444C97.9245 25.1444 96.8376 26.1433 96.8376 27.6417C96.8376 29.1805 98.0497 30.096 99.847 30.096Z" fill="#161719"/>
<path d="M111 24.9356C111 19.8999 114.177 15.8217 119.359 15.8217C121.825 15.8217 123.915 16.9453 123.915 16.9453V7.28029L128.428 7.29141C128.469 7.3327 128.428 15.9059 128.428 33.4667H123.915V30.4708C123.204 31.8024 121.49 33.7168 118.566 33.7168C113.759 33.7168 111 30.0547 111 24.9356ZM119.526 29.888C122.117 29.888 123.915 27.4741 123.915 23.1879V20.8162C123.497 20.5248 122.201 19.5259 120.153 19.5259C117.227 19.5259 115.64 22.0231 115.64 24.9777C115.64 27.7243 116.768 29.888 119.526 29.888Z" fill="#161719"/>
<path d="M140.944 30.0547C143.159 30.0547 144.454 29.2226 145.5 28.4317L147.631 31.6777C145.207 33.342 143.118 33.7589 140.861 33.7589C135.011 33.7589 131.416 30.2636 131.416 24.7284C131.416 19.3186 135.135 15.7399 139.983 15.7399C144.497 15.7399 148.049 18.7358 148.049 23.8962C148.049 24.8117 147.965 25.8106 147.965 25.8106H135.929C136.013 28.6398 138.228 30.0547 140.944 30.0547ZM136.097 22.4392H144.037C143.787 20.2754 142.199 19.1098 140.109 19.1098C138.186 19.1098 136.682 20.3167 136.097 22.4392Z" fill="#161719"/>
<path d="M171.72 23.4794C171.72 20.9408 170.8 19.5259 168.878 19.5259C166.37 19.5259 165.952 21.773 165.952 25.3938V33.4667H161.396V23.1879C161.396 20.6081 160.393 19.5259 158.513 19.5259C156.214 19.5259 155.671 21.1902 155.671 25.3938V33.4667H151.115V16.0718H155.629V18.3602C156.423 17.0286 157.719 15.9884 159.557 15.7804C161.814 15.6137 163.862 16.6546 164.949 18.7763C165.784 17.2367 167.457 15.7383 170.006 15.7383C173.684 15.7383 176.317 17.8608 176.317 23.1871V33.4659H171.72V23.4794Z" fill="#161719"/>
<path d="M184.174 30.096L176.986 16.0718H182.126L186.555 25.5597L190.985 16.0718H196L183.922 40L179.2 39.2091L184.174 30.096Z" fill="#161719"/>
</g>
</g>
</svg>
