<svg width="116" height="116" viewBox="0 0 116 116" fill="none" xmlns="http://www.w3.org/2000/svg">
<g id="Vector">
<path d="M86.5094 42.087H87.3768V74.1158C87.088 74.501 86.4375 75.2428 85.1129 76.26C83.36 77.604 81.0811 78.9195 78.5231 80.0631C72.2842 82.8514 64.958 84.3874 57.8959 84.3874C50.838 84.3874 43.5354 82.8573 37.3342 80.0798C34.7933 78.9421 32.5327 77.6339 30.7948 76.2946C29.5807 75.3584 28.8937 74.6095 28.5706 74.185L28.5717 74.1289V42.087H29.4906L23.2045 38.5951V74.0418C23.2045 74.0418 23.1884 74.6823 23.1884 74.9899C23.1884 80.2873 38.6502 90.3502 57.8959 90.3502C77.1426 90.3502 92.744 80.2516 92.744 74.9542V38.6237L86.5094 42.087Z" fill="white"/>
<path d="M58 0L0 32.3723L58 64.5907L116 32.3723L58 0ZM86.5094 42.087L58 57.9243L29.4906 42.087L23.2045 38.5951L11.9785 32.3592L58 6.67362L104.021 32.3592L92.744 38.6237L86.5094 42.087Z" fill="white"/>
<path d="M14.1103 96.2022H8.74315V82.4113H14.1103V96.2022ZM14.1103 76.4484H8.74315V59.7525H14.1103V76.4484ZM14.1103 53.7896H8.74315V37.0937H14.1103V53.7896Z" fill="white"/>
<path d="M11.6618 98.4609C13.0079 100.129 14.4023 101.678 15.9041 103.174C14.4023 104.669 13.0079 106.219 11.6618 107.887C10.3157 106.219 8.92134 104.669 7.4196 103.174C8.92134 101.678 10.3157 100.129 11.6618 98.4609ZM11.6618 90.3502C11.0983 90.3502 10.5347 90.6233 10.1526 91.1683C7.34232 95.1742 4.46013 98.3762 0.854457 101.498C-0.127739 102.349 -0.127739 104.002 0.854457 104.852C4.46013 107.974 7.34232 111.176 10.1526 115.182C10.5347 115.727 11.0983 116 11.6618 116C12.2254 116 12.7889 115.727 13.1711 115.182C15.9813 111.176 18.8635 107.974 22.4692 104.852C23.4514 104.002 23.4514 102.349 22.4692 101.498C18.8635 98.3762 15.9813 95.1742 13.1711 91.1683C12.7879 90.6221 12.2254 90.3502 11.6618 90.3502Z" fill="white"/>
</g>
</svg>
