<svg width="116" height="117" viewBox="0 0 116 117" fill="none" xmlns="http://www.w3.org/2000/svg">
<g id="Vector">
<path d="M98.5353 81.845C98.5353 75.4291 93.3401 70.2266 86.9307 70.2266C80.5223 70.2266 75.326 75.4291 75.326 81.845C75.326 88.2621 80.5223 93.4635 86.9307 93.4635C93.3401 93.4635 98.5353 88.2621 98.5353 81.845ZM80.6985 81.845C80.6985 78.4047 83.4944 75.6055 86.9307 75.6055C90.3669 75.6055 93.1628 78.4047 93.1628 81.845C93.1628 85.2854 90.3669 88.0845 86.9307 88.0845C83.4944 88.0845 80.6985 85.2854 80.6985 81.845Z" fill="white"/>
<path d="M40.6163 81.845C40.6163 75.4291 35.42 70.2266 29.0116 70.2266C22.6022 70.2266 17.407 75.4291 17.407 81.845C17.407 88.2621 22.6022 93.4635 29.0116 93.4635C35.42 93.4635 40.6163 88.2621 40.6163 81.845ZM22.7795 81.845C22.7795 78.4047 25.5754 75.6055 29.0116 75.6055C32.4479 75.6055 35.2438 78.4047 35.2438 81.845C35.2438 85.2854 32.4479 88.0845 29.0116 88.0845C25.5754 88.0845 22.7795 85.2854 22.7795 81.845Z" fill="white"/>
<path d="M110.604 99.5653H100.148C99.9214 99.2996 99.685 99.0403 99.4401 98.7864C96.2251 95.4558 91.9239 93.571 87.3282 93.4774C87.0639 93.4721 86.7974 93.4721 86.5342 93.4774C81.9385 93.571 77.6362 95.4558 74.4213 98.7864C74.1763 99.0403 73.9399 99.2996 73.7132 99.5653H42.2291C42.0024 99.2996 41.766 99.0403 41.521 98.7864C38.3061 95.4558 34.0038 93.571 29.4081 93.4774C29.1449 93.4721 28.8784 93.4721 28.6141 93.4774C24.0184 93.571 19.7172 95.4558 16.5022 98.7864C16.2573 99.0403 16.0209 99.2996 15.7931 99.5653H5.37252V81.7073H0V104.944H18.5438C19.0424 104.075 19.6527 103.263 20.3651 102.525C21.6609 101.182 23.2093 100.181 24.9038 99.5653C26.1158 99.1242 27.402 98.8822 28.7226 98.8553C28.9149 98.852 29.1073 98.852 29.2996 98.8553C30.6202 98.8822 31.9063 99.1242 33.1184 99.5653C34.8129 100.18 36.3623 101.182 37.6582 102.525C38.3706 103.263 38.9798 104.075 39.4784 104.944H76.4639C76.9625 104.075 77.5717 103.263 78.2841 102.525C79.58 101.182 81.1294 100.181 82.8239 99.5653C84.0349 99.1242 85.3221 98.8822 86.6427 98.8553C86.834 98.852 87.0274 98.852 87.2197 98.8553C88.5403 98.8822 89.8275 99.1242 91.0385 99.5653C92.733 100.181 94.2814 101.182 95.5772 102.525C96.2896 103.263 96.8988 104.075 97.3985 104.944H115.977V81.7073H110.604V99.5653Z" fill="white"/>
<path d="M0 46.9908V70.2266H5.37252V52.3697H110.604V70.2266H115.977V46.9908H0Z" fill="white"/>
<path d="M29.0116 23.8228C35.42 23.8228 40.6163 18.6203 40.6163 12.2044C40.6163 5.78734 35.42 0.585938 29.0116 0.585938C22.6022 0.585938 17.407 5.78734 17.407 12.2044C17.407 18.6203 22.6022 23.8228 29.0116 23.8228ZM29.0116 5.96484C32.4479 5.96484 35.2438 8.76402 35.2438 12.2044C35.2438 15.6447 32.4479 18.4439 29.0116 18.4439C25.5754 18.4439 22.7795 15.6447 22.7795 12.2044C22.7795 8.76402 25.5754 5.96484 29.0116 5.96484Z" fill="white"/>
<path d="M29.4081 23.8368C29.1438 23.8314 28.8773 23.8314 28.6141 23.8368C24.0184 23.9293 19.7161 25.8151 16.5012 29.1447C13.3056 32.4559 11.5445 36.8161 11.5445 41.4226V46.9209H16.917V41.4226C16.917 38.2178 18.1409 35.1852 20.364 32.883C22.5861 30.5809 25.5539 29.2781 28.7215 29.2146C28.9138 29.2103 29.1062 29.2103 29.2985 29.2146C32.4662 29.2781 35.4339 30.5819 37.656 32.883C39.8792 35.1852 41.103 38.2178 41.103 41.4226V46.9209H46.4756V41.4226C46.4756 36.8161 44.7155 32.4559 41.5189 29.1447C38.3061 25.8141 34.0038 23.9293 29.4081 23.8368Z" fill="white"/>
<path d="M86.9307 23.8228C93.3401 23.8228 98.5353 18.6203 98.5353 12.2044C98.5353 5.78734 93.3401 0.585938 86.9307 0.585938C80.5223 0.585938 75.326 5.78734 75.326 12.2044C75.326 18.6203 80.5223 23.8228 86.9307 23.8228ZM86.9307 5.96484C90.3669 5.96484 93.1628 8.76402 93.1628 12.2044C93.1628 15.6447 90.3669 18.4439 86.9307 18.4439C83.4944 18.4439 80.6985 15.6447 80.6985 12.2044C80.6985 8.76402 83.4944 5.96484 86.9307 5.96484Z" fill="white"/>
<path d="M99.4401 29.1447C96.2251 25.8141 91.9239 23.9293 87.3282 23.8368C87.0639 23.8314 86.7974 23.8314 86.5342 23.8368C81.9385 23.9293 77.6362 25.8151 74.4213 29.1447C71.2257 32.4559 69.4646 36.8161 69.4646 41.4226V46.9209H74.8371V41.4226C74.8371 38.2178 76.061 35.1852 78.2841 32.883C80.5062 30.5809 83.474 29.2781 86.6416 29.2146C86.834 29.2103 87.0263 29.2103 87.2186 29.2146C90.3863 29.2781 93.3541 30.5819 95.5761 32.883C97.7993 35.1852 99.0231 38.2178 99.0231 41.4226V46.9209H104.396V41.4226C104.397 36.8161 102.637 32.4549 99.4401 29.1447Z" fill="white"/>
<path d="M29.0116 93.4635C35.42 93.4635 40.6163 88.2621 40.6163 81.845C40.6163 75.4291 35.42 70.2266 29.0116 70.2266C22.6022 70.2266 17.407 75.4291 17.407 81.845C17.407 88.2621 22.6022 93.4635 29.0116 93.4635ZM29.0116 75.6055C32.4479 75.6055 35.2438 78.4047 35.2438 81.845C35.2438 85.2854 32.4479 88.0845 29.0116 88.0845C25.5754 88.0845 22.7795 85.2854 22.7795 81.845C22.7795 78.4047 25.5754 75.6055 29.0116 75.6055Z" fill="white"/>
<path d="M45.3914 104.944C44.6736 102.992 43.6088 101.172 42.2291 99.5653C42.0024 99.2996 41.766 99.0403 41.521 98.7864C38.3061 95.4558 34.0038 93.571 29.4081 93.4774C29.1449 93.4721 28.8784 93.4721 28.6141 93.4774C24.0184 93.571 19.7172 95.4558 16.5022 98.7864C16.2573 99.0403 16.0209 99.2996 15.7931 99.5653C14.4145 101.172 13.3486 102.992 12.6308 104.944C11.9173 106.881 11.5456 108.946 11.5456 111.064V116.563H16.9181V111.064C16.9181 108.887 17.4833 106.788 18.5438 104.944C19.0424 104.075 19.6527 103.263 20.3651 102.525C21.6609 101.182 23.2093 100.181 24.9038 99.5653C26.1158 99.1242 27.402 98.8822 28.7226 98.8553C28.9149 98.852 29.1073 98.852 29.2996 98.8553C30.6202 98.8822 31.9063 99.1242 33.1184 99.5653C34.8129 100.18 36.3623 101.182 37.6582 102.525C38.3706 103.263 38.9798 104.075 39.4784 104.944C40.5389 106.788 41.1041 108.887 41.1041 111.064V116.563H46.4766V111.064C46.4766 108.946 46.1038 106.881 45.3914 104.944Z" fill="white"/>
<path d="M86.9307 93.4635C93.3401 93.4635 98.5353 88.2621 98.5353 81.845C98.5353 75.4291 93.3401 70.2266 86.9307 70.2266C80.5223 70.2266 75.326 75.4291 75.326 81.845C75.326 88.2621 80.5223 93.4635 86.9307 93.4635ZM86.9307 75.6055C90.3669 75.6055 93.1628 78.4047 93.1628 81.845C93.1628 85.2854 90.3669 88.0845 86.9307 88.0845C83.4944 88.0845 80.6985 85.2854 80.6985 81.845C80.6985 78.4047 83.4944 75.6055 86.9307 75.6055Z" fill="white"/>
<path d="M103.311 104.944C102.594 102.992 101.528 101.172 100.148 99.5653C99.9214 99.2996 99.685 99.0403 99.4401 98.7864C96.2251 95.4558 91.9239 93.571 87.3282 93.4774C87.0639 93.4721 86.7974 93.4721 86.5342 93.4774C81.9385 93.571 77.6362 95.4558 74.4213 98.7864C74.1763 99.0403 73.9399 99.2996 73.7132 99.5653C72.3335 101.172 71.2687 102.992 70.5509 104.944C69.8374 106.881 69.4657 108.946 69.4657 111.064V116.563H74.8382V111.064C74.8382 108.887 75.4034 106.788 76.4639 104.944C76.9625 104.075 77.5717 103.263 78.2841 102.525C79.58 101.182 81.1294 100.181 82.8239 99.5653C84.0349 99.1242 85.3221 98.8822 86.6427 98.8553C86.834 98.852 87.0274 98.852 87.2197 98.8553C88.5403 98.8822 89.8275 99.1242 91.0385 99.5653C92.733 100.181 94.2814 101.182 95.5772 102.525C96.2896 103.263 96.8988 104.075 97.3985 104.944C98.459 106.788 99.0242 108.887 99.0242 111.064V116.563H104.397V111.064C104.397 108.946 104.024 106.881 103.311 104.944Z" fill="white"/>
</g>
</svg>
