<svg width="117" height="116" viewBox="0 0 117 116" fill="none" xmlns="http://www.w3.org/2000/svg">
<g id="Vector">
<path d="M20.5485 49.4479H25.9161V34.8511H43.7367V49.4479H49.1044V34.8511H66.925V49.4479H72.2927V34.8511H90.1122V49.4479H95.4799V34.8511H116.681L57.9707 0L0 34.8511H20.5485V49.4479ZM57.9879 6.25224L97.1234 29.4835H19.345L57.9879 6.25224Z" fill="white"/>
<path d="M25.9161 55.8891H20.5485V71.9921H25.9161V55.8891Z" fill="white"/>
<path d="M95.4799 55.8891H90.1122V71.9921H95.4799V55.8891Z" fill="white"/>
<path d="M49.1044 55.8891H43.7367V71.9921H49.1044V55.8891Z" fill="white"/>
<path d="M72.2927 55.8891H66.925V71.9921H72.2927V55.8891Z" fill="white"/>
<path d="M106.027 92.6532H95.4799V78.4333H90.1122V92.6532H72.2927V78.4333H66.925V92.6532H49.1044V78.4333H43.7367V92.6532H25.9161V78.4333H20.5485V92.6532H9.86682C7.89475 92.6532 6.29519 94.2528 6.29519 96.2249V112.408C6.29519 114.38 7.89475 115.98 9.86682 115.98H106.027C108 115.98 109.599 114.38 109.599 112.408V96.2249C109.599 94.2528 108 92.6532 106.027 92.6532ZM104.231 110.612H11.6628V98.0209H104.231V110.612Z" fill="white"/>
</g>
</svg>
