<svg width="110" height="110" viewBox="0 0 110 110" fill="none" xmlns="http://www.w3.org/2000/svg">
<g id="Vector">
<path d="M100.817 50.2567C100.817 50.2567 100.817 50.2567 100.817 50.2557L100.715 50.0789H100.714L100.68 50.0206L100.661 49.9865C100.66 49.9854 100.66 49.9854 100.66 49.9844L100.655 49.9774C100.652 49.9714 100.648 49.9654 100.645 49.9593L100.642 49.9543C100.64 49.9513 100.639 49.9483 100.637 49.9453C100.635 49.9422 100.633 49.9382 100.631 49.9352L100.629 49.9322C100.626 49.9272 100.624 49.9222 100.62 49.9171L100.615 49.9061C100.614 49.9051 100.613 49.9041 100.612 49.9031L100.61 49.898C100.608 49.896 100.607 49.893 100.606 49.891L100.603 49.887C100.6 49.881 100.597 49.8749 100.593 49.8689L100.59 49.8629C100.588 49.8609 100.587 49.8589 100.586 49.8568L100.576 49.8398C100.576 49.8388 100.575 49.8368 100.574 49.8358L100.543 49.7825V49.7815L100.537 49.7714C100.536 49.7704 100.536 49.7684 100.535 49.7674L100.532 49.7624C100.531 49.7614 100.53 49.7594 100.529 49.7584L100.506 49.7172C100.505 49.7162 100.505 49.7152 100.504 49.7142L100.5 49.7061C100.499 49.7051 100.498 49.7031 100.497 49.7021L100.448 49.6177L100.437 49.5986C100.435 49.5966 100.434 49.5936 100.433 49.5916L100.431 49.5896C100.431 49.5876 100.43 49.5866 100.429 49.5846L100.424 49.5765C100.423 49.5755 100.422 49.5735 100.421 49.5715L100.399 49.5333C100.399 49.5333 100.398 49.5323 100.398 49.5313L100.358 49.462C100.357 49.461 100.357 49.459 100.356 49.458L100.334 49.4208C100.334 49.4198 100.333 49.4188 100.333 49.4178L100.328 49.4088C100.327 49.4077 100.327 49.4077 100.326 49.4067L100.316 49.3887C100.315 49.3867 100.314 49.3856 100.313 49.3836L100.306 49.3706C100.304 49.3676 100.303 49.3656 100.302 49.3635L100.292 49.3475L100.291 49.3455L100.289 49.3414C100.288 49.3394 100.287 49.3374 100.285 49.3354L100.282 49.3294C100.28 49.3264 100.278 49.3234 100.277 49.3203L100.27 49.3083C100.266 49.3033 100.263 49.2982 100.26 49.2932L100.259 49.2922C100.258 49.2892 100.256 49.2862 100.255 49.2842L100.252 49.2791C100.252 49.2791 100.251 49.2781 100.251 49.2771L100.247 49.2701C100.24 49.258 100.233 49.247 100.227 49.2349L100.225 49.2319C100.211 49.2078 100.197 49.1837 100.183 49.1586L100.179 49.1526C100.151 49.1033 100.124 49.0561 100.097 49.0099V49.0089C100.077 48.9737 100.056 48.9386 100.036 48.9044L100.035 48.9034C100.032 48.8984 100.029 48.8933 100.026 48.8873V48.8863C100.023 48.8823 100.02 48.8773 100.017 48.8722L100.014 48.8662C99.9631 48.7778 99.9159 48.6954 99.8717 48.6191L99.8706 48.6171C99.8264 48.5417 99.7873 48.4724 99.7511 48.4101C99.7501 48.4081 99.7491 48.4081 99.7491 48.4061L99.7461 48.402C99.5974 48.1448 99.513 47.9972 99.513 47.9972C99.1111 47.3029 98.3837 46.9141 97.6352 46.9141C97.2675 46.9141 96.8947 47.0075 96.5542 47.2045C96.5542 47.2045 96.5531 47.2045 96.5531 47.2055C96.5511 47.2065 96.5451 47.2105 96.5341 47.2165C96.5069 47.2316 96.4537 47.2627 96.3773 47.3069L96.3753 47.3079C96.315 47.3431 96.2407 47.3853 96.1553 47.4355H96.1533C96.1493 47.4385 96.1442 47.4416 96.1392 47.4446C96.09 47.4727 96.0387 47.5028 95.9835 47.534L95.9805 47.536C95.9734 47.54 95.9664 47.544 95.9604 47.5481L95.9574 47.5491C95.9564 47.5491 95.9564 47.5501 95.9564 47.5501L95.9533 47.5511C95.9363 47.5611 95.9202 47.5712 95.9031 47.5812C95.9021 47.5812 95.9011 47.5822 95.9001 47.5822L95.8971 47.5842C95.7052 47.6947 95.4831 47.8233 95.245 47.961L95.235 47.966C95.1164 48.0353 94.9929 48.1057 94.8683 48.178L94.8622 48.181C94.7999 48.2172 94.7367 48.2534 94.6734 48.2905L94.6633 48.2956C94.6312 48.3146 94.6 48.3327 94.5679 48.3518H94.5669C94.5639 48.3538 94.5608 48.3548 94.5578 48.3568L94.5518 48.3609C94.5468 48.3629 94.5428 48.3659 94.5377 48.3689L94.5347 48.3699C94.5217 48.3779 94.5076 48.386 94.4945 48.394H94.4935C94.4855 48.399 94.4774 48.4041 94.4694 48.4081C94.4533 48.4171 94.4383 48.4262 94.4222 48.4352L94.4192 48.4372C94.4152 48.4392 94.4111 48.4422 94.4071 48.4442L94.3971 48.4503C94.382 48.4583 94.3679 48.4664 94.3539 48.4754H94.3529C94.1318 48.603 93.9118 48.7296 93.7038 48.8501C93.5953 48.9124 93.4908 48.9737 93.3894 49.032L93.3874 49.033C93.3864 49.033 93.3853 49.034 93.3843 49.035L93.3823 49.036C93.3813 49.036 93.3803 49.037 93.3793 49.037L93.3763 49.039C93.2849 49.0923 93.1975 49.1425 93.1151 49.1897L93.1121 49.1917C93.1111 49.1927 93.1101 49.1927 93.1091 49.1937L93.106 49.1958C93.0819 49.2088 93.0588 49.2229 93.0357 49.2359L93.0327 49.238C92.8388 49.3495 92.677 49.4429 92.5635 49.5082C92.4992 49.5454 92.451 49.5735 92.4208 49.5906V49.5916C92.4178 49.5926 92.4148 49.5946 92.4118 49.5956V49.5966C92.3947 49.6057 92.3857 49.6117 92.3847 49.6117C91.3388 48.81 90.2396 48.0735 89.0933 47.4104C87.9469 46.7463 86.7534 46.1545 85.5196 45.6412V40.8287C85.5196 40.8277 85.5196 40.8277 85.5196 40.8277V40.8216C85.5196 40.8216 85.5196 40.8216 85.5196 40.8206V40.8086C85.5196 40.8076 85.5196 40.8076 85.5196 40.8076V40.7945C85.5196 40.7945 85.5196 40.7945 85.5196 40.7935V40.7885C85.5196 40.7875 85.5196 40.7875 85.5196 40.7875V40.7744C85.5196 40.7744 85.5196 40.7744 85.5196 40.7734V40.7674C85.5186 40.7674 85.5186 40.7674 85.5186 40.7674V40.7613C85.5186 40.7603 85.5186 40.7603 85.5186 40.7603V40.7543C85.5186 40.7543 85.5186 40.7543 85.5186 40.7533V40.7413C85.5186 40.7413 85.5176 40.7413 85.5176 40.7402V40.7212C85.5176 40.7212 85.5176 40.7212 85.5176 40.7202C85.5166 40.7181 85.5166 40.7161 85.5166 40.7151C85.5166 40.7141 85.5166 40.7141 85.5166 40.7141V40.7071C85.5166 40.7051 85.5166 40.7031 85.5156 40.7011C85.5156 40.7011 85.5156 40.7011 85.5156 40.7001V40.695C85.5156 40.694 85.5156 40.694 85.5156 40.694V40.687C85.5146 40.685 85.5146 40.683 85.5146 40.681C85.5146 40.681 85.5146 40.681 85.5146 40.68V40.6749C85.5146 40.6739 85.5146 40.6739 85.5146 40.6739C85.5136 40.6719 85.5136 40.6699 85.5136 40.6679V40.6609C85.5136 40.6589 85.5126 40.6569 85.5126 40.6549V40.6478C85.5116 40.6458 85.5116 40.6438 85.5116 40.6418V40.6408C85.5116 40.6388 85.5116 40.6368 85.5105 40.6348V40.6277C85.5105 40.6257 85.5095 40.6237 85.5095 40.6217C85.5095 40.6217 85.5095 40.6217 85.5095 40.6207V40.6157C85.5095 40.6147 85.5095 40.6147 85.5095 40.6147C85.5085 40.6127 85.5085 40.6106 85.5085 40.6086C85.5085 40.6086 85.5085 40.6086 85.5085 40.6076C85.5085 40.6056 85.5075 40.6046 85.5075 40.6026C85.5075 40.6016 85.5075 40.6016 85.5075 40.6016V40.5956C85.5075 40.5956 85.5065 40.5956 85.5065 40.5946V40.5885C85.5055 40.5865 85.5055 40.5845 85.5055 40.5825C85.5055 40.5825 85.5055 40.5825 85.5055 40.5815C85.5055 40.5795 85.5055 40.5775 85.5045 40.5755C85.5045 40.5735 85.5045 40.5715 85.5035 40.5695V40.5624C85.5025 40.5604 85.5025 40.5584 85.5025 40.5564C85.5025 40.5544 85.5015 40.5524 85.5015 40.5504C85.5015 40.5494 85.5015 40.5494 85.5015 40.5494C85.5015 40.5473 85.5005 40.5453 85.5005 40.5433C85.5005 40.5433 85.5005 40.5433 85.5005 40.5423C85.5005 40.5413 85.5005 40.5393 85.4995 40.5373C85.4995 40.5363 85.4995 40.5363 85.4995 40.5363C85.4995 40.5343 85.4995 40.5323 85.4985 40.5303C85.4985 40.5303 85.4985 40.5303 85.4985 40.5293C85.4985 40.5273 85.4985 40.5262 85.4975 40.5242C85.4975 40.5232 85.4975 40.5232 85.4975 40.5232V40.5172C85.4965 40.5172 85.4965 40.5172 85.4965 40.5162V40.5112C85.4965 40.5102 85.4965 40.5102 85.4955 40.5102V40.5041C85.4955 40.5041 85.4955 40.5041 85.4945 40.5041V40.4971C85.4935 40.4951 85.4935 40.4931 85.4935 40.4911H85.4925V40.4851C85.4915 40.483 85.4915 40.481 85.4905 40.479C85.4905 40.478 85.4905 40.478 85.4905 40.478C85.4905 40.476 85.4905 40.474 85.4894 40.472C85.4894 40.47 85.4894 40.468 85.4884 40.466C85.4884 40.466 85.4884 40.466 85.4884 40.465C85.4884 40.463 85.4884 40.4609 85.4874 40.4599C85.4874 40.4589 85.4874 40.4589 85.4874 40.4589C85.4874 40.4569 85.4864 40.4549 85.4864 40.4529C85.4864 40.4529 85.4864 40.4529 85.4864 40.4519C85.4864 40.4509 85.4854 40.4489 85.4854 40.4469V40.4459C85.4844 40.4439 85.4844 40.4419 85.4844 40.4398C85.4844 40.4398 85.4844 40.4398 85.4844 40.4388C85.4834 40.4378 85.4834 40.4358 85.4834 40.4338C85.4834 40.4338 85.4834 40.4328 85.4824 40.4328C85.4824 40.4308 85.4824 40.4288 85.4814 40.4278C85.4814 40.4268 85.4814 40.4268 85.4814 40.4268C85.4814 40.4248 85.4814 40.4228 85.4804 40.4208C85.4804 40.4208 85.4804 40.4208 85.4804 40.4198C85.4804 40.4177 85.4794 40.4167 85.4794 40.4147V40.4137C85.4784 40.4117 85.4784 40.4097 85.4784 40.4077C85.4774 40.4057 85.4774 40.4037 85.4764 40.4017C85.4764 40.3997 85.4764 40.3976 85.4754 40.3956C85.4754 40.3956 85.4754 40.3956 85.4754 40.3946C85.4754 40.3926 85.4744 40.3916 85.4744 40.3896C85.4744 40.3886 85.4744 40.3886 85.4744 40.3886C85.4734 40.3866 85.4734 40.3846 85.4734 40.3826C85.4724 40.3826 85.4724 40.3826 85.4724 40.3826C85.4724 40.3806 85.4724 40.3786 85.4714 40.3765C85.4714 40.3765 85.4714 40.3765 85.4714 40.3755C85.4714 40.3735 85.4704 40.3725 85.4704 40.3705C85.4704 40.3695 85.4704 40.3695 85.4704 40.3695C85.4694 40.3675 85.4694 40.3655 85.4684 40.3645C85.4684 40.3635 85.4684 40.3635 85.4684 40.3625C85.4684 40.3615 85.4673 40.3595 85.4673 40.3575C85.4673 40.3575 85.4673 40.3575 85.4673 40.3565C85.4663 40.3544 85.4663 40.3534 85.4663 40.3514L85.4653 40.3504C85.4653 40.3484 85.4653 40.3464 85.4643 40.3444C85.4633 40.3424 85.4633 40.3404 85.4633 40.3384C85.4633 40.3384 85.4633 40.3384 85.4623 40.3374C85.4623 40.3354 85.4623 40.3344 85.4613 40.3323V40.3313C85.4613 40.3293 85.4603 40.3273 85.4603 40.3263C85.4603 40.3253 85.4603 40.3253 85.4593 40.3253C85.4593 40.3233 85.4593 40.3213 85.4583 40.3193C85.4583 40.3173 85.4573 40.3153 85.4573 40.3133C85.4573 40.3133 85.4573 40.3133 85.4563 40.3122C85.4563 40.3112 85.4563 40.3092 85.4553 40.3072C85.4553 40.3072 85.4553 40.3072 85.4553 40.3062C85.4553 40.3052 85.4543 40.3032 85.4543 40.3012L85.4533 40.3002C85.4533 40.2982 85.4523 40.2962 85.4523 40.2952C85.4523 40.2942 85.4523 40.2942 85.4523 40.2942C85.4513 40.2922 85.4513 40.2901 85.4503 40.2891C85.4503 40.2881 85.4503 40.2881 85.4503 40.2881C85.4503 40.2861 85.4493 40.2841 85.4493 40.2821C85.4493 40.2821 85.4493 40.2821 85.4493 40.2811C85.4483 40.2801 85.4483 40.2781 85.4473 40.2761V40.2751C85.4462 40.2731 85.4463 40.2721 85.4452 40.2701V40.269C85.4452 40.267 85.4442 40.265 85.4442 40.264C85.4442 40.263 85.4442 40.263 85.4432 40.263C85.4432 40.261 85.4432 40.259 85.4422 40.257C85.4422 40.257 85.4422 40.257 85.4422 40.256C85.4412 40.255 85.4412 40.253 85.4402 40.251C85.4402 40.251 85.4402 40.251 85.4402 40.25C85.4402 40.2479 85.4392 40.2469 85.4392 40.2449C85.4382 40.2449 85.4382 40.2449 85.4382 40.2439C85.4382 40.2419 85.4372 40.2409 85.4372 40.2389C85.4372 40.2379 85.4372 40.2379 85.4372 40.2379C85.4362 40.2359 85.4362 40.2339 85.4352 40.2329V40.2319C85.4342 40.2299 85.4342 40.2289 85.4332 40.2268V40.2258C85.4332 40.2238 85.4322 40.2218 85.4322 40.2208C85.4322 40.2198 85.4312 40.2198 85.4312 40.2198C85.4312 40.2178 85.4302 40.2158 85.4302 40.2148C85.4302 40.2138 85.4302 40.2138 85.4292 40.2138C85.4292 40.2118 85.4282 40.2098 85.4282 40.2088C85.4282 40.2078 85.4282 40.2078 85.4282 40.2068C85.4272 40.2057 85.4272 40.2037 85.4262 40.2017C85.4262 40.2017 85.4262 40.2017 85.4262 40.2007C85.4251 40.1997 85.4251 40.1977 85.4241 40.1957V40.1947C85.4231 40.1937 85.4231 40.1917 85.4221 40.1897V40.1887C85.4211 40.1867 85.4211 40.1857 85.4201 40.1836V40.1826C85.4191 40.1806 85.4191 40.1796 85.4181 40.1776V40.1766C85.4181 40.1746 85.4171 40.1726 85.4161 40.1716C85.4161 40.1706 85.4161 40.1706 85.4161 40.1706C85.4161 40.1686 85.4151 40.1666 85.4151 40.1656C85.4141 40.1646 85.4141 40.1646 85.4141 40.1646C85.4141 40.1625 85.4131 40.1605 85.4131 40.1585C85.4121 40.1585 85.4121 40.1585 85.4121 40.1585C85.4121 40.1565 85.4111 40.1545 85.4111 40.1535C85.4101 40.1525 85.4101 40.1525 85.4101 40.1525C85.4101 40.1505 85.4091 40.1485 85.4091 40.1475C85.4091 40.1465 85.4081 40.1465 85.4081 40.1465C85.4081 40.1445 85.4071 40.1435 85.4071 40.1414C85.4071 40.1404 85.4061 40.1404 85.4061 40.1404C85.4061 40.1384 85.4051 40.1364 85.4051 40.1354C85.4041 40.1344 85.4041 40.1344 85.4041 40.1344C85.4041 40.1324 85.403 40.1304 85.403 40.1294C85.402 40.1284 85.402 40.1284 85.402 40.1284C85.402 40.1264 85.401 40.1244 85.4 40.1234C85.4 40.1224 85.4 40.1224 85.4 40.1224C85.4 40.1203 85.399 40.1183 85.398 40.1173C85.398 40.1163 85.398 40.1163 85.398 40.1163C85.397 40.1143 85.397 40.1123 85.396 40.1113C85.396 40.1103 85.396 40.1103 85.396 40.1103C85.395 40.1083 85.395 40.1063 85.394 40.1053C85.394 40.1043 85.394 40.1043 85.394 40.1043C85.393 40.1023 85.392 40.1003 85.392 40.0993C85.392 40.0983 85.392 40.0982 85.392 40.0982C85.391 40.0962 85.39 40.0942 85.39 40.0932C85.39 40.0922 85.389 40.0922 85.389 40.0922C85.389 40.0902 85.388 40.0882 85.388 40.0872C85.387 40.0862 85.387 40.0862 85.387 40.0862C85.386 40.0842 85.386 40.0822 85.385 40.0812C85.385 40.0802 85.385 40.0802 85.385 40.0802C85.384 40.0782 85.384 40.0761 85.383 40.0751V40.0741C85.382 40.0721 85.382 40.0711 85.3809 40.0691V40.0681C85.3799 40.0661 85.3789 40.0651 85.3789 40.0631C85.3789 40.0631 85.3779 40.0631 85.3779 40.0621C85.3779 40.0611 85.3769 40.0591 85.3759 40.0571C85.3759 40.0571 85.3759 40.0571 85.3759 40.056C85.3749 40.055 85.3749 40.053 85.3739 40.051C85.3739 40.051 85.3739 40.051 85.3739 40.05C85.3729 40.049 85.3729 40.047 85.3719 40.046C85.3719 40.045 85.3719 40.045 85.3709 40.044C85.3709 40.043 85.3699 40.041 85.3699 40.04C85.3689 40.039 85.3689 40.039 85.3689 40.038C85.3679 40.037 85.3679 40.035 85.3669 40.0339C85.3669 40.0329 85.3669 40.0329 85.3669 40.0319C85.3659 40.0309 85.3649 40.0289 85.3649 40.0279C85.3649 40.0269 85.3649 40.0269 85.3639 40.0259C85.3639 40.0249 85.3629 40.0229 85.3629 40.0219C85.3619 40.0209 85.3619 40.0209 85.3619 40.0199C85.3608 40.0189 85.3608 40.0169 85.3598 40.0159C85.3598 40.0149 85.3598 40.0149 85.3598 40.0149C85.3588 40.0129 85.3578 40.0118 85.3578 40.0098C85.3568 40.0098 85.3568 40.0088 85.3568 40.0088C85.3558 40.0068 85.3558 40.0058 85.3548 40.0038V40.0028C85.3538 40.0018 85.3528 39.9998 85.3528 39.9978C85.3528 39.9978 85.3528 39.9978 85.3518 39.9968C85.3518 39.9958 85.3508 39.9938 85.3498 39.9918C85.3488 39.9897 85.3488 39.9887 85.3478 39.9867V39.9857C85.3468 39.9837 85.3458 39.9827 85.3448 39.9807V39.9797C85.3438 39.9787 85.3438 39.9767 85.3428 39.9747C85.3428 39.9747 85.3428 39.9747 85.3418 39.9737C85.3418 39.9727 85.3408 39.9707 85.3398 39.9696C85.3398 39.9686 85.3398 39.9686 85.3398 39.9676C85.3387 39.9666 85.3387 39.9646 85.3377 39.9636C85.3377 39.9626 85.3377 39.9626 85.3367 39.9626C85.3367 39.9606 85.3357 39.9596 85.3347 39.9576V39.9566C85.3337 39.9546 85.3337 39.9536 85.3327 39.9516L85.3317 39.9506C85.3317 39.9485 85.3307 39.9475 85.3297 39.9455C85.3297 39.9455 85.3297 39.9455 85.3297 39.9445C85.3287 39.9435 85.3277 39.9415 85.3277 39.9405C85.3267 39.9395 85.3267 39.9395 85.3267 39.9385C85.3257 39.9375 85.3257 39.9355 85.3247 39.9345C85.3247 39.9335 85.3247 39.9335 85.3237 39.9335C85.3237 39.9315 85.3227 39.9305 85.3217 39.9285V39.9274C85.3207 39.9254 85.3197 39.9244 85.3197 39.9224C85.3187 39.9224 85.3186 39.9224 85.3186 39.9214C85.3186 39.9204 85.3176 39.9184 85.3166 39.9174C85.3166 39.9164 85.3166 39.9164 85.3166 39.9164C85.3156 39.9144 85.3146 39.9134 85.3136 39.9114C85.3136 39.9114 85.3136 39.9114 85.3136 39.9104C85.3126 39.9094 85.3116 39.9074 85.3116 39.9064C85.3116 39.9053 85.3106 39.9053 85.3106 39.9043C85.3106 39.9033 85.3096 39.9013 85.3086 39.9003V39.8993C85.3076 39.8973 85.3066 39.8963 85.3056 39.8943V39.8933C85.3046 39.8923 85.3036 39.8903 85.3036 39.8893C85.3026 39.8883 85.3026 39.8883 85.3026 39.8873C85.3016 39.8863 85.3016 39.8842 85.3006 39.8832C85.3006 39.8822 85.2996 39.8822 85.2996 39.8812C85.2986 39.8802 85.2986 39.8792 85.2976 39.8772C85.2976 39.8772 85.2976 39.8762 85.2965 39.8762C85.2965 39.8742 85.2955 39.8732 85.2945 39.8712C85.2945 39.8712 85.2945 39.8712 85.2945 39.8702C85.2935 39.8692 85.2925 39.8672 85.2915 39.8662C85.2915 39.8652 85.2915 39.8652 85.2915 39.8642C85.2905 39.8632 85.2895 39.8621 85.2895 39.8601C85.2885 39.8601 85.2885 39.8591 85.2885 39.8591C85.2875 39.8571 85.2865 39.8561 85.2865 39.8541C85.2855 39.8541 85.2855 39.8541 85.2855 39.8531C85.2845 39.8521 85.2845 39.8501 85.2835 39.8491L85.2825 39.8481C85.2815 39.8461 85.2815 39.8451 85.2805 39.8441C85.2805 39.8431 85.2805 39.8431 85.2795 39.8421C85.2795 39.841 85.2785 39.84 85.2775 39.838C85.2775 39.838 85.2775 39.837 85.2765 39.837C85.2765 39.835 85.2755 39.834 85.2744 39.833C85.2744 39.832 85.2744 39.832 85.2744 39.831C85.2734 39.83 85.2724 39.828 85.2714 39.827V39.826C85.2704 39.824 85.2694 39.823 85.2684 39.821C85.2684 39.821 85.2684 39.821 85.2684 39.82C85.2674 39.8189 85.2664 39.8169 85.2664 39.8159C85.2654 39.8149 85.2654 39.8149 85.2654 39.8139C85.2644 39.8129 85.2634 39.8119 85.2624 39.8099V39.8089C85.2614 39.8079 85.2604 39.8059 85.2604 39.8049C85.2594 39.8039 85.2594 39.8039 85.2594 39.8029C85.2584 39.8019 85.2574 39.8009 85.2564 39.7988V39.7978C85.2554 39.7958 85.2543 39.7948 85.2533 39.7938C85.2533 39.7928 85.2533 39.7928 85.2533 39.7918C85.2523 39.7908 85.2513 39.7888 85.2503 39.7878V39.7868C85.2493 39.7848 85.2483 39.7838 85.2473 39.7828C85.2473 39.7818 85.2473 39.7818 85.2473 39.7808C85.2463 39.7798 85.2453 39.7778 85.2443 39.7767V39.7757C85.2433 39.7747 85.2423 39.7727 85.2413 39.7717C85.2413 39.7707 85.2413 39.7707 85.2413 39.7697C85.2403 39.7687 85.2393 39.7677 85.2383 39.7657C85.2383 39.7657 85.2383 39.7657 85.2383 39.7647C85.2373 39.7637 85.2363 39.7617 85.2353 39.7607V39.7597C85.2343 39.7577 85.2333 39.7567 85.2322 39.7556C85.2322 39.7546 85.2322 39.7546 85.2312 39.7536C85.2312 39.7526 85.2302 39.7516 85.2292 39.7496L85.2282 39.7486C85.2272 39.7466 85.2272 39.7456 85.2262 39.7446C85.2262 39.7436 85.2252 39.7436 85.2252 39.7426C85.2242 39.7416 85.2232 39.7406 85.2232 39.7386C85.2222 39.7386 85.2222 39.7376 85.2222 39.7376C85.2212 39.7366 85.2202 39.7346 85.2192 39.7335C85.2192 39.7325 85.2192 39.7325 85.2192 39.7325C85.2182 39.7305 85.2172 39.7295 85.2162 39.7285C85.2162 39.7275 85.2162 39.7265 85.2152 39.7265C85.2142 39.7255 85.2142 39.7235 85.2132 39.7225L85.2122 39.7215C85.2112 39.7195 85.2101 39.7185 85.2101 39.7175C85.2091 39.7165 85.2091 39.7165 85.2091 39.7155C85.2081 39.7145 85.2071 39.7135 85.2061 39.7114V39.7104C85.2051 39.7094 85.2041 39.7074 85.2031 39.7064C85.2031 39.7064 85.2031 39.7054 85.2021 39.7044C85.2021 39.7034 85.2011 39.7024 85.2001 39.7014C85.2001 39.7004 85.1991 39.7004 85.1991 39.6994C85.1981 39.6984 85.1981 39.6974 85.1971 39.6964C85.1971 39.6954 85.1961 39.6954 85.1961 39.6944C85.1951 39.6934 85.1941 39.6924 85.1931 39.6903C85.1931 39.6903 85.1931 39.6903 85.1931 39.6893C85.1921 39.6883 85.1911 39.6863 85.19 39.6853C85.19 39.6853 85.1901 39.6843 85.189 39.6843C85.189 39.6823 85.188 39.6813 85.187 39.6803C85.187 39.6793 85.186 39.6793 85.186 39.6783C85.185 39.6773 85.184 39.6763 85.184 39.6743C85.183 39.6743 85.183 39.6743 85.183 39.6733C85.182 39.6723 85.181 39.6702 85.18 39.6692C85.18 39.6692 85.18 39.6682 85.179 39.6682C85.178 39.6662 85.178 39.6652 85.177 39.6642C85.176 39.6632 85.176 39.6632 85.176 39.6622L85.173 39.6592C85.173 39.6582 85.173 39.6582 85.172 39.6572C85.172 39.6562 85.171 39.6552 85.17 39.6532L85.169 39.6522C85.1679 39.6502 85.1669 39.6492 85.1659 39.6481C85.1659 39.6471 85.1659 39.6471 85.1659 39.6471C85.1649 39.6451 85.1639 39.6441 85.1629 39.6431C85.1629 39.6421 85.1619 39.6421 85.1619 39.6411C85.1609 39.6401 85.1599 39.6391 85.1599 39.6371C85.1589 39.6371 85.1589 39.6371 85.1589 39.6361C85.1579 39.6351 85.1569 39.6341 85.1559 39.6321C85.1559 39.6321 85.1559 39.6311 85.1549 39.6311C85.1539 39.6301 85.1539 39.6291 85.1529 39.627C85.1519 39.627 85.1519 39.626 85.1519 39.626C85.1509 39.625 85.1499 39.623 85.1489 39.622C85.1489 39.622 85.1489 39.621 85.1479 39.621C85.1469 39.62 85.1468 39.618 85.1458 39.617C85.1448 39.617 85.1448 39.616 85.1448 39.616C85.1438 39.615 85.1428 39.613 85.1418 39.612C85.1418 39.611 85.1418 39.611 85.1408 39.611C85.1398 39.609 85.1398 39.608 85.1388 39.607C85.1378 39.6059 85.1378 39.6059 85.1378 39.6049C85.1368 39.6039 85.1358 39.6029 85.1348 39.6019C85.1348 39.6009 85.1338 39.6009 85.1338 39.5999C85.1328 39.5989 85.1318 39.5979 85.1318 39.5959C85.1308 39.5959 85.1308 39.5949 85.1308 39.5949C85.1298 39.5939 85.1288 39.5929 85.1278 39.5909L85.1268 39.5899C85.1257 39.5889 85.1247 39.5869 85.1237 39.5859C85.1237 39.5859 85.1237 39.5849 85.1227 39.5849C85.1217 39.5828 85.1207 39.5818 85.1207 39.5808C85.1197 39.5798 85.1197 39.5798 85.1197 39.5788C85.1187 39.5778 85.1177 39.5768 85.1167 39.5758C85.1167 39.5748 85.1157 39.5748 85.1157 39.5738C85.1147 39.5728 85.1137 39.5718 85.1127 39.5708C85.1127 39.5698 85.1127 39.5698 85.1117 39.5688C85.1117 39.5678 85.1107 39.5668 85.1097 39.5658C85.1087 39.5648 85.1087 39.5648 85.1087 39.5638C85.1077 39.5627 85.1067 39.5617 85.1057 39.5607C85.1057 39.5597 85.1047 39.5597 85.1047 39.5587C85.1036 39.5577 85.1026 39.5567 85.1026 39.5557C85.1016 39.5547 85.1016 39.5547 85.1006 39.5537C85.1006 39.5527 85.0996 39.5517 85.0986 39.5507L85.0976 39.5497C85.0966 39.5477 85.0956 39.5467 85.0946 39.5457C85.0946 39.5457 85.0946 39.5447 85.0936 39.5447C85.0926 39.5427 85.0916 39.5416 85.0906 39.5406C85.0906 39.5406 85.0906 39.5396 85.0896 39.5396C85.0896 39.5376 85.0886 39.5366 85.0876 39.5356C85.0866 39.5346 85.0866 39.5346 85.0866 39.5336C85.0856 39.5326 85.0846 39.5316 85.0835 39.5306C85.0835 39.5296 85.0826 39.5296 85.0826 39.5286C85.0816 39.5276 85.0805 39.5266 85.0795 39.5256C85.0795 39.5246 85.0785 39.5246 85.0785 39.5236L85.0755 39.5205C85.0755 39.5195 85.0755 39.5195 85.0745 39.5185C85.0735 39.5175 85.0725 39.5165 85.0725 39.5155C85.0715 39.5145 85.0715 39.5145 85.0705 39.5135C85.0695 39.5125 85.0695 39.5115 85.0685 39.5105C85.0675 39.5095 85.0675 39.5095 85.0665 39.5085C85.0665 39.5075 85.0655 39.5065 85.0645 39.5055C85.0635 39.5055 85.0635 39.5045 85.0635 39.5035C85.0625 39.5025 85.0614 39.5015 85.0604 39.5005L85.0594 39.4995C85.0584 39.4984 85.0574 39.4964 85.0564 39.4964C85.0564 39.4954 85.0554 39.4944 85.0554 39.4944C85.0544 39.4934 85.0534 39.4924 85.0534 39.4914C85.0524 39.4904 85.0524 39.4894 85.0514 39.4894C85.0504 39.4884 85.0494 39.4874 85.0494 39.4864C85.0484 39.4854 85.0484 39.4854 85.0474 39.4844C85.0474 39.4834 85.0464 39.4824 85.0454 39.4814C85.0444 39.4804 85.0444 39.4804 85.0444 39.4794C85.0434 39.4784 85.0424 39.4773 85.0414 39.4763C85.0404 39.4753 85.0404 39.4753 85.0404 39.4753C85.0393 39.4733 85.0383 39.4723 85.0373 39.4713L85.0363 39.4703C85.0353 39.4683 85.0343 39.4673 85.0333 39.4663L85.0323 39.4653C85.0313 39.4643 85.0303 39.4633 85.0293 39.4613L85.0283 39.4603C85.0273 39.4593 85.0263 39.4583 85.0253 39.4562L85.0213 39.4522C85.0213 39.4512 85.0203 39.4512 85.0203 39.4502C85.0192 39.4492 85.0182 39.4482 85.0172 39.4472C85.0172 39.4462 85.0162 39.4462 85.0162 39.4452C85.0152 39.4442 85.0142 39.4432 85.0132 39.4422C85.0122 39.4422 85.0122 39.4412 85.0122 39.4412C85.0112 39.4392 85.0102 39.4382 85.0092 39.4372L85.0082 39.4362C85.0072 39.4352 85.0062 39.4341 85.0052 39.4331C85.0052 39.4321 85.0042 39.4321 85.0042 39.4311L85.0012 39.4281C85.0012 39.4281 85.0002 39.4271 85.0002 39.4261C84.9992 39.4251 84.9982 39.4251 84.9971 39.4241C84.9971 39.4231 84.9961 39.4221 84.9951 39.4221C84.9951 39.4211 84.9941 39.4201 84.9931 39.4191C84.9931 39.4181 84.9921 39.4181 84.9921 39.4171L84.9891 39.4141C84.9891 39.4141 84.9881 39.413 84.9881 39.412L84.9851 39.409C84.9841 39.409 84.9841 39.408 84.9841 39.408C84.9831 39.407 84.9821 39.406 84.9811 39.405C84.9801 39.404 84.9801 39.404 84.9791 39.403C84.9781 39.402 84.9781 39.401 84.9771 39.4C84.9761 39.399 84.9761 39.399 84.9751 39.398C84.974 39.397 84.973 39.396 84.972 39.395L84.971 39.394C84.97 39.393 84.969 39.3909 84.968 39.3899L84.967 39.3889C84.966 39.3879 84.965 39.3869 84.964 39.3859C84.963 39.3849 84.963 39.3849 84.963 39.3839C84.962 39.3829 84.961 39.3819 84.96 39.3809C84.959 39.3809 84.959 39.3799 84.958 39.3799C84.958 39.3789 84.957 39.3779 84.956 39.3769C84.955 39.3759 84.955 39.3759 84.9539 39.3749C84.9529 39.3739 84.9529 39.3729 84.9519 39.3719C84.9509 39.3719 84.9509 39.3708 84.9499 39.3698C84.9489 39.3688 84.9479 39.3688 84.9479 39.3678C84.9469 39.3668 84.9459 39.3658 84.9459 39.3658C84.9449 39.3648 84.9439 39.3638 84.9429 39.3628C84.9429 39.3628 84.9419 39.3618 84.9419 39.3608C84.9409 39.3598 84.9399 39.3598 84.9389 39.3588C84.9389 39.3578 84.9379 39.3568 84.9369 39.3568C84.9369 39.3558 84.9359 39.3548 84.9349 39.3538C84.9339 39.3538 84.9339 39.3528 84.9328 39.3518C84.9318 39.3508 84.9308 39.3498 84.9308 39.3498C84.9298 39.3487 84.9298 39.3477 84.9288 39.3477C84.9278 39.3467 84.9268 39.3457 84.9258 39.3447C84.9258 39.3437 84.9248 39.3437 84.9248 39.3427L84.9218 39.3397C84.9208 39.3397 84.9208 39.3387 84.9198 39.3387L84.9168 39.3357C84.9168 39.3347 84.9158 39.3347 84.9158 39.3337C84.9148 39.3327 84.9138 39.3317 84.9128 39.3307L84.9087 39.3266C84.9077 39.3256 84.9077 39.3256 84.9067 39.3246L84.9027 39.3206C84.9017 39.3196 84.9007 39.3186 84.8997 39.3176C84.8997 39.3166 84.8987 39.3166 84.8987 39.3156C84.8977 39.3146 84.8967 39.3146 84.8957 39.3136C84.8947 39.3126 84.8947 39.3116 84.8937 39.3116C84.8927 39.3106 84.8917 39.3096 84.8917 39.3086C84.8907 39.3086 84.8896 39.3076 84.8896 39.3076C84.8886 39.3065 84.8876 39.3055 84.8866 39.3045C84.8866 39.3035 84.8856 39.3035 84.8856 39.3025C84.8846 39.3015 84.8836 39.3005 84.8826 39.2995C84.8816 39.2995 84.8816 39.2995 84.8816 39.2985C84.8796 39.2975 84.8786 39.2965 84.8776 39.2955C84.8776 39.2955 84.8776 39.2945 84.8766 39.2945C84.8756 39.2935 84.8746 39.2925 84.8736 39.2915C84.8726 39.2905 84.8726 39.2905 84.8726 39.2895C84.8716 39.2885 84.8696 39.2875 84.8686 39.2865C84.8686 39.2865 84.8686 39.2854 84.8675 39.2854L84.8645 39.2824C84.8635 39.2814 84.8635 39.2814 84.8625 39.2804C84.8625 39.2804 84.8605 39.2794 84.8605 39.2784C84.8595 39.2774 84.8585 39.2774 84.8585 39.2764C84.8575 39.2754 84.8565 39.2744 84.8555 39.2734C84.8545 39.2734 84.8545 39.2724 84.8535 39.2724C84.8525 39.2714 84.8515 39.2704 84.8505 39.2694C84.8505 39.2684 84.8495 39.2684 84.8495 39.2674L84.8464 39.2644C84.8454 39.2644 84.8454 39.2644 84.8444 39.2633C84.8434 39.2623 84.8434 39.2613 84.8424 39.2603C84.8414 39.2603 84.8404 39.2593 84.8404 39.2593L84.8374 39.2563C84.8374 39.2563 84.8364 39.2553 84.8354 39.2543C84.8344 39.2543 84.8344 39.2533 84.8334 39.2523C84.8324 39.2513 84.8314 39.2513 84.8314 39.2503C84.8304 39.2493 84.8294 39.2493 84.8284 39.2483C84.8274 39.2473 84.8274 39.2473 84.8263 39.2463C84.8253 39.2453 84.8243 39.2443 84.8243 39.2443C84.8233 39.2433 84.8223 39.2422 84.8213 39.2422C84.8213 39.2412 84.8203 39.2402 84.8193 39.2392C84.8183 39.2392 84.8183 39.2382 84.8173 39.2382C84.8163 39.2372 84.8153 39.2362 84.8143 39.2352L84.8133 39.2342C84.8123 39.2332 84.8113 39.2322 84.8103 39.2312C84.8093 39.2302 84.8093 39.2302 84.8083 39.2292C84.8073 39.2282 84.8063 39.2282 84.8053 39.2272C84.8043 39.2262 84.8042 39.2262 84.8032 39.2252L84.8002 39.2222L84.7992 39.2211C84.7982 39.2201 84.7972 39.2191 84.7962 39.2181C84.7952 39.2181 84.7942 39.2171 84.7942 39.2171C84.7932 39.2161 84.7922 39.2151 84.7912 39.2141C84.7902 39.2131 84.7902 39.2131 84.7892 39.2121C84.7882 39.2121 84.7882 39.2111 84.7872 39.2111L84.7842 39.2081C84.7842 39.2081 84.7831 39.2071 84.7821 39.2061C84.7811 39.2061 84.7811 39.2051 84.7801 39.2041C84.7791 39.2031 84.7781 39.2031 84.7771 39.2021C84.7771 39.2011 84.7761 39.2011 84.7751 39.2001C84.7741 39.199 84.7731 39.199 84.7731 39.198C84.7721 39.197 84.7711 39.197 84.7701 39.196C84.7701 39.195 84.7691 39.195 84.7681 39.194C84.7671 39.193 84.7661 39.193 84.7661 39.192C84.7651 39.191 84.7641 39.191 84.7631 39.19C84.762 39.189 84.7621 39.189 84.761 39.188C84.76 39.187 84.759 39.187 84.759 39.186C84.758 39.185 84.757 39.185 84.756 39.184C84.755 39.183 84.755 39.182 84.754 39.182C84.753 39.181 84.753 39.181 84.752 39.18C84.751 39.179 84.75 39.179 84.749 39.1779C84.748 39.1769 84.748 39.1769 84.747 39.1759C84.746 39.1749 84.745 39.1739 84.744 39.1739C84.744 39.1729 84.743 39.1729 84.742 39.1719C84.741 39.1709 84.7399 39.1699 84.7389 39.1699C84.7389 39.1689 84.7379 39.1689 84.7369 39.1679C84.7359 39.1669 84.7349 39.1659 84.7339 39.1659C84.7339 39.1649 84.7329 39.1649 84.7329 39.1639C84.7319 39.1629 84.7309 39.1619 84.7289 39.1619C84.7289 39.1609 84.7279 39.1599 84.7279 39.1599C84.7269 39.1589 84.7259 39.1589 84.7249 39.1579C84.7239 39.1569 84.7229 39.1568 84.7229 39.1558C84.7219 39.1548 84.7209 39.1548 84.7198 39.1538C84.7188 39.1528 84.7188 39.1528 84.7178 39.1518C84.7168 39.1508 84.7158 39.1508 84.7148 39.1498C84.7148 39.1488 84.7138 39.1488 84.7128 39.1478C84.7118 39.1468 84.7118 39.1468 84.7108 39.1458C84.7098 39.1458 84.7088 39.1448 84.7078 39.1438C84.7068 39.1428 84.7068 39.1428 84.7058 39.1418C84.7048 39.1418 84.7038 39.1408 84.7028 39.1398C84.7018 39.1398 84.7018 39.1388 84.7008 39.1378C84.6998 39.1378 84.6988 39.1368 84.6978 39.1358C84.6967 39.1358 84.6967 39.1347 84.6957 39.1347C84.6947 39.1337 84.6937 39.1327 84.6937 39.1327C84.6927 39.1317 84.6917 39.1307 84.6907 39.1307C84.6897 39.1297 84.6887 39.1287 84.6887 39.1287C84.6877 39.1277 84.6867 39.1267 84.6857 39.1267C84.6847 39.1257 84.6847 39.1257 84.6837 39.1247C84.6827 39.1237 84.6817 39.1237 84.6807 39.1227C84.6797 39.1217 84.6797 39.1217 84.6787 39.1207C84.6777 39.1207 84.6767 39.1197 84.6756 39.1187C84.6746 39.1177 84.6746 39.1177 84.6736 39.1167C84.6726 39.1167 84.6716 39.1157 84.6706 39.1147C84.6696 39.1147 84.6696 39.1137 84.6686 39.1137C84.6676 39.1126 84.6666 39.1116 84.6656 39.1106C84.6646 39.1106 84.6646 39.1096 84.6636 39.1096C84.6626 39.1086 84.6616 39.1076 84.6606 39.1076C84.6596 39.1066 84.6596 39.1056 84.6586 39.1056C84.6576 39.1046 84.6566 39.1046 84.6566 39.1036C84.6555 39.1026 84.6545 39.1026 84.6535 39.1016C84.6525 39.1016 84.6515 39.1006 84.6515 39.0996C84.6505 39.0996 84.6495 39.0986 84.6485 39.0976C84.6475 39.0976 84.6465 39.0966 84.6465 39.0966C84.6455 39.0956 84.6445 39.0946 84.6435 39.0946C84.6425 39.0936 84.6415 39.0936 84.6415 39.0925C84.6405 39.0915 84.6395 39.0915 84.6385 39.0905C84.6375 39.0895 84.6365 39.0895 84.6365 39.0885C84.6355 39.0885 84.6345 39.0875 84.6324 39.0865L84.6314 39.0855C84.6304 39.0845 84.6294 39.0835 84.6274 39.0825L84.6264 39.0815C84.6254 39.0805 84.6244 39.0805 84.6234 39.0795C84.6224 39.0785 84.6214 39.0785 84.6204 39.0775C84.6204 39.0775 84.6194 39.0765 84.6184 39.0765C84.6174 39.0755 84.6164 39.0745 84.6154 39.0735C84.6154 39.0735 84.6144 39.0725 84.6134 39.0725C84.6124 39.0715 84.6114 39.0714 84.6103 39.0704C84.6093 39.0694 84.6093 39.0694 84.6083 39.0684C84.6073 39.0684 84.6063 39.0674 84.6053 39.0664C84.6043 39.0664 84.6043 39.0654 84.6033 39.0654L84.6003 39.0624C84.5993 39.0624 84.5983 39.0614 84.5983 39.0614C84.5973 39.0604 84.5963 39.0604 84.5953 39.0594C84.5943 39.0584 84.5933 39.0584 84.5923 39.0574C84.5923 39.0574 84.5913 39.0564 84.5902 39.0564C84.5892 39.0554 84.5882 39.0544 84.5872 39.0544C84.5862 39.0534 84.5862 39.0534 84.5852 39.0524C84.5842 39.0514 84.5832 39.0514 84.5822 39.0504C84.5812 39.0504 84.5802 39.0493 84.5802 39.0493C84.5792 39.0483 84.5782 39.0473 84.5772 39.0473C84.5762 39.0463 84.5752 39.0463 84.5752 39.0453C84.5742 39.0443 84.5732 39.0443 84.5722 39.0433C84.5712 39.0433 84.5702 39.0423 84.5691 39.0413C84.5681 39.0413 84.5681 39.0403 84.5671 39.0403C84.5661 39.0393 84.5651 39.0383 84.5641 39.0383C84.5631 39.0373 84.5621 39.0373 84.5611 39.0363C84.5611 39.0363 84.5601 39.0353 84.5591 39.0343C84.5581 39.0343 84.5571 39.0333 84.5561 39.0333C84.5551 39.0323 84.5551 39.0313 84.5541 39.0313C84.5531 39.0303 84.5521 39.0303 84.5511 39.0293C84.5501 39.0282 84.549 39.0283 84.549 39.0283C84.548 39.0272 84.5471 39.0262 84.546 39.0252C84.545 39.0252 84.544 39.0242 84.543 39.0242C84.542 39.0232 84.542 39.0232 84.541 39.0222C84.54 39.0222 84.539 39.0212 84.538 39.0212C84.537 39.0202 84.536 39.0192 84.536 39.0192C84.535 39.0182 84.534 39.0182 84.533 39.0172C84.532 39.0172 84.531 39.0162 84.53 39.0162C84.53 39.0152 84.529 39.0152 84.528 39.0142C84.527 39.0132 84.5259 39.0132 84.5249 39.0122C84.5239 39.0122 84.5229 39.0112 84.5229 39.0112C84.5219 39.0102 84.5209 39.0092 84.5199 39.0092C84.5189 39.0082 84.5179 39.0082 84.5179 39.0072C84.5169 39.0072 84.5149 39.0061 84.5139 39.0051C84.5139 39.0051 84.5129 39.0041 84.5119 39.0041C84.5109 39.0031 84.5099 39.0031 84.5089 39.0021C84.5079 39.0011 84.5079 39.0011 84.5069 39.0011C84.5059 39.0001 84.5049 38.9991 84.5028 38.9981C84.5028 38.9981 84.5018 38.9981 84.5018 38.9971C84.5008 38.9971 84.4988 38.9961 84.4978 38.9951C84.4978 38.9951 84.4968 38.9941 84.4958 38.9941C84.4948 38.9931 84.4938 38.9921 84.4928 38.9921C84.4918 38.9911 84.4908 38.9911 84.4908 38.9911C84.4898 38.9901 84.4888 38.9891 84.4868 38.9891C84.4868 38.9881 84.4858 38.9881 84.4858 38.9871C84.4838 38.9871 84.4827 38.9861 84.4817 38.9851C84.4807 38.9851 84.4807 38.984 84.4797 38.984C84.4787 38.983 84.4777 38.983 84.4777 38.983C84.4767 38.982 84.4757 38.981 84.4747 38.981C84.4737 38.98 84.4727 38.98 84.4717 38.979C84.4707 38.979 84.4697 38.978 84.4687 38.977C84.4677 38.977 84.4667 38.976 84.4667 38.976C84.4657 38.976 84.4657 38.975 84.4647 38.975C84.4637 38.974 84.4616 38.973 84.4606 38.973C84.4606 38.972 84.4596 38.972 84.4596 38.972C84.4576 38.971 84.4566 38.97 84.4556 38.969C84.4546 38.969 84.4546 38.969 84.4536 38.968C84.4526 38.968 84.4506 38.967 84.4496 38.966L84.4486 38.965C84.4466 38.9639 84.4456 38.964 84.4446 38.9629C84.4436 38.9629 84.4436 38.9619 84.4426 38.9619C84.4416 38.9609 84.4395 38.9599 84.4385 38.9599C84.4385 38.9589 84.4375 38.9589 84.4375 38.9589C84.4355 38.9579 84.4345 38.9569 84.4335 38.9569C84.4325 38.9559 84.4325 38.9559 84.4315 38.9549C84.4305 38.9549 84.4285 38.9539 84.4275 38.9529C84.4275 38.9529 84.4265 38.9529 84.4255 38.9519C84.4245 38.9519 84.4235 38.9509 84.4225 38.9499C84.4215 38.9499 84.4215 38.9499 84.4205 38.9489C84.4194 38.9479 84.4174 38.9479 84.4164 38.9469C84.4154 38.9469 84.4154 38.9459 84.4144 38.9459C84.4134 38.9449 84.4124 38.9449 84.4114 38.9439C84.4104 38.9439 84.4094 38.9429 84.4094 38.9429C84.4084 38.9418 84.4064 38.9418 84.4054 38.9408C84.4044 38.9408 84.4044 38.9398 84.4034 38.9398C84.4024 38.9388 84.4014 38.9388 84.4004 38.9378C84.3994 38.9378 84.3983 38.9368 84.3983 38.9368C84.3973 38.9358 84.3963 38.9358 84.3953 38.9348C84.3943 38.9348 84.3933 38.9338 84.3923 38.9338C84.3913 38.9328 84.3903 38.9328 84.3893 38.9318C84.3883 38.9318 84.3873 38.9308 84.3863 38.9308C84.3863 38.9298 84.3853 38.9298 84.3843 38.9288C84.3833 38.9288 84.3833 38.9288 84.3823 38.9278C84.3813 38.9278 84.3793 38.9268 84.3783 38.9258C84.3783 38.9258 84.3773 38.9258 84.3773 38.9248C84.3752 38.9248 84.3742 38.9238 84.3722 38.9228C84.3722 38.9228 84.3722 38.9228 84.3712 38.9218C84.3702 38.9218 84.3682 38.9207 84.3672 38.9197C84.3662 38.9197 84.3662 38.9197 84.3652 38.9187C84.3642 38.9187 84.3632 38.9177 84.3612 38.9167C84.3612 38.9167 84.3602 38.9167 84.3602 38.9157C84.3582 38.9157 84.3572 38.9147 84.3562 38.9137C84.3551 38.9137 84.3552 38.9137 84.3541 38.9127C84.3531 38.9127 84.3511 38.9117 84.3501 38.9107C84.3491 38.9107 84.3491 38.9107 84.3481 38.9097C84.3471 38.9097 84.3461 38.9087 84.3441 38.9077H84.3431C84.3411 38.9067 84.3401 38.9057 84.3391 38.9047C84.3381 38.9047 84.3381 38.9047 84.3371 38.9047C84.3351 38.9037 84.333 38.9027 84.332 38.9017C84.332 38.9017 84.332 38.9017 84.331 38.9017C84.327 38.8986 84.322 38.8966 84.317 38.8946C84.317 38.8936 84.317 38.8936 84.316 38.8936C84.315 38.8926 84.313 38.8916 84.3109 38.8916C84.3109 38.8916 84.3109 38.8916 84.3109 38.8906C84.3089 38.8906 84.3069 38.8896 84.3049 38.8886C84.3049 38.8886 84.3049 38.8886 84.3049 38.8876C84.3029 38.8876 84.3009 38.8866 84.2999 38.8856C84.2989 38.8856 84.2989 38.8856 84.2989 38.8856C84.2969 38.8846 84.2959 38.8836 84.2939 38.8826H84.2929C84.2908 38.8816 84.2888 38.8806 84.2878 38.8796H84.2868C84.2848 38.8785 84.2838 38.8775 84.2818 38.8775C84.2818 38.8765 84.2818 38.8765 84.2808 38.8765C84.2798 38.8755 84.2778 38.8755 84.2758 38.8745C84.2758 38.8745 84.2758 38.8745 84.2748 38.8735C84.2738 38.8735 84.2718 38.8725 84.2708 38.8715C84.2698 38.8715 84.2698 38.8715 84.2687 38.8715C84.2677 38.8705 84.2657 38.8695 84.2637 38.8685C84.2617 38.8675 84.2597 38.8665 84.2577 38.8655C84.2466 38.8605 84.2356 38.8554 84.2245 38.8514V38.8504C84.2225 38.8504 84.2205 38.8494 84.2185 38.8484C84.2165 38.8474 84.2145 38.8464 84.2125 38.8454C84.2105 38.8444 84.2085 38.8444 84.2065 38.8434C84.2044 38.8424 84.2024 38.8414 84.2004 38.8404C84.1984 38.8394 84.1964 38.8384 84.1944 38.8384C84.1944 38.8384 84.1944 38.8384 84.1944 38.8374C84.1813 38.8323 84.1683 38.8273 84.1542 38.8213C84.1522 38.8213 84.1502 38.8203 84.1482 38.8193C84.1462 38.8183 84.1442 38.8173 84.1422 38.8173C84.1401 38.8163 84.1381 38.8153 84.1361 38.8143C84.1341 38.8132 84.1321 38.8132 84.1301 38.8122C84.1281 38.8112 84.1261 38.8102 84.1241 38.8102C84.1241 38.8092 84.1241 38.8092 84.1241 38.8092C83.9241 38.7339 83.7111 38.6867 83.4891 38.6736L83.3545 38.6686H71.7432V43.692H80.4961V48.9928L83.5906 50.2798C85.6331 51.1288 87.5631 52.246 89.3284 53.5983L91.9908 55.6399L96.5913 52.9835L100.622 59.9671L104.972 57.4553L100.817 50.2567Z" fill="white"/>
<path d="M45.1731 82.6712H44.4396L44.6225 82.9887L45.1731 82.6712Z" fill="white"/>
<path d="M108.629 80.5312C108.62 80.5241 108.611 80.5161 108.602 80.5091C108.6 80.5081 108.599 80.5061 108.597 80.5051C108.595 80.503 108.593 80.502 108.592 80.501C108.592 80.501 108.592 80.501 108.591 80.501C108.59 80.499 108.588 80.498 108.587 80.497C108.586 80.497 108.586 80.496 108.586 80.496C108.585 80.495 108.583 80.494 108.581 80.492C108.579 80.491 108.578 80.49 108.576 80.488C108.576 80.488 108.576 80.488 108.575 80.488C108.574 80.486 108.572 80.485 108.571 80.4839H108.57C108.569 80.4819 108.567 80.4809 108.566 80.4799C108.565 80.4799 108.565 80.4799 108.565 80.4789C108.563 80.4779 108.562 80.4769 108.56 80.4759C108.56 80.4759 108.56 80.4749 108.559 80.4749C108.558 80.4739 108.556 80.4729 108.555 80.4719C108.555 80.4709 108.554 80.4709 108.554 80.4709C108.552 80.4699 108.551 80.4689 108.55 80.4679C108.549 80.4669 108.549 80.4669 108.548 80.4669C108.547 80.4659 108.546 80.4649 108.544 80.4639C108.544 80.4629 108.543 80.4629 108.543 80.4629C108.542 80.4608 108.54 80.4598 108.539 80.4588C108.538 80.4588 108.538 80.4588 108.538 80.4578C108.536 80.4568 108.535 80.4558 108.534 80.4548C108.533 80.4548 108.533 80.4548 108.532 80.4538C108.531 80.4528 108.529 80.4518 108.528 80.4508C108.528 80.4508 108.527 80.4508 108.527 80.4498C108.525 80.4488 108.524 80.4478 108.523 80.4468C108.522 80.4468 108.522 80.4458 108.521 80.4458C108.52 80.4448 108.519 80.4438 108.517 80.4428L108.516 80.4417C108.514 80.4408 108.513 80.4397 108.512 80.4387C108.511 80.4387 108.511 80.4377 108.51 80.4377C108.509 80.4367 108.508 80.4357 108.506 80.4347C108.506 80.4347 108.505 80.4337 108.504 80.4337L108.501 80.4307C108.5 80.4307 108.5 80.4297 108.499 80.4297C108.498 80.4287 108.497 80.4277 108.495 80.4267C108.495 80.4267 108.494 80.4257 108.493 80.4257C108.492 80.4247 108.491 80.4237 108.49 80.4227C108.489 80.4227 108.488 80.4217 108.488 80.4217C108.487 80.4207 108.486 80.4196 108.484 80.4186C108.484 80.4186 108.483 80.4176 108.482 80.4176C108.481 80.4166 108.48 80.4156 108.479 80.4156C108.478 80.4146 108.477 80.4136 108.476 80.4136C108.475 80.4126 108.474 80.4116 108.473 80.4116C108.472 80.4106 108.472 80.4096 108.471 80.4096C108.47 80.4086 108.469 80.4076 108.468 80.4076C108.467 80.4066 108.466 80.4066 108.465 80.4056C108.464 80.4046 108.463 80.4046 108.462 80.4036C108.461 80.4026 108.46 80.4026 108.459 80.4016C108.459 80.4006 108.457 80.4006 108.457 80.3996C108.456 80.3986 108.455 80.3986 108.454 80.3975C108.453 80.3965 108.452 80.3965 108.451 80.3955C108.45 80.3945 108.449 80.3945 108.448 80.3935C108.447 80.3935 108.446 80.3925 108.445 80.3915C108.444 80.3915 108.443 80.3905 108.442 80.3895C108.441 80.3895 108.441 80.3885 108.44 80.3885C108.439 80.3875 108.438 80.3865 108.436 80.3855C108.436 80.3855 108.435 80.3845 108.434 80.3845C108.433 80.3835 108.432 80.3825 108.431 80.3825C108.43 80.3815 108.429 80.3805 108.428 80.3805C108.427 80.3795 108.426 80.3785 108.425 80.3785C108.424 80.3774 108.423 80.3775 108.423 80.3764C108.421 80.3754 108.42 80.3754 108.419 80.3744C108.418 80.3734 108.418 80.3734 108.417 80.3724C108.416 80.3724 108.415 80.3714 108.413 80.3704C108.413 80.3704 108.412 80.3694 108.411 80.3694C108.41 80.3684 108.409 80.3674 108.407 80.3664L108.406 80.3654C108.404 80.3644 108.403 80.3634 108.402 80.3624C108.401 80.3624 108.399 80.3624 108.399 80.3614C108.397 80.3604 108.396 80.3604 108.395 80.3594C108.394 80.3584 108.394 80.3584 108.393 80.3584C108.392 80.3574 108.39 80.3564 108.389 80.3553C108.388 80.3553 108.388 80.3543 108.387 80.3543C108.386 80.3533 108.384 80.3523 108.383 80.3513C108.382 80.3513 108.382 80.3513 108.381 80.3503C108.38 80.3493 108.379 80.3483 108.377 80.3483C108.377 80.3473 108.376 80.3473 108.376 80.3473C108.374 80.3463 108.373 80.3453 108.371 80.3443L108.37 80.3433C108.368 80.3423 108.367 80.3413 108.365 80.3403C108.365 80.3403 108.364 80.3403 108.364 80.3393C108.362 80.3383 108.361 80.3373 108.359 80.3363C108.359 80.3363 108.359 80.3363 108.358 80.3363C108.356 80.3353 108.355 80.3342 108.353 80.3332C108.353 80.3332 108.353 80.3322 108.352 80.3322C108.351 80.3312 108.349 80.3302 108.347 80.3292C108.347 80.3292 108.347 80.3292 108.346 80.3292C108.345 80.3282 108.343 80.3272 108.341 80.3262C108.341 80.3252 108.341 80.3252 108.341 80.3252C108.339 80.3242 108.337 80.3232 108.335 80.3222C108.333 80.3212 108.331 80.3192 108.329 80.3182C108.327 80.3172 108.325 80.3162 108.323 80.3152C108.321 80.3142 108.319 80.3121 108.317 80.3111C108.315 80.3101 108.313 80.3091 108.311 80.3081L108.31 80.3071L108.272 80.286C108.272 80.286 108.272 80.286 108.272 80.285H108.271L108.269 80.283C108.268 80.283 108.268 80.283 108.268 80.283L108.264 80.281L108.263 80.28C108.262 80.28 108.262 80.279 108.261 80.279L108.245 80.27C108.245 80.27 108.245 80.2689 108.244 80.2689L108.192 80.2388C108.192 80.2388 108.191 80.2388 108.191 80.2378L108.18 80.2328L108.145 80.2127C108.145 80.2127 108.145 80.2117 108.144 80.2117L108.132 80.2046C108.13 80.2036 108.129 80.2026 108.127 80.2016L108.124 80.1996C108.123 80.1996 108.122 80.1986 108.12 80.1976L108.118 80.1966L107.938 80.0921C107.937 80.0921 107.937 80.0921 107.936 80.0921L107.926 80.0861L107.799 80.0117C107.798 80.0117 107.798 80.0117 107.797 80.0107L107.73 79.9726C107.729 79.9726 107.729 79.9716 107.728 79.9716L107.718 79.9655C107.717 79.9645 107.715 79.9635 107.713 79.9625L107.704 79.9575C107.702 79.9565 107.701 79.9555 107.7 79.9555L107.696 79.9535C107.696 79.9525 107.696 79.9525 107.695 79.9525L107.66 79.9324C107.657 79.9304 107.655 79.9294 107.653 79.9284L107.002 79.5516C106.999 79.5506 106.996 79.5486 106.993 79.5466L106.883 79.4833C106.882 79.4833 106.882 79.4833 106.882 79.4833L106.43 79.2221C106.429 79.221 106.428 79.221 106.427 79.22L106.423 79.218C106.422 79.218 106.422 79.217 106.421 79.217L106.419 79.216C106.418 79.215 106.416 79.214 106.414 79.213L106.332 79.1658C106.331 79.1648 106.33 79.1638 106.329 79.1638L106.185 79.0804C106.181 79.0784 106.177 79.0764 106.174 79.0744L106.052 79.004C106.052 79.003 106.051 79.003 106.051 79.003L106.021 78.9859C106.019 78.9849 106.018 78.9839 106.016 78.9829L106.012 78.9809L106.011 78.9799L105.84 78.8805L105.747 78.8272C105.746 78.8272 105.745 78.8272 105.745 78.8262L105.742 78.8252C105.741 78.8242 105.74 78.8232 105.739 78.8232L105.723 78.8141C105.722 78.8131 105.721 78.8131 105.72 78.8121L105.711 78.8071C105.711 78.8071 105.711 78.8071 105.71 78.8061L105.32 78.5811C105.318 78.5801 105.317 78.579 105.316 78.579L105.309 78.575C105.306 78.573 105.302 78.571 105.299 78.569L105.159 78.4886C105.159 78.4876 105.158 78.4876 105.157 78.4876L105.132 78.4725H105.131L105.122 78.4665C105.119 78.4655 105.117 78.4645 105.115 78.4625L105.111 78.4605L104.955 78.3711C104.955 78.3701 104.954 78.3701 104.954 78.3701L104.89 78.3329C104.889 78.3329 104.889 78.3319 104.888 78.3319L104.884 78.3289C104.881 78.3279 104.877 78.3259 104.874 78.3239L104.868 78.3198L104.796 78.2786C104.794 78.2776 104.793 78.2766 104.791 78.2756L104.783 78.2706C104.782 78.2706 104.782 78.2706 104.782 78.2696L104.779 78.2686C104.778 78.2676 104.777 78.2676 104.777 78.2676L104.621 78.1772C104.621 78.1772 104.621 78.1772 104.62 78.1772L104.482 78.0978V78.0968L104.321 78.0044C104.321 78.0044 104.321 78.0044 104.32 78.0044L104.204 77.937L104.183 77.924L104.145 77.9029C104.229 77.2539 104.292 76.5988 104.336 75.9377C104.378 75.2766 104.4 74.6095 104.4 73.9384C104.4 72.5941 104.312 71.2709 104.145 69.9728L104.146 69.9718L104.148 69.9708L104.149 69.9698L104.249 69.9116C104.25 69.9116 104.25 69.9116 104.251 69.9116L104.323 69.8694L104.631 69.6915C104.633 69.6905 104.636 69.6885 104.638 69.6875L104.641 69.6855L104.653 69.6785C104.654 69.6785 104.654 69.6785 104.655 69.6775L104.786 69.6021H104.787L104.791 69.5991L104.796 69.5971L104.959 69.5016C104.961 69.5006 104.964 69.4986 104.966 69.4976L104.969 69.4956C104.97 69.4956 104.97 69.4956 104.971 69.4946L105.074 69.4353L105.142 69.3961L105.146 69.3941C105.147 69.3931 105.148 69.3931 105.149 69.3921L105.152 69.3901C105.153 69.3901 105.154 69.3891 105.155 69.3891C105.157 69.3881 105.158 69.3871 105.16 69.3861L105.162 69.3851C105.163 69.3841 105.164 69.3841 105.164 69.3831L105.244 69.3379C105.245 69.3379 105.245 69.3369 105.245 69.3369L105.733 69.0555C105.738 69.0525 105.743 69.0495 105.748 69.0465L105.775 69.0304C105.776 69.0304 105.776 69.0304 105.776 69.0304L105.781 69.0274C105.781 69.0274 105.782 69.0264 105.783 69.0264L105.79 69.0224C105.79 69.0224 105.791 69.0214 105.792 69.0214L105.799 69.0174C105.8 69.0164 105.8 69.0164 105.801 69.0164L105.822 69.0033C105.823 69.0023 105.825 69.0023 105.826 69.0013L105.839 68.9943C105.839 68.9943 105.84 68.9943 105.84 68.9933L105.863 68.9802H105.864L105.867 68.9782C105.868 68.9772 105.869 68.9772 105.87 68.9762L105.875 68.9742C105.875 68.9732 105.876 68.9732 105.877 68.9722L105.88 68.9712C105.881 68.9702 105.881 68.9701 105.882 68.9691L105.887 68.9671C105.887 68.9661 105.887 68.9661 105.888 68.9661L105.934 68.939C105.935 68.939 105.935 68.938 105.936 68.938L105.983 68.9109C105.984 68.9099 105.984 68.9099 105.985 68.9099L105.988 68.9079C105.989 68.9069 105.99 68.9069 105.991 68.9058L105.994 68.9038C105.996 68.9028 105.997 68.9028 105.999 68.9018C106.005 68.8978 106.011 68.8948 106.017 68.8918V68.8908C106.02 68.8898 106.022 68.8878 106.025 68.8868L106.042 68.8767C106.047 68.8747 106.051 68.8717 106.055 68.8697L106.075 68.8576C106.075 68.8576 106.075 68.8576 106.076 68.8576L106.177 68.7983C106.181 68.7963 106.184 68.7943 106.188 68.7923L106.227 68.7702L106.232 68.7662C106.234 68.7652 106.236 68.7642 106.238 68.7632L106.349 68.6999L106.35 68.6989L106.847 68.4125C106.847 68.4115 106.848 68.4115 106.849 68.4105L106.853 68.4085C106.853 68.4085 106.853 68.4085 106.854 68.4085L106.857 68.4065C106.859 68.4045 106.861 68.4035 106.864 68.4025L106.869 68.3985C106.87 68.3985 106.871 68.3975 106.872 68.3975L106.881 68.3924C106.882 68.3914 106.882 68.3914 106.883 68.3914L106.911 68.3754C106.912 68.3744 106.913 68.3744 106.913 68.3744L106.922 68.3693C106.923 68.3683 106.924 68.3683 106.924 68.3673L106.946 68.3553C106.947 68.3543 106.948 68.3533 106.95 68.3533L106.992 68.3281C106.995 68.3271 106.997 68.3251 107 68.3241L107.659 67.9434L107.7 67.9192C107.702 67.9182 107.703 67.9172 107.704 67.9172L107.929 67.7866H107.93L107.987 67.7545C107.987 67.7535 107.988 67.7535 107.988 67.7535L107.99 67.7525C107.99 67.7525 107.991 67.7515 107.992 67.7515L107.993 67.7505C107.994 67.7505 107.995 67.7494 107.996 67.7494L108.062 67.7103H108.063L108.065 67.7093C108.065 67.7083 108.066 67.7083 108.066 67.7083L108.069 67.7062C108.073 67.7042 108.076 67.7022 108.08 67.7002L108.109 67.6831C108.109 67.6831 108.109 67.6831 108.11 67.6831L108.112 67.6821C108.112 67.6811 108.112 67.6811 108.112 67.6811L108.115 67.6801L108.117 67.6781C108.118 67.6781 108.12 67.6771 108.121 67.6761L108.123 67.6751C108.123 67.6751 108.123 67.6751 108.124 67.6751L108.125 67.6741C108.126 67.6741 108.126 67.6741 108.126 67.6731L108.131 67.6701L108.237 67.6098H108.238L108.239 67.6088L108.244 67.6058L108.245 67.6048C108.248 67.6038 108.25 67.6028 108.252 67.6008L108.258 67.5977L108.261 67.5957L108.264 67.5947C108.264 67.5937 108.264 67.5937 108.264 67.5937H108.265L108.31 67.5676L105.798 63.2163L98.7333 67.2963L99.1623 70.6158C99.304 71.713 99.3763 72.8302 99.3763 73.9384C99.3763 75.0455 99.304 76.1628 99.1623 77.2579L98.7333 80.5784L103.324 83.2298L98.4661 91.6431L102.817 94.1548L106.449 87.8634C106.45 87.8614 106.451 87.8594 106.452 87.8574L106.459 87.8464C106.463 87.8403 106.466 87.8343 106.469 87.8283L106.487 87.7981C106.488 87.7981 106.488 87.7971 106.488 87.7971L106.495 87.7851C106.497 87.7821 106.498 87.779 106.5 87.776L106.504 87.769C106.505 87.768 106.506 87.766 106.507 87.765L106.515 87.7509C106.515 87.7499 106.515 87.7499 106.516 87.7489L106.524 87.7348C106.524 87.7348 106.524 87.7348 106.525 87.7338L106.604 87.5962C106.607 87.5912 106.61 87.5851 106.613 87.5801L106.628 87.554C106.631 87.549 106.633 87.5449 106.635 87.5409L106.638 87.5359C106.643 87.5279 106.648 87.5198 106.652 87.5118L106.657 87.5038C106.658 87.5007 106.66 87.4977 106.662 87.4947L106.665 87.4897C106.667 87.4857 106.669 87.4827 106.671 87.4786L106.675 87.4726C106.677 87.4686 106.679 87.4656 106.681 87.4615L106.713 87.4073C106.715 87.4053 106.716 87.4023 106.718 87.3993V87.3983C106.721 87.3942 106.723 87.3902 106.725 87.3862L106.731 87.3762C106.735 87.3681 106.74 87.3611 106.745 87.3531L106.746 87.35C106.751 87.342 106.755 87.334 106.76 87.3259L106.784 87.2837C106.785 87.2817 106.786 87.2797 106.787 87.2777L106.802 87.2536C106.803 87.2506 106.805 87.2466 106.807 87.2435C106.809 87.2405 106.81 87.2385 106.812 87.2355L106.846 87.1762C106.847 87.1742 106.848 87.1732 106.848 87.1722L106.89 87.0999C106.891 87.0979 106.891 87.0969 106.892 87.0958L106.931 87.0295C106.933 87.0265 106.935 87.0225 106.937 87.0195L106.944 87.0064C106.945 87.0054 106.945 87.0054 106.945 87.0054L106.987 86.9331C106.988 86.9311 106.988 86.9301 106.989 86.9281L106.996 86.916C106.997 86.915 106.998 86.913 107 86.911L107.014 86.8859C107.018 86.8778 107.023 86.8698 107.028 86.8617C107.032 86.8537 107.037 86.8457 107.041 86.8376L107.049 86.8246C107.05 86.8236 107.05 86.8226 107.05 86.8226L107.054 86.8155C107.056 86.8125 107.058 86.8085 107.06 86.8055L107.066 86.7954C107.066 86.7944 107.067 86.7934 107.068 86.7924L107.075 86.7804C107.075 86.7794 107.075 86.7794 107.076 86.7784L107.084 86.7643C107.084 86.7633 107.084 86.7633 107.085 86.7623L107.091 86.7522C107.091 86.7512 107.093 86.7492 107.093 86.7472L107.127 86.6899C107.128 86.6889 107.128 86.6889 107.129 86.6879L107.142 86.6648C107.144 86.6618 107.144 86.6598 107.146 86.6578L107.169 86.6166C107.172 86.6126 107.174 86.6096 107.176 86.6056L107.191 86.5784C107.194 86.5734 107.197 86.5684 107.2 86.5634L107.201 86.5623C107.203 86.5583 107.206 86.5543 107.208 86.5493L107.209 86.5473C107.211 86.5443 107.213 86.5413 107.215 86.5382L107.22 86.5282C107.224 86.5212 107.228 86.5151 107.232 86.5081L107.235 86.5021C107.237 86.498 107.24 86.495 107.241 86.491L107.255 86.4679C107.256 86.4669 107.256 86.4659 107.257 86.4649L107.261 86.4569C107.263 86.4538 107.265 86.4508 107.267 86.4478L107.269 86.4428C107.274 86.4348 107.278 86.4277 107.282 86.4197L107.287 86.4127C107.291 86.4046 107.296 86.3966 107.301 86.3885L107.304 86.3825C107.305 86.3805 107.307 86.3785 107.308 86.3765L107.313 86.3664C107.314 86.3654 107.314 86.3644 107.315 86.3634L107.322 86.3514C107.332 86.3353 107.341 86.3192 107.35 86.3041L107.356 86.2941C107.36 86.2861 107.365 86.279 107.369 86.271L107.37 86.27C107.372 86.267 107.373 86.264 107.375 86.2609L107.39 86.2348C107.394 86.2278 107.398 86.2208 107.402 86.2137L107.403 86.2127C107.408 86.2037 107.413 86.1956 107.418 86.1866L107.42 86.1816C107.431 86.1645 107.441 86.1464 107.451 86.1293L107.453 86.1253C107.474 86.0891 107.495 86.053 107.515 86.0168L107.518 86.0108C107.539 85.9756 107.56 85.9404 107.58 85.9053L107.584 85.8993C107.593 85.8832 107.603 85.8661 107.612 85.851L107.617 85.842C107.62 85.836 107.624 85.8299 107.627 85.8229L107.633 85.8139C107.634 85.8118 107.635 85.8098 107.636 85.8088L107.654 85.7767C107.656 85.7727 107.658 85.7696 107.66 85.7666L107.662 85.7626C107.677 85.7365 107.692 85.7104 107.707 85.6842L107.709 85.6812C107.729 85.6461 107.749 85.6109 107.77 85.5767L107.771 85.5747C107.792 85.5396 107.811 85.5054 107.831 85.4702L107.832 85.4682C107.852 85.4351 107.871 85.4009 107.89 85.3678L107.892 85.3637C107.931 85.2964 107.969 85.2301 108.008 85.1648L108.01 85.1618C108.028 85.1287 108.047 85.0965 108.065 85.0644H108.066C108.075 85.0483 108.084 85.0322 108.093 85.0171L108.095 85.0131C108.099 85.0061 108.103 85 108.106 84.993L108.108 84.99C108.11 84.988 108.111 84.985 108.113 84.982L108.117 84.9749C108.117 84.9739 108.118 84.9739 108.118 84.9729L108.123 84.9639C108.141 84.9337 108.158 84.9046 108.175 84.8745L108.176 84.8715C108.195 84.8413 108.212 84.8112 108.229 84.781L108.23 84.78C108.335 84.5972 108.434 84.4264 108.523 84.2716V84.2706C108.643 84.0637 108.747 83.8838 108.834 83.7351L108.835 83.7331C109.005 83.4357 109.104 83.2659 109.104 83.2659C109.301 82.9254 109.394 82.5526 109.394 82.1859C109.394 81.56 109.123 80.9491 108.629 80.5312Z" fill="white"/>
<path d="M58.1999 94.2774L55.5375 92.2359L50.938 94.8923L44.4276 83.6166L40.0773 86.1283L48.0164 99.8786C48.2173 100.225 48.4986 100.496 48.8251 100.68C49.1507 100.864 49.5194 100.962 49.8931 100.962C50.2608 100.962 50.6336 100.868 50.9742 100.671C50.9752 100.671 50.9752 100.671 50.9752 100.671V100.67C50.9752 100.67 50.9762 100.67 50.9772 100.669C50.9792 100.668 50.9822 100.667 50.9862 100.664H50.9872C50.9882 100.663 50.9903 100.662 50.9933 100.66C50.9933 100.66 50.9933 100.66 50.9943 100.66V100.659C51.0073 100.652 51.0254 100.642 51.0485 100.628C51.0576 100.623 51.0666 100.618 51.0777 100.612C51.0937 100.603 51.1108 100.593 51.1299 100.582L51.1309 100.581C51.1309 100.581 51.1319 100.58 51.1329 100.58C51.1339 100.579 51.1339 100.579 51.1349 100.579L51.1359 100.578C51.1359 100.578 51.1369 100.578 51.1369 100.577H51.1379C51.14 100.576 51.141 100.575 51.143 100.574L51.145 100.573C51.145 100.573 51.146 100.572 51.147 100.572C51.151 100.57 51.155 100.567 51.159 100.565C51.161 100.564 51.1621 100.563 51.1641 100.562H51.1651C51.1651 100.561 51.1661 100.561 51.1661 100.561L51.1671 100.56C51.1882 100.548 51.2113 100.535 51.2354 100.521C51.2384 100.519 51.2424 100.517 51.2454 100.515L51.2485 100.513C51.2756 100.497 51.3037 100.481 51.3339 100.464C51.3389 100.46 51.3439 100.457 51.3499 100.454L51.3519 100.453C51.3881 100.432 51.4263 100.41 51.4665 100.387H51.4675C51.4685 100.386 51.4695 100.385 51.4705 100.385L51.4725 100.384C51.4745 100.383 51.4765 100.381 51.4795 100.38C51.4815 100.379 51.4836 100.378 51.4856 100.376L51.4876 100.375C51.4876 100.375 51.4876 100.375 51.4886 100.375L51.4916 100.373C51.5067 100.364 51.5217 100.356 51.5368 100.347L51.5398 100.345C51.5448 100.342 51.5489 100.34 51.5539 100.337L51.5569 100.335C51.5659 100.33 51.574 100.325 51.582 100.321L51.585 100.319C51.5921 100.315 51.5991 100.311 51.6071 100.307L51.6091 100.305C51.6634 100.273 51.7197 100.241 51.7779 100.207H51.7789C51.7819 100.205 51.785 100.203 51.788 100.201L51.79 100.2C51.793 100.199 51.795 100.197 51.798 100.196L51.8071 100.191C51.8151 100.186 51.8231 100.182 51.8312 100.177C51.8463 100.168 51.8623 100.159 51.8784 100.149H51.8794C51.8844 100.146 51.8895 100.143 51.8945 100.141L51.9015 100.136C51.9216 100.125 51.9417 100.113 51.9618 100.101H51.9628C52.007 100.075 52.0512 100.049 52.0964 100.023L52.0974 100.022C52.1014 100.021 52.1045 100.018 52.1075 100.017L52.1085 100.016C52.1105 100.015 52.1115 100.014 52.1125 100.014L52.1145 100.013C52.1477 99.9941 52.1818 99.974 52.216 99.9539L52.219 99.9529C52.2401 99.9409 52.2622 99.9278 52.2843 99.9147L52.2863 99.9137C52.2873 99.9137 52.2883 99.9127 52.2893 99.9117L52.2933 99.9097C52.3466 99.8786 52.4008 99.8474 52.4551 99.8163L52.4571 99.8153C52.4601 99.8133 52.4631 99.8113 52.4672 99.8092L52.4712 99.8072L52.4742 99.8052C52.4762 99.8042 52.4772 99.8032 52.4782 99.8032L52.4802 99.8022C52.5134 99.7831 52.5465 99.764 52.5797 99.7439L52.5817 99.7429C52.5957 99.7349 52.6088 99.7279 52.6229 99.7198L52.6259 99.7178C52.7022 99.6736 52.7796 99.6294 52.857 99.5842L52.86 99.5822C52.861 99.5822 52.861 99.5822 52.862 99.5812L52.865 99.5792C52.8972 99.5611 52.9293 99.543 52.9615 99.5239H52.9625C52.9635 99.5229 52.9645 99.5219 52.9655 99.5209L52.9685 99.5199C52.9765 99.5159 52.9836 99.5109 52.9916 99.5068L52.9926 99.5058C52.9946 99.5048 52.9966 99.5038 52.9976 99.5028C53.0107 99.4958 53.0227 99.4887 53.0348 99.4817L53.0378 99.4797C53.0589 99.4677 53.08 99.4556 53.1011 99.4435L53.1021 99.4425C53.1041 99.4415 53.1051 99.4405 53.1071 99.4405L53.1152 99.4355C53.1162 99.4345 53.1182 99.4335 53.1192 99.4325L53.1242 99.4305C53.1262 99.4295 53.1272 99.4285 53.1292 99.4275L53.1302 99.4265C53.1313 99.4265 53.1323 99.4255 53.1333 99.4244L53.1363 99.4224C53.1755 99.4003 53.2146 99.3782 53.2528 99.3561L53.2548 99.3541C53.2578 99.3531 53.2609 99.3511 53.2639 99.3501V99.3491C53.3071 99.324 53.3503 99.2999 53.3935 99.2747L53.3945 99.2737C53.3975 99.2717 53.4005 99.2707 53.4045 99.2687L53.4065 99.2667C53.4367 99.2496 53.4668 99.2326 53.497 99.2145L53.5 99.2125C53.5181 99.2024 53.5351 99.1924 53.5522 99.1823C53.5783 99.1683 53.6035 99.1532 53.6276 99.1391L53.6406 99.1321C53.6416 99.1311 53.6426 99.1311 53.6436 99.1301L53.6457 99.1291C53.6467 99.1281 53.6487 99.1271 53.6497 99.1271L53.6517 99.1261C53.6547 99.123 53.6587 99.122 53.6617 99.12L53.6627 99.119C53.6647 99.118 53.6657 99.117 53.6678 99.116C53.6738 99.113 53.6798 99.11 53.6848 99.106L53.6879 99.105C53.7009 99.0969 53.713 99.0899 53.726 99.0829L53.7311 99.0798C53.7682 99.0587 53.8044 99.0366 53.8416 99.0165L53.8426 99.0155C53.8456 99.0135 53.8496 99.0115 53.8526 99.0095H53.8536C53.8838 98.9914 53.9149 98.9733 53.9451 98.9563L53.9531 98.9512C53.9581 98.9482 53.9631 98.9462 53.9682 98.9432L53.9722 98.9402C53.9792 98.9362 53.9873 98.9322 53.9943 98.9281L53.9983 98.9261C53.9983 98.9251 53.9993 98.9251 54.0003 98.9241L54.0063 98.9201L54.0124 98.9171L54.0244 98.91C54.0264 98.909 54.0294 98.908 54.0315 98.906H54.0325C54.0686 98.8849 54.1048 98.8638 54.14 98.8437C54.15 98.8377 54.1591 98.8327 54.1691 98.8267C54.2133 98.8015 54.2575 98.7764 54.2997 98.7513L54.3017 98.7503C54.3138 98.7433 54.3258 98.7362 54.3369 98.7292L54.3449 98.7252C54.3489 98.7232 54.354 98.7202 54.359 98.7171L54.36 98.7161C54.3781 98.7061 54.3952 98.6961 54.4112 98.687L54.4253 98.679C54.4343 98.6739 54.4434 98.6679 54.4524 98.6629L54.4564 98.6609C54.4675 98.6549 54.4786 98.6478 54.4886 98.6418L54.4926 98.6398L54.4976 98.6368C54.5449 98.6096 54.5891 98.5845 54.6323 98.5594L54.6353 98.5574C54.6373 98.5564 54.6403 98.5544 54.6423 98.5534L54.6483 98.5504C54.6483 98.5504 54.6493 98.5494 54.6504 98.5494L54.6594 98.5433C54.6825 98.5303 54.7056 98.5172 54.7277 98.5042L54.7297 98.5031C54.7317 98.5021 54.7337 98.5001 54.7357 98.4991L54.7388 98.4981C54.7548 98.4881 54.7709 98.479 54.786 98.47L54.789 98.469C54.8141 98.4539 54.8392 98.4398 54.8633 98.4258L54.8644 98.4248C54.8654 98.4248 54.8664 98.4248 54.8664 98.4238L54.8684 98.4228C54.8684 98.4228 54.8684 98.4228 54.8694 98.4228L54.8704 98.4218C54.8744 98.4198 54.8784 98.4167 54.8824 98.4147H54.8834C54.9226 98.3916 54.9588 98.3715 54.9899 98.3534L54.9909 98.3524C54.993 98.3514 54.994 98.3504 54.995 98.3494H54.996C55.01 98.3414 55.0241 98.3334 55.0362 98.3263C55.0382 98.3253 55.0392 98.3243 55.0402 98.3243L55.0422 98.3233C55.0573 98.3143 55.0713 98.3062 55.0834 98.2992C55.1055 98.2861 55.1216 98.2771 55.1316 98.2711C55.1356 98.2691 55.1386 98.267 55.1406 98.266C55.1427 98.265 55.1437 98.264 55.1437 98.264C56.1895 99.0658 57.2887 99.8012 58.435 100.465C59.5814 101.129 60.774 101.721 62.0087 102.235V105.353H67.0322V98.8829L63.9377 97.5959C61.8952 96.7469 59.9652 95.6307 58.1999 94.2774Z" fill="white"/>
<path d="M91.9918 92.2359L89.3294 94.2764C87.5641 95.6297 85.6341 96.7469 83.5916 97.5959L80.4971 98.8829V104.184H69.13V109.207H83.3555C84.5511 109.207 85.5206 108.238 85.5206 107.041V102.235C86.7554 101.721 87.9479 101.129 89.0943 100.465C90.2407 99.8012 91.3398 99.0658 92.3857 98.263L96.523 100.652L99.0347 96.3019L91.9918 92.2359Z" fill="white"/>
<path d="M64.8239 63.4815C63.2355 64.8409 61.9595 66.5569 61.1216 68.505H65.8105V63.4815H64.8239ZM76.7667 60.5096C75.8002 60.2946 74.7955 60.1811 73.7647 60.1811C73.0775 60.1811 72.4033 60.2313 71.7432 60.3288V65.4407C72.3923 65.2859 73.0694 65.2046 73.7647 65.2046C74.8186 65.2046 75.8293 65.3924 76.7667 65.736C80.1073 66.9628 82.4975 70.1768 82.4975 73.9384C82.4975 77.6999 80.1073 80.913 76.7667 82.1397C75.8293 82.4833 74.8186 82.6712 73.7647 82.6712C73.0694 82.6712 72.3923 82.5898 71.7432 82.4351V82.6712H63.134C65.6568 85.7385 69.4827 87.6946 73.7647 87.6946C74.7955 87.6946 75.8002 87.5811 76.7667 87.3661C82.9204 85.9967 87.5209 80.5051 87.5209 73.9384C87.5209 67.3717 82.9204 61.879 76.7667 60.5096Z" fill="white"/>
<path d="M76.7667 0.980469H0.885132V66.0907L22.5785 87.6946H76.7667V0.980469ZM6.01008 64.1044H19.9673C22.4841 64.1044 24.5316 66.152 24.5316 68.6687V82.5496L6.01008 64.1044ZM71.7432 82.6712H29.5551V68.6687C29.5551 63.382 25.254 59.0809 19.9673 59.0809H5.9086V6.00394H71.7432V82.6712Z" fill="white"/>
<path d="M65.8115 19.933H11.6635V24.9565H65.8115V19.933Z" fill="white"/>
<path d="M65.8105 41.7801H11.6635V46.8036H65.8105V41.7801Z" fill="white"/>
<path d="M65.8105 63.4815H38.8264V68.505H65.8105V63.4815Z" fill="white"/>
</g>
</svg>
