<svg width="115" height="50" viewBox="0 0 115 50" fill="none" xmlns="http://www.w3.org/2000/svg">
<rect width="115" height="42.5" rx="21.25" fill="black"/>
<path d="M15.5238 20.8826C15.5238 23.2919 17.4718 25.2525 19.8663 25.2525C22.2608 25.2525 24.2089 23.2919 24.2089 20.8826C24.2089 18.4732 22.2608 16.5127 19.8663 16.5127C17.4718 16.5127 15.5238 18.4732 15.5238 20.8826ZM22.9371 20.8826C22.9371 22.5867 21.5596 23.9726 19.8663 23.9726C18.173 23.9726 16.7955 22.5867 16.7955 20.8826C16.7955 19.1785 18.1735 17.7925 19.8663 17.7925C21.5592 17.7925 22.9371 19.1789 22.9371 20.8826Z" fill="white"/>
<path d="M24.7733 25.7687C24.7517 25.7908 24.7287 25.8116 24.7066 25.8333L24.7014 25.829C23.4593 27.0664 21.7509 27.8315 19.8649 27.8315C16.9243 27.8315 14.416 25.9728 13.4338 23.3593C13.4244 23.3339 13.4136 23.3084 13.4042 23.282C13.3934 23.2519 13.384 23.2212 13.3732 23.1906C12.5479 20.7864 13.0719 18.0098 14.9593 16.0747L14.957 16.0719C15.6427 15.3686 16.4759 14.8109 17.407 14.4522L17.4093 14.4621C19.8438 13.5287 22.7054 14.0303 24.6831 15.9833L25.1634 16.458L27.3272 14.24C27.3305 14.2433 27.3337 14.2471 27.337 14.2504L28.3602 13.2034C28.2342 13.0667 28.1054 12.9314 27.9715 12.7999C25.4703 10.3288 22.1288 9.24835 18.8921 9.5491C16.2889 9.79141 13.7529 10.927 11.7785 12.9512C9.79243 14.9872 8.71478 17.5771 8.53196 20.2165H8.52491L8.50752 20.5427L8.5 20.9457V21.2456L8.51269 21.5572H8.51504C8.64381 24.3611 9.78162 27.1249 11.9289 29.2462C14.4301 31.7173 17.7717 32.7978 21.0084 32.497C23.6097 32.2557 26.1442 31.1205 28.1181 29.0987L25.734 26.7171L24.7733 25.7687ZM19.0265 11.009C21.6931 10.7616 24.3207 11.5922 26.3548 13.3034L25.1268 14.5625C23.2017 12.9475 20.7137 12.3587 18.3779 12.7881L17.9737 11.167C18.3206 11.0967 18.6717 11.042 19.0265 11.009ZM12.8177 13.9784C13.9042 12.8645 15.2291 12.0296 16.6752 11.5243L17.0493 13.0248L17.0803 13.1478C15.9101 13.5739 14.8639 14.2603 14.01 15.1362L13.9992 15.1258C12.6071 16.5527 11.8345 18.3639 11.6784 20.2165H9.9917C10.1759 17.8684 11.1586 15.6792 12.8177 13.9784ZM16.4383 30.4393C15.1487 29.9524 13.9578 29.1967 12.9492 28.1997C11.1488 26.4216 10.1031 24.0759 9.9729 21.5562L11.6756 21.5553C11.8218 23.4828 12.632 25.3675 14.1077 26.8251C14.9358 27.643 15.8941 28.2468 16.9144 28.6395L16.4383 30.4393ZM20.874 31.0371C19.8071 31.1361 18.7469 31.0621 17.7279 30.8282L18.2064 29.0185C18.47 29.0727 18.7356 29.1152 19.0025 29.1434C19.0411 29.1472 19.0801 29.1505 19.1186 29.1538C19.206 29.1618 19.2934 29.1689 19.3808 29.1741C19.4354 29.1769 19.4899 29.1797 19.5444 29.1821C19.6154 29.1845 19.6863 29.1863 19.7568 29.1873C19.7963 29.1882 19.8353 29.1906 19.8753 29.1906C19.902 29.1906 19.9284 29.1887 19.9556 29.1887C20.0073 29.1882 20.0585 29.1859 20.1102 29.1845C21.5578 29.1439 22.9108 28.7267 24.0773 28.0262C24.0787 28.0258 24.0796 28.0248 24.0806 28.0243C24.1751 27.9673 24.2681 27.9084 24.3602 27.848C24.3743 27.8386 24.3884 27.8296 24.4025 27.8202C24.4904 27.7622 24.5764 27.7019 24.6615 27.6401C24.6718 27.6326 24.6822 27.626 24.6925 27.6185L26.0404 28.9954C24.5501 30.1471 22.7585 30.8622 20.874 31.0371Z" fill="#DA0032"/>
<path d="M43.1359 26.2333L42.0076 23.8405H36.3866L35.279 26.2333H32.5L38.9985 13H39.3745L45.873 26.2333H43.1359ZM37.1597 21.9472H41.2345L39.1867 17.5153L37.1597 21.9472Z" fill="white"/>
<path d="M45.9109 21.8638C45.9109 18.9926 47.8961 17.3485 50.5706 17.3485C52.2212 17.3485 53.3496 18.056 53.4752 18.1183L53.1407 20.0117C53.1407 20.0117 52.1168 19.2208 50.7377 19.2208C49.3378 19.2208 48.1676 20.1157 48.1676 21.8427C48.1676 23.5698 49.3171 24.5059 50.6962 24.5059C51.9916 24.5059 52.8695 23.7568 52.9529 23.6944L53.9142 25.3798C52.7647 26.1079 51.6575 26.3787 50.571 26.3787C47.8542 26.3791 45.9109 24.7354 45.9109 21.8638Z" fill="white"/>
<path d="M60.2205 26.2333V25.2761C59.9278 25.6922 59.0922 26.3167 57.8382 26.3167C55.6649 26.3167 54.5784 24.9851 54.5784 23.4451C54.5784 21.8221 55.9368 20.6985 58.5069 20.6985C59.1336 20.6985 59.7189 20.8232 60.2205 20.9276C60.2205 19.492 59.5726 19.1383 58.6743 19.1383C57.5878 19.1383 56.2294 19.6377 55.686 19.9081L55.1218 18.2227C55.6023 18.0147 57.107 17.3906 58.7576 17.3906C61.3696 17.3906 62.519 18.5558 62.519 21.1773V26.2333H60.2205ZM58.4235 24.548C59.4893 24.548 60.2205 23.7782 60.2205 22.5089V22.3426C60.0534 22.2592 59.5311 22.0722 58.695 22.0722C57.4622 22.0722 56.9188 22.5717 56.9188 23.3208C56.9188 24.0903 57.5248 24.548 58.4235 24.548Z" fill="white"/>
<path d="M64.0002 21.9678C64.0002 19.4499 65.5883 17.4109 68.1795 17.4109C69.4123 17.4109 70.4573 17.9726 70.4573 17.9726V13.1401L72.714 13.1457C72.7347 13.1664 72.714 17.4529 72.714 26.2333H70.4573V24.7354C70.102 25.4012 69.2452 26.3584 67.7828 26.3584C65.3794 26.3584 64.0002 24.5274 64.0002 21.9678ZM68.2632 24.444C69.5586 24.444 70.4573 23.2371 70.4573 21.094V19.9081C70.2484 19.7624 69.6005 19.2629 68.5766 19.2629C67.1137 19.2629 66.3199 20.5115 66.3199 21.9888C66.3199 23.3621 66.8841 24.444 68.2632 24.444Z" fill="white"/>
<path d="M78.9721 24.5274C80.0797 24.5274 80.7272 24.1113 81.2499 23.7159L82.3156 25.3389C81.1036 26.171 80.0589 26.3794 78.9306 26.3794C76.0053 26.3794 74.2079 24.6318 74.2079 21.8642C74.2079 19.1593 76.0675 17.37 78.4916 17.37C80.7483 17.37 82.5246 18.8679 82.5246 21.4481C82.5246 21.9059 82.4827 22.4053 82.4827 22.4053H76.4646C76.5065 23.8199 77.6141 24.5274 78.9721 24.5274ZM76.5483 20.7196H80.5187C80.3935 19.6377 79.5993 19.0549 78.5546 19.0549C77.593 19.0549 76.841 19.6584 76.5483 20.7196Z" fill="white"/>
<path d="M94.3598 21.2397C94.3598 19.9704 93.9001 19.2629 92.9388 19.2629C91.6848 19.2629 91.4759 20.3865 91.4759 22.1969V26.2333H89.1981V21.094C89.1981 19.8041 88.6965 19.2629 87.7564 19.2629C86.6069 19.2629 86.3354 20.0951 86.3354 22.1969V26.2333H84.0576V17.5359H86.3143V18.6801C86.7114 18.0143 87.3593 17.4942 88.2787 17.3902C89.407 17.3068 90.4309 17.8273 90.9744 18.8881C91.3922 18.1183 92.2283 17.3692 93.5029 17.3692C95.3418 17.3692 96.6583 18.4304 96.6583 21.0936V26.233H94.3598V21.2397Z" fill="white"/>
<path d="M100.587 24.548L96.9928 17.5359H99.5629L101.778 22.2799L103.993 17.5359H106.5L100.461 29.5L98.1 29.1046L100.587 24.548Z" fill="white"/>
<path d="M55 50L50.6699 41H59.3301L55 50Z" fill="black"/>
</svg>
