<svg width="34" height="24" viewBox="0 0 34 24" fill="none" xmlns="http://www.w3.org/2000/svg">
<path d="M26.1992 1.5C26.9605 1.5 27.7093 1.62809 28.3828 1.87305L28.667 1.98535C29.3516 2.27805 29.9524 2.65728 30.4678 3.12012L30.6836 3.32422C31.176 3.81223 31.5799 4.38013 31.8838 5.01172L32.0078 5.28613L32.0088 5.29004C32.3399 6.06574 32.5 6.83888 32.5 7.63867C32.5 8.71028 32.4082 9.86112 32.2197 11.0928L32.1328 11.626C31.92 12.8615 31.6 14.0978 31.1738 15.3115L30.9854 15.8301L30.9834 15.8359C30.4681 17.2148 29.7977 18.527 28.9707 19.7734C28.3751 20.6712 27.6923 21.4588 26.917 22.1357L24.2285 20.2832C24.6513 19.6967 25.0063 19.1123 25.2832 18.5303L25.2842 18.5312C25.7489 17.5901 26.1183 16.6373 26.3867 15.6553L26.8262 14.0449L25.1787 13.7783C24.5388 13.6747 23.9528 13.4836 23.3896 13.1914L23.1504 13.0596L23.1406 13.0547L22.9102 12.917C22.4568 12.6332 22.047 12.2927 21.6855 11.9014L21.5088 11.7021C21.0467 11.1555 20.6875 10.5511 20.4131 9.82617L19.0107 10.3564L19.0283 10.3496L20.4131 9.8252L20.4092 9.81543L20.3164 9.55762C20.1135 8.94856 20.0098 8.30084 20.0098 7.62012C20.0098 6.81875 20.1708 6.04944 20.4971 5.2998L20.4961 5.29883C20.7907 4.63791 21.174 4.04714 21.6396 3.53809L21.8447 3.32422C22.3432 2.83017 22.9107 2.42561 23.5537 2.11035L23.834 1.98047C24.5644 1.66196 25.3419 1.50003 26.1992 1.5ZM7.68945 1.5C8.55021 1.50001 9.38618 1.6641 10.1562 1.98535H10.1572C10.8435 2.27875 11.4386 2.65625 11.9346 3.11035L12.1406 3.30957C12.6256 3.80315 13.0353 4.38185 13.3564 5.02832L13.4893 5.30957L13.4902 5.3125C13.8305 6.0751 13.9902 6.83986 13.9902 7.63867C13.9902 8.7103 13.8975 9.86108 13.709 11.0928L13.623 11.626C13.4102 12.8614 13.0902 14.0978 12.6641 15.3115L12.4746 15.8301L12.4727 15.8359C11.9624 17.2012 11.2787 18.5098 10.4492 19.7617C9.83695 20.6657 9.14855 21.4552 8.37207 22.1328L5.69141 20.2715C6.10396 19.6837 6.45368 19.1036 6.73633 18.5312C7.20103 17.5901 7.57049 16.6372 7.83887 15.6553L8.2793 14.0449L6.63184 13.7783C5.99194 13.6748 5.40591 13.4835 4.84277 13.1914L4.60254 13.0596L4.59277 13.0547L4.3623 12.917C3.90983 12.6336 3.50646 12.2969 3.16211 11.915L2.99512 11.7207C2.5397 11.1641 2.17801 10.552 1.90332 9.82617L0.5 10.3564L0.517578 10.3496L1.90332 9.8252L1.89941 9.81543L1.80664 9.55762C1.60373 8.94853 1.5 8.30087 1.5 7.62012C1.50005 6.82228 1.65904 6.05609 1.98242 5.30957C2.27763 4.64466 2.66096 4.0497 3.12891 3.53809L3.33496 3.32422C3.83355 2.8301 4.4008 2.42562 5.04395 2.11035L5.32422 1.98047C6.0547 1.66195 6.83211 1.5 7.68945 1.5Z" stroke="#730010" stroke-width="3"/>
</svg>
