<svg width="72" height="77" viewBox="0 0 72 77" fill="none" xmlns="http://www.w3.org/2000/svg">
<path d="M27.9482 73.7932C20.8841 72.1698 14.5324 68.4695 9.581 63.0923L12.1822 60.6704C16.6473 65.5193 22.3722 68.8552 28.738 70.3182L27.9482 73.7932ZM5.11379 57.1092C1.76817 51.5053 0 45.0701 0 38.5001C0 37.795 0.0205601 37.0821 0.0609713 36.3805L3.60014 36.5858C3.56398 37.2197 3.54555 37.8635 3.54555 38.5001C3.54555 44.4241 5.13931 50.2248 8.15385 55.2747L5.11379 57.1092ZM4.67565 29.9268L1.25487 28.9928C2.20347 25.4779 3.67529 22.1341 5.62921 19.0541C7.55051 16.0254 9.90429 13.3041 12.6246 10.9663L14.9273 13.6762C9.93123 17.9697 6.38639 23.5893 4.67565 29.9268ZM20.4488 9.84478L18.7473 6.71702C21.7717 5.05368 25.011 3.84022 28.375 3.11014L29.123 6.59582C26.0915 7.25317 23.1733 8.34614 20.4488 9.84478Z" fill="white"/>
<path d="M43.8072 73.8488L43.0415 70.3681C46.0595 69.6965 48.9642 68.5928 51.6746 67.0864L53.3896 70.2063C50.3814 71.8782 47.1577 73.1038 43.8072 73.8488ZM59.4952 65.9306L57.1804 63.2307C62.1574 58.9158 65.6781 53.2813 67.3612 46.9359L70.7862 47.8549C69.8525 51.3748 68.3949 54.7257 66.4544 57.8143C64.5459 60.8508 62.2049 63.5814 59.4952 65.9306ZM71.9482 40.4629L68.4084 40.2726C68.4396 39.6858 68.4552 39.0898 68.4552 38.4994C68.4552 32.5255 66.8366 26.6835 63.7738 21.6037L66.8054 19.7557C70.2042 25.3923 72 31.8746 72 38.4994C72 39.1525 71.983 39.8134 71.9482 40.4629ZM59.7221 16.2251C55.2364 11.3962 49.4973 8.08519 43.1251 6.65L43.9 3.17146C50.9713 4.76422 57.3385 8.43668 62.3134 13.7917L59.7221 16.2251Z" fill="white"/>
<path d="M40.7508 17.0371V20.7987L42.9344 21.712C44.3758 22.3152 45.7377 23.1073 46.9833 24.0677L48.8621 25.5164L52.1085 23.6313L56.8593 31.9067L53.62 33.7875L53.9227 36.1438C54.0227 36.9224 54.0737 37.7152 54.0737 38.5009C54.0737 39.2865 54.0227 40.0794 53.9234 40.8572L53.6207 43.2135L56.8607 45.0943L52.1099 53.3697L48.8642 51.4846L46.9855 52.9333C45.7398 53.8937 44.3779 54.6858 42.9366 55.289L40.7529 56.2023V59.9632H31.2492V56.2016L29.0656 55.2883C27.6242 54.6858 26.2623 53.893 25.0167 52.9326L23.1379 51.4839L19.8915 53.369L15.1407 45.0936L18.38 43.2128L18.0773 40.8565C17.9773 40.0779 17.9263 39.2851 17.9263 38.4994C17.9263 37.7138 17.9773 36.9209 18.0766 36.1431L18.3793 33.7868L15.1393 31.906L19.8901 23.6306L23.1358 25.5157L25.0145 24.0669C26.2602 23.1066 27.6221 22.3145 29.0627 21.7113L31.2464 20.798V17.0364H40.7508M42.7671 13.4723H29.2322C28.3885 13.4723 27.7037 14.1603 27.7037 15.0095V18.4203C25.9617 19.1489 24.3361 20.1 22.86 21.2379L19.9178 19.5297C19.6774 19.3899 19.4144 19.3236 19.1549 19.3236C18.6267 19.3236 18.1127 19.5995 17.8298 20.0922L11.062 31.8803C10.6402 32.6154 10.8905 33.555 11.6214 33.98L14.5615 35.6868C14.4431 36.608 14.3814 37.5469 14.3814 38.5001C14.3814 39.4541 14.4431 40.3931 14.5615 41.3142L11.6221 43.021C10.8912 43.4453 10.6409 44.3856 11.0627 45.1207L17.8306 56.9088C18.1134 57.4022 18.6274 57.6774 19.1556 57.6774C19.4151 57.6774 19.6774 57.6111 19.9185 57.4714L22.8607 55.7631C24.3368 56.901 25.9631 57.8521 27.7044 58.5807V61.9915C27.7044 62.84 28.3885 63.5287 29.2329 63.5287H42.7685C43.6129 63.5287 44.2971 62.8407 44.2971 61.9915V58.5807C46.039 57.8521 47.6647 56.901 49.1407 55.7631L52.0829 57.4714C52.3233 57.6111 52.5863 57.6774 52.8458 57.6774C53.374 57.6774 53.888 57.4015 54.1709 56.9088L60.9387 45.1207C61.3605 44.3856 61.1102 43.446 60.3793 43.021L57.4392 41.3142C57.5576 40.3931 57.6193 39.4541 57.6193 38.5009C57.6193 37.5469 57.5576 36.608 57.4392 35.6868L60.3786 33.98C61.1095 33.5558 61.3598 32.6154 60.938 31.8803L54.1702 20.0922C53.8873 19.5988 53.3733 19.3236 52.8451 19.3236C52.5856 19.3236 52.3233 19.3899 52.0822 19.5297L49.14 21.2379C47.664 20.1 46.0376 19.1489 44.2963 18.4203V15.0095C44.2956 14.1603 43.6115 13.4723 42.7671 13.4723Z" fill="white"/>
<path d="M35.688 5.03657L28.7317 9.00491C27.9894 9.42841 27.0684 8.88941 27.0684 8.03101V1.12169C27.0684 0.263288 27.9894 -0.276424 28.7317 0.147788L35.688 4.11613C36.0432 4.31933 36.0432 4.83409 35.688 5.03657Z" fill="white"/>
<path d="M36.2205 72.8842L43.1769 76.8525C43.9192 77.276 44.8401 76.737 44.8401 75.8786V68.97C44.8401 68.1116 43.9192 67.5719 43.1769 67.9961L36.2205 71.9644C35.8653 72.1662 35.8653 72.681 36.2205 72.8842Z" fill="white"/>
</svg>
